<svg xmlns="http://www.w3.org/2000/svg" width="512" height="512" viewBox="0 0 512 512" version="1.1"><path d="M 249.929 18.382 C 245.843 20.728, 239.350 24.700, 235.500 27.208 C 231.650 29.716, 226.861 32.452, 224.857 33.288 C 222.854 34.124, 216.779 37.389, 211.357 40.544 C 195.026 50.047, 194.463 50.358, 195.500 49.295 C 196.050 48.731, 200.323 45.621, 204.996 42.385 L 213.492 36.500 205.496 35.876 C 201.098 35.533, 194.812 34.537, 191.526 33.663 C 184.954 31.914, 185.870 31.633, 173.073 39.323 C 169.212 41.642, 169.489 40.809, 174.731 34.334 C 177.999 30.297, 178.038 30.147, 175.976 29.493 C 174.806 29.121, 173.717 28.971, 173.554 29.159 C 173.392 29.346, 170 34.967, 166.015 41.648 C 156.099 58.276, 151.816 62.943, 141.989 67.826 C 137.601 70.006, 134.305 71.316, 134.662 70.737 C 135.086 70.052, 134.473 69.912, 132.906 70.335 C 131.583 70.692, 124.875 71.716, 118 72.611 C 111.125 73.505, 104.938 74.395, 104.250 74.587 C 103.408 74.823, 102.998 77.151, 102.994 81.719 C 102.991 85.448, 102.551 91.172, 102.016 94.438 C 101.481 97.705, 101.220 100.554, 101.436 100.769 C 101.652 100.985, 102.880 100.645, 104.164 100.014 C 106.412 98.909, 106.405 98.943, 104 100.911 C 102.625 102.035, 101.162 102.966, 100.750 102.978 C 100.338 102.990, 100 103.621, 100 104.380 C 100 105.138, 98.501 108.738, 96.668 112.380 C 94.835 116.021, 93.515 119, 93.734 119 C 93.952 119, 95.002 118.534, 96.066 117.965 C 97.130 117.395, 98 117.159, 98 117.439 C 98 117.719, 96.744 118.598, 95.208 119.392 C 93.672 120.187, 90.245 122.630, 87.593 124.822 C 84.940 127.014, 80.459 130.034, 77.635 131.532 C 62.132 139.759, 58 143.857, 58 151.008 C 58 153.469, 58.354 154.078, 59.523 153.629 C 60.863 153.115, 104.454 128.161, 111 124.161 C 112.375 123.321, 113.050 123.111, 112.500 123.694 C 111.950 124.278, 99.800 132.289, 85.500 141.497 C 71.200 150.704, 59.388 158.333, 59.252 158.450 C 58.752 158.878, 62.523 166.980, 63.227 166.990 C 63.626 166.995, 75.008 160.622, 88.520 152.827 L 113.087 138.653 121.997 127.896 C 132.094 115.705, 142.169 106.691, 156.043 97.436 C 187.875 76.200, 232.313 65.315, 272.144 68.996 C 280.040 69.726, 287.850 70.425, 289.500 70.549 C 291.150 70.673, 293.175 71.010, 294 71.297 C 296.506 72.169, 308.829 75, 310.122 75 C 310.788 75, 311.043 74.710, 310.689 74.356 C 310.335 74.002, 318.697 68.320, 329.273 61.730 C 339.848 55.140, 348.645 49.623, 348.822 49.469 C 348.999 49.315, 347.987 47.355, 346.571 45.113 L 343.998 41.037 335.749 45.870 C 324.953 52.194, 300.778 66.146, 299.500 66.790 C 298.833 67.125, 298.833 66.949, 299.500 66.261 C 300.050 65.694, 310.061 59.306, 321.746 52.066 L 342.991 38.903 340.933 34.869 C 339.576 32.208, 338.388 31.021, 337.445 31.383 C 336.263 31.836, 291.517 57.452, 278.838 64.933 C 276.824 66.121, 274.933 66.700, 274.635 66.219 C 274.338 65.737, 285.991 57.759, 300.531 48.489 C 315.072 39.220, 326.857 31.523, 326.720 31.387 C 326.583 31.250, 323.538 31.951, 319.952 32.946 C 316.366 33.940, 310.523 35.089, 306.966 35.498 C 301.028 36.182, 298.390 37.458, 274.662 51.126 C 260.452 59.312, 248.372 65.730, 247.819 65.388 C 246.851 64.790, 253.372 60.265, 279.769 43.221 L 292.039 35.299 286.149 33.288 L 280.259 31.276 258.379 43.929 C 227.051 62.046, 225 63.198, 225 62.683 C 225 62.429, 236.363 54.889, 250.250 45.928 C 264.137 36.967, 275.692 29.488, 275.927 29.308 C 276.402 28.942, 273.843 26.944, 269.921 24.618 C 267.174 22.989, 268.333 22.394, 223.250 48.613 C 213.195 54.460, 220.576 49.315, 241.468 35.913 C 253.825 27.986, 263.918 21.050, 263.896 20.500 C 263.874 19.950, 262.394 18.289, 260.607 16.808 L 257.358 14.116 249.929 18.382 M 168.661 23.939 C 162.007 27.842, 160.382 29.756, 166.431 26.566 C 169.143 25.136, 173.081 23.691, 175.181 23.355 C 177.282 23.019, 179 22.352, 179 21.872 C 179 20.069, 173.325 21.203, 168.661 23.939 M 319 25.577 L 316.500 27.083 319 26.421 C 320.375 26.056, 322.175 25.376, 323 24.909 C 324.333 24.155, 324.333 24.061, 323 24.066 C 322.175 24.069, 320.375 24.749, 319 25.577 M 331.303 63.831 C 321.295 69.699, 312.829 74.791, 312.490 75.147 C 312.151 75.502, 315.389 77.002, 319.687 78.480 C 331.140 82.417, 330.736 82.318, 328.749 80.702 C 327.156 79.406, 328.309 78.442, 341.499 70.035 C 349.474 64.952, 356 60.529, 356 60.208 C 356 58.927, 351.436 53.018, 350.500 53.088 C 349.950 53.129, 341.312 57.963, 331.303 63.831 M 393 66 C 393 66.550, 394.377 67, 396.059 67 C 397.844 67, 398.861 66.583, 398.500 66 C 398.160 65.450, 396.784 65, 395.441 65 C 394.098 65, 393 65.450, 393 66 M 347.256 74.269 C 339.422 78.796, 333.009 82.755, 333.006 83.066 C 332.997 83.890, 343.804 88.239, 344.864 87.839 C 346.736 87.132, 372.968 70.476, 372.984 69.985 C 373.001 69.428, 363.791 65.988, 362.366 66.019 C 361.890 66.029, 355.090 69.742, 347.256 74.269 M 364.769 81.274 C 356.117 86.348, 349.029 90.765, 349.019 91.089 C 349.008 91.414, 350.012 92.147, 351.250 92.718 C 352.488 93.290, 357.026 96.295, 361.335 99.396 L 369.170 105.035 389.126 92.395 C 408.326 80.236, 409.029 79.676, 407.681 77.647 C 406.911 76.486, 404.779 75.230, 402.944 74.855 C 399.976 74.248, 397.774 75.230, 383.053 83.729 C 358.793 97.734, 358.353 97.485, 381.822 83.029 C 389.699 78.177, 395.718 73.944, 395.198 73.622 C 394.677 73.300, 391.157 72.815, 387.376 72.542 L 380.500 72.047 364.769 81.274 M 242 76.175 C 203.906 78.431, 168.287 93.820, 142.906 118.987 C 132.297 129.506, 127.586 135.564, 120.731 147.500 C 111.841 162.979, 104.101 186.833, 103.422 200.843 C 103.252 204.350, 102.863 207.471, 102.557 207.777 C 102.250 208.083, 102 215.435, 102 224.115 C 102 239.815, 103.850 258.504, 106.444 269 C 107.191 272.025, 108.092 276.185, 108.446 278.245 L 109.089 281.990 112.794 280.393 C 115.085 279.406, 120.762 278.593, 127.660 278.263 C 139.974 277.674, 142.594 278.151, 165 285.063 C 186.537 291.706, 189.762 292.353, 201.500 292.385 C 214.089 292.418, 219.627 290.768, 229.864 283.932 C 238.566 278.121, 243.122 276.724, 253.500 276.682 C 263.775 276.642, 269.336 277.995, 288 285.075 C 305.598 291.750, 312.091 293.314, 322.052 293.274 C 328.872 293.246, 331.809 292.732, 336.552 290.737 C 339.824 289.361, 347 286.346, 352.500 284.038 C 370.756 276.375, 389.374 275.015, 402.086 280.414 C 403.383 280.965, 403.973 279.721, 405.320 273.590 C 410.754 248.858, 411.515 212.814, 407.042 192.030 C 402.899 172.783, 395.114 154.329, 384.689 139.043 C 377.409 128.369, 359.448 110.788, 348.019 103.149 C 317.892 83.013, 281.760 73.820, 242 76.175 M 391.769 98.275 C 382.017 103.899, 374.029 108.762, 374.019 109.083 C 374.009 109.403, 375.814 111.123, 378.032 112.906 L 382.064 116.146 396.282 107.393 C 404.102 102.579, 410.731 98.305, 411.013 97.894 C 411.724 96.860, 410.949 87.994, 410.149 88.025 C 409.792 88.038, 401.521 92.651, 391.769 98.275 M 396.286 108.843 C 389.018 113.054, 383.055 116.844, 383.036 117.265 C 383.016 117.685, 384.515 119.683, 386.368 121.704 L 389.735 125.379 400.912 118.439 C 411.572 111.821, 412.064 111.367, 411.545 108.625 C 411.245 107.044, 411 104.681, 411 103.375 C 411 102.069, 410.663 101.042, 410.250 101.093 C 409.837 101.143, 403.554 104.631, 396.286 108.843 M 208.641 111.493 C 184.445 119.872, 149.830 154.174, 133.959 185.500 C 126.195 200.824, 126.751 207.682, 135.574 205.445 C 139.908 204.347, 140.078 204.070, 142.915 193.500 C 147.857 175.090, 159.603 156.220, 175.471 141.200 C 188.404 128.957, 202.631 120.062, 225 110.234 C 230.348 107.884, 215.836 109.001, 208.641 111.493 M 403.780 123.839 C 398.433 126.952, 394.058 129.950, 394.056 130.500 C 394.055 131.050, 395.314 133.020, 396.855 134.877 C 400.098 138.788, 399.222 139.037, 412.641 130.381 L 421.050 124.956 418.275 121.478 C 416.749 119.565, 415.050 118.040, 414.500 118.089 C 413.950 118.138, 409.126 120.725, 403.780 123.839 M 414.499 135.084 C 407.899 138.901, 402.514 142.356, 402.532 142.762 C 402.607 144.474, 410.519 159, 411.377 159 C 412.408 159, 440.685 141.455, 442.840 139.478 C 443.930 138.478, 443.094 137.642, 438.340 134.979 C 435.128 133.180, 431.149 130.906, 429.499 129.926 L 426.497 128.144 414.499 135.084 M 429 150.167 C 419.375 155.732, 411.398 160.360, 411.274 160.452 C 410.933 160.703, 414.482 169.815, 415.201 170.535 C 415.691 171.024, 441.904 155.015, 451.345 148.460 C 453.087 147.250, 453.003 146.978, 449.845 143.613 L 446.500 140.049 429 150.167 M 88 156.510 C 73.358 166.090, 64.531 172.473, 64.583 173.443 C 64.629 174.299, 64.742 176.782, 64.833 178.960 L 65 182.920 81.750 173.324 C 90.963 168.046, 99.222 163.001, 100.104 162.114 C 101.451 160.758, 112.446 140.866, 111.737 141.067 C 111.607 141.104, 100.925 148.053, 88 156.510 M 435 162.532 C 425.375 168.217, 417.163 173.010, 416.752 173.184 C 415.716 173.621, 420.397 194.062, 421.560 194.183 C 423.395 194.373, 447.961 177.475, 447.994 176 C 448.012 175.175, 449.365 170.675, 451 166 C 453.861 157.820, 454.821 151.892, 453.250 152.098 C 452.837 152.153, 444.625 156.848, 435 162.532 M 81.516 177.113 C 67.236 186.259, 64.349 188.519, 63.385 191.301 C 62.755 193.120, 61.262 196.526, 60.067 198.868 L 57.895 203.127 60.098 201.947 C 61.310 201.299, 67.747 197.613, 74.401 193.757 C 88.879 185.367, 88.794 185.413, 87.500 186.707 C 86.950 187.257, 79.423 192.074, 70.774 197.413 C 61.850 202.920, 53.761 208.679, 52.074 210.726 C 48.362 215.230, 44.351 222.685, 45.190 223.523 C 45.536 223.869, 55.873 218.339, 68.160 211.234 L 90.500 198.314 91.812 192.407 C 92.533 189.158, 94.476 182.068, 96.129 176.651 C 97.783 171.234, 98.992 166.674, 98.818 166.518 C 98.643 166.362, 90.857 171.129, 81.516 177.113 M 433.500 192.017 L 421.500 198.994 421.850 204.747 C 422.043 207.911, 422.364 210.671, 422.563 210.880 C 422.763 211.088, 428.809 207.488, 435.999 202.880 C 446.882 195.904, 448.984 194.165, 448.550 192.500 C 448.262 191.400, 448.021 189.262, 448.014 187.750 C 448.006 186.213, 447.448 185.009, 446.750 185.020 C 446.063 185.030, 440.100 188.179, 433.500 192.017 M 436.201 204.647 L 423 212.225 423 219.227 L 423 226.230 425.750 224.440 C 427.262 223.456, 434.196 218.862, 441.159 214.231 L 453.817 205.810 452.064 201.894 C 451.099 199.739, 450.106 197.773, 449.856 197.523 C 449.607 197.273, 443.462 200.479, 436.201 204.647 M 67 215.014 L 44.500 229.088 44.589 233.083 C 44.638 235.281, 45.126 237.526, 45.672 238.072 C 46.330 238.730, 53.795 234.947, 67.782 226.867 L 88.897 214.669 89.547 209.466 C 90.746 199.874, 91.499 199.688, 67 215.014 M 438.838 218.342 L 423.176 227.500 422.515 236.500 C 421.606 248.885, 419.416 263.539, 416.631 275.878 L 414.289 286.256 420.622 289.128 C 427.881 292.419, 431.517 292.715, 435.027 290.298 C 437.372 288.683, 437.427 288.686, 436.092 290.340 C 433.883 293.078, 436.002 294.137, 443.022 293.802 C 447.364 293.594, 449.487 293.059, 449.807 292.091 C 450.113 291.166, 449.761 290.878, 448.784 291.252 C 447.704 291.667, 447.277 291.093, 447.229 289.162 C 447.192 287.698, 446.847 284.187, 446.464 281.359 C 445.514 274.357, 447.801 267.881, 454.541 258.487 C 459.870 251.060, 460.271 249.777, 456.473 252.321 C 455.388 253.047, 452.700 254.661, 450.500 255.907 L 446.500 258.172 449.500 255.837 C 451.150 254.553, 455.200 251.476, 458.500 249.001 C 465.863 243.478, 468.500 238.686, 468.500 230.831 C 468.500 226.285, 468.042 224.674, 466.192 222.704 L 463.884 220.247 449.192 228.728 C 426.965 241.559, 425.420 242.413, 426.500 241.280 C 427.050 240.703, 434.807 235.196, 443.737 229.041 C 452.668 222.886, 460.230 217.437, 460.543 216.931 C 461.128 215.984, 456.258 208.928, 455.131 209.092 C 454.784 209.142, 447.452 213.305, 438.838 218.342 M 69.280 233.271 C 58.709 239.997, 50.046 245.830, 50.030 246.234 C 50.013 246.638, 51.286 248.408, 52.859 250.168 L 55.718 253.368 72.326 243.934 L 88.934 234.500 88.967 227.750 C 88.985 224.037, 88.888 221.010, 88.750 221.021 C 88.612 221.033, 79.851 226.546, 69.280 233.271 M 73.885 248.365 L 59.270 257.615 61.175 259.967 C 62.222 261.261, 63.458 262.996, 63.921 263.823 C 64.787 265.370, 66.121 264.772, 80.750 256.278 C 89.078 251.442, 84.828 254.911, 75.104 260.887 L 65.207 266.969 65.140 272.562 L 65.074 278.154 68.287 276.280 C 70.054 275.249, 76.102 271.743, 81.727 268.488 L 91.955 262.571 91.394 258.535 C 90.490 252.030, 90.323 251.775, 87.765 252.986 L 85.500 254.058 87.750 252.407 C 90.057 250.714, 90.619 246.260, 89.150 241.307 C 88.537 239.241, 87.657 239.648, 73.885 248.365 M 77.283 278.517 C 67.161 284.910, 62.038 288.746, 61.653 290.220 C 60.920 293.020, 60.842 292.967, 66.614 293.588 C 71.220 294.083, 72.154 293.737, 82.899 287.539 C 89.169 283.924, 94.472 281.139, 94.684 281.351 C 94.896 281.563, 90.770 284.337, 85.516 287.516 C 80.262 290.695, 76.084 293.417, 76.232 293.566 C 76.834 294.167, 85.896 292.011, 91.367 289.964 C 96.810 287.927, 97.165 287.601, 96.605 285.140 C 96.274 283.688, 95.378 279.663, 94.614 276.196 C 93.850 272.729, 93.026 269.693, 92.783 269.449 C 92.539 269.206, 85.565 273.286, 77.283 278.517 M 236.869 296.299 C 215.982 309.818, 213.910 311.244, 214.421 311.754 C 214.675 312.008, 217.722 310.520, 221.191 308.448 C 224.661 306.375, 227.796 304.526, 228.157 304.338 C 228.518 304.151, 228.578 304.898, 228.290 305.999 C 228.002 307.099, 228.144 308, 228.604 308 C 229.065 308, 237.082 303.616, 246.420 298.259 L 263.399 288.517 259.449 287.816 C 252.327 286.552, 251.379 286.908, 236.869 296.299 M 112.155 291.978 C 104.396 296.993, 104.143 298.194, 111.750 293.903 C 120.228 289.121, 121.771 288, 119.878 288 C 119.015 288, 115.540 289.790, 112.155 291.978 M 371.332 296.332 C 359.382 303.744, 351.487 309.290, 360 304.293 C 361.925 303.163, 368.788 299.222, 375.250 295.535 C 381.712 291.849, 387 288.646, 387 288.417 C 387 287.067, 383.061 289.057, 371.332 296.332 M 350 297.089 C 338.525 304.118, 332.471 308.564, 341 303.699 C 356.791 294.691, 364.305 290.023, 363 290.033 C 362.175 290.039, 356.325 293.214, 350 297.089 M 264.339 298.686 C 247.591 309.438, 247.091 310.388, 263 301.230 C 265.342 299.882, 265.326 299.942, 262.750 302.183 C 260.325 304.292, 258.956 308, 260.602 308 C 260.933 308, 266.826 304.763, 273.698 300.807 C 286.710 293.316, 286.823 293.134, 279.339 291.694 C 276.608 291.168, 274.565 292.121, 264.339 298.686 M 385.384 300.524 C 377.205 305.713, 370.361 310.418, 370.174 310.979 C 369.692 312.423, 372.190 312.246, 374.527 310.670 C 375.612 309.939, 379.136 307.853, 382.357 306.035 C 387.692 303.025, 388.109 302.928, 387.026 304.951 C 386.373 306.172, 386.088 307.421, 386.393 307.726 C 386.698 308.031, 391.908 305.442, 397.971 301.971 C 404.034 298.501, 408.884 295.568, 408.748 295.454 C 408.611 295.339, 406.645 294.311, 404.377 293.167 L 400.254 291.089 385.384 300.524 M 153.429 302.099 C 147.968 305.935, 142.825 309.787, 142 310.658 C 140.644 312.089, 140.788 312.173, 143.500 311.533 C 145.150 311.144, 147.850 310.752, 149.500 310.663 C 152.926 310.477, 172.309 299.907, 171.218 298.820 C 170.823 298.426, 168.893 297.433, 166.929 296.614 L 163.358 295.123 153.429 302.099 M 291.718 300.420 C 284.753 305.241, 284.679 305.801, 291.500 302.066 C 298.349 298.315, 300.075 296.974, 297.950 297.055 C 297.152 297.085, 294.348 298.600, 291.718 300.420 M 49 299.833 C 49 301.267, 50.136 301.885, 51.682 301.292 C 52.893 300.827, 52.921 300.565, 51.834 299.876 C 50.124 298.792, 49 298.775, 49 299.833 M 320.500 301.853 C 314.280 303.902, 313 304.718, 313 306.632 C 313 307.787, 314.367 307.380, 318.750 304.923 C 323.866 302.055, 327.212 299.815, 325.950 300.103 C 325.702 300.159, 323.250 300.947, 320.500 301.853 M 196.500 305.730 C 186.897 312.029, 189.837 312.263, 200.672 306.063 C 208.079 301.824, 209.017 301.021, 206.500 301.075 C 204.700 301.114, 200.700 302.976, 196.500 305.730 M 301.773 306.274 C 297.523 309.082, 294.246 311.579, 294.489 311.823 C 295.089 312.423, 311.993 302.697, 311.997 301.750 C 312.004 300.131, 309.180 301.380, 301.773 306.274 M 437 302.907 C 432.037 303.561, 426 306.729, 426 308.680 C 426 309.367, 426.921 310.422, 428.046 311.025 C 429.737 311.930, 431.258 311.474, 436.796 308.404 C 440.483 306.361, 444.388 304.083, 445.473 303.344 C 447.322 302.084, 447.260 302.010, 444.473 302.157 C 442.838 302.244, 439.475 302.581, 437 302.907 M 62.239 306.420 C 60.186 308.301, 58.835 310.168, 59.235 310.569 C 59.993 311.326, 67.348 307.779, 71.255 304.772 L 73.500 303.044 69.735 303.022 C 66.826 303.005, 65.123 303.777, 62.239 306.420 M 458.526 307.086 C 455.140 309.233, 454.049 310.412, 454.941 310.963 C 456.760 312.088, 459.539 311.156, 462.472 308.438 C 464.953 306.139, 465.784 304, 464.196 304 C 463.753 304, 461.202 305.389, 458.526 307.086" stroke="none" fill="#eac239" fill-rule="evenodd"/><path d="M 245.472 9.366 C 238.055 12.947, 228.617 19.547, 221.398 26.200 L 216.996 30.258 206.248 27.148 C 189.832 22.397, 182.410 21.523, 174.878 23.453 C 171.460 24.328, 167.184 25.959, 165.375 27.077 C 159.530 30.690, 153.197 38.885, 147.364 50.386 L 141.661 61.630 130.081 62.793 C 110.513 64.759, 97.779 68.908, 92.666 74.986 C 89.746 78.455, 89.326 80.448, 88.569 94.418 C 88.129 102.530, 87.509 105.452, 85.161 110.469 C 81.285 118.753, 74.226 125.419, 62.436 131.932 C 44.422 141.882, 41.671 146.780, 46.777 159.802 C 52.772 175.089, 53.340 186.284, 48.633 196.414 C 47.334 199.211, 43.072 205.957, 39.162 211.404 C 31.006 222.767, 29.604 226.206, 30.198 233.378 C 30.774 240.324, 34.015 246.429, 41.772 255.181 C 45.340 259.206, 49.091 264.300, 50.108 266.500 C 52.186 270.998, 52.622 280.917, 50.952 285.708 L 49.904 288.715 44.202 287.373 C 32.074 284.519, 23.056 286.447, 15.107 293.594 C 9.286 298.827, 6.899 303.533, 3.237 317 C 0.783 326.023, 0.633 328.025, 0.238 356.860 C -0.067 379.142, 0.288 394.042, 1.572 412.860 C 3.067 434.777, 3.283 446.963, 2.751 479.500 C 2.663 484.859, 4.945 490.405, 9.433 495.738 C 12.171 498.992, 22.753 505.700, 26.306 506.434 C 27.513 506.684, 31.650 507.611, 35.500 508.495 C 46.694 511.066, 73.861 511.495, 100 509.515 C 120.136 507.990, 141.334 507.828, 301.791 507.972 C 504.378 508.154, 486.589 508.884, 496.313 499.997 C 503.098 493.796, 507.305 485.226, 509.960 472.196 C 511.712 463.601, 511.998 458.462, 511.984 435.843 C 511.975 421.354, 511.543 404.325, 511.023 398 C 508.470 366.927, 507.890 347.400, 509.193 336.406 C 511.741 314.910, 509.940 305.599, 501.399 296.099 C 495.093 289.085, 487.808 285.692, 479.189 285.754 C 475.510 285.781, 470.524 286.525, 468.109 287.407 C 462.809 289.343, 461.733 288.689, 459.994 282.477 C 457.464 273.443, 459.894 266.885, 471.391 251.712 C 486.539 231.722, 486.510 226.813, 471.127 207.500 C 458.814 192.042, 458.050 188.793, 463.055 173.171 C 470.650 149.460, 467.592 140.592, 447.719 128.687 C 437.593 122.622, 430.820 116.504, 427.893 110.780 C 424.974 105.073, 423 96.275, 423 88.971 C 423 80.562, 420.689 72.687, 417.480 70.163 C 415.570 68.661, 412.663 68.057, 404.753 67.521 C 380.477 65.876, 368.875 58.753, 359 39.431 C 353.866 29.385, 350.968 25.552, 346.931 23.464 C 342.563 21.205, 332.910 21.633, 324.668 24.450 C 313.809 28.161, 305.093 29.400, 299.018 28.097 C 291.804 26.550, 287.557 24.111, 279 16.599 C 269.534 8.290, 264.977 6, 257.906 6 C 253.752 6, 250.773 6.806, 245.472 9.366 M 248.418 17.716 C 239.922 24.830, 229.734 31.340, 222.754 34.115 C 213.835 37.662, 199.445 36.258, 175.500 29.506 C 173.809 29.029, 172.369 30.854, 166.181 41.317 C 151.305 66.470, 146.889 69.174, 114 73.272 L 103.500 74.580 102.842 85.158 C 101.310 109.770, 94.022 122.901, 76.865 131.959 C 60.192 140.762, 57.293 144.185, 58.478 153.667 C 58.851 156.659, 60.315 161.670, 61.730 164.803 C 63.877 169.557, 64.319 172.072, 64.401 180 C 64.494 188.949, 64.291 189.935, 60.902 197 C 58.923 201.125, 55.641 206.479, 53.607 208.898 C 47.395 216.289, 44.858 221.477, 44.267 227.997 C 43.784 233.321, 44.080 234.719, 46.901 240.451 C 48.650 244.003, 52.980 250.321, 56.525 254.492 C 60.070 258.663, 63.466 263.002, 64.071 264.133 C 65.751 267.271, 65.273 277.691, 63.092 285.486 C 62.017 289.328, 61.352 292.685, 61.613 292.946 C 62.497 293.831, 76.472 293.877, 81.014 293.010 C 83.496 292.536, 88.152 291.167, 91.360 289.967 C 96.353 288.098, 97.124 287.476, 96.719 285.642 C 89.899 254.788, 89.507 251.499, 89.549 225.500 C 89.581 205.350, 89.865 201.261, 91.839 192.500 C 95.507 176.218, 99.752 164.237, 106.318 151.631 C 120.380 124.633, 143.383 102.520, 172.500 88.008 C 238.423 55.152, 322.416 64.093, 374.410 109.500 C 380.437 114.764, 392.462 128.349, 397.573 135.668 C 422.223 170.969, 429.022 220.980, 416.633 275.872 L 414.292 286.244 419.849 288.788 C 429.141 293.042, 447.786 295.774, 449.425 293.121 C 449.724 292.638, 449.226 290.756, 448.320 288.939 C 444.218 280.718, 445.933 270.691, 453.209 260.347 C 467.066 240.647, 469.015 236.975, 468.985 230.624 C 468.968 226.866, 468.204 225.482, 460.599 215.419 C 453.376 205.862, 449.419 197.378, 447.973 188.349 C 446.696 180.375, 447.074 177.697, 451.209 165.394 C 456.744 148.930, 453.970 143.666, 433.849 132.460 C 423.318 126.594, 416.436 120.651, 413.364 114.770 C 412.158 112.461, 411.555 108.415, 411.313 101 C 410.934 89.372, 409.512 80.595, 407.490 77.410 C 406.186 75.355, 402.950 74.627, 380.500 71.343 C 374.436 70.455, 362.798 66.054, 360.139 63.642 C 357.453 61.205, 349.680 51.261, 348.694 49 C 346.604 44.205, 338.251 30.539, 336.894 29.693 C 335.736 28.971, 331.977 29.618, 323.394 32.016 C 308.678 36.127, 296.036 36.659, 286.593 33.564 C 281.243 31.810, 267.040 23.532, 264.455 20.661 C 263.880 20.022, 261.594 17.795, 259.373 15.712 L 255.337 11.923 248.418 17.716 M 242 76.175 C 203.269 78.469, 167.924 93.945, 142 119.962 C 122.686 139.346, 111.003 161.389, 104.941 189.884 C 100.677 209.928, 101.412 248.675, 106.442 269 C 107.190 272.025, 108.092 276.185, 108.446 278.245 L 109.089 281.990 112.794 280.393 C 115.085 279.406, 120.762 278.593, 127.660 278.263 C 139.974 277.674, 142.594 278.151, 165 285.063 C 186.537 291.706, 189.762 292.353, 201.500 292.385 C 214.089 292.418, 219.627 290.768, 229.864 283.932 C 238.566 278.121, 243.122 276.724, 253.500 276.682 C 263.775 276.642, 269.336 277.995, 288 285.075 C 305.598 291.750, 312.091 293.314, 322.052 293.274 C 328.872 293.246, 331.809 292.732, 336.552 290.737 C 339.824 289.361, 347 286.346, 352.500 284.038 C 370.756 276.375, 389.374 275.015, 402.086 280.414 C 403.383 280.965, 403.973 279.721, 405.320 273.590 C 410.754 248.858, 411.515 212.814, 407.042 192.030 C 402.899 172.783, 395.114 154.329, 384.689 139.043 C 377.409 128.369, 359.448 110.788, 348.019 103.149 C 317.892 83.013, 281.760 73.820, 242 76.175 M 208.641 111.493 C 184.445 119.872, 149.830 154.174, 133.959 185.500 C 126.195 200.824, 126.751 207.682, 135.574 205.445 C 139.908 204.347, 140.078 204.070, 142.915 193.500 C 147.857 175.090, 159.603 156.220, 175.471 141.200 C 188.404 128.957, 202.631 120.062, 225 110.234 C 230.348 107.884, 215.836 109.001, 208.641 111.493 M 236.465 296.539 C 228.340 301.786, 218.275 308.473, 214.096 311.399 C 209.918 314.325, 196.600 323.143, 184.500 330.994 C 164.186 344.175, 155.525 350.213, 164 345.285 C 172.089 340.582, 229.857 307.542, 245.949 298.414 L 263.399 288.517 259.449 287.816 C 252.321 286.551, 251.379 286.908, 236.465 296.539 M 112.155 291.978 C 104.396 296.993, 104.143 298.194, 111.750 293.903 C 120.228 289.121, 121.771 288, 119.878 288 C 119.015 288, 115.540 289.790, 112.155 291.978 M 371.332 296.332 C 359.382 303.744, 351.487 309.290, 360 304.293 C 361.925 303.163, 368.788 299.222, 375.250 295.535 C 381.712 291.849, 387 288.646, 387 288.417 C 387 287.067, 383.061 289.057, 371.332 296.332 M 350 297.089 C 338.525 304.118, 332.471 308.564, 341 303.699 C 356.791 294.691, 364.305 290.023, 363 290.033 C 362.175 290.039, 356.325 293.214, 350 297.089 M 261.840 300.480 C 253.953 305.646, 232.762 319.414, 214.750 331.075 C 169.671 360.259, 169.902 360.217, 222.853 329.598 C 243.397 317.719, 260.430 308, 260.705 308 C 260.979 308, 266.826 304.763, 273.698 300.807 C 286.710 293.316, 286.823 293.134, 279.340 291.694 C 276.568 291.161, 274.416 292.240, 261.840 300.480 M 384.843 300.977 C 376.404 306.401, 353.750 320.856, 334.500 333.100 C 315.250 345.344, 298.692 355.899, 297.705 356.557 C 296.281 357.504, 296.199 357.862, 297.305 358.287 C 298.073 358.581, 316.206 348.700, 337.600 336.328 C 358.995 323.956, 381.900 310.875, 388.500 307.260 C 395.100 303.645, 402.413 299.497, 404.752 298.043 L 409.003 295.400 404.594 293.258 L 400.185 291.116 384.843 300.977 M 152.380 302.983 C 146.396 307.292, 133.063 316.774, 122.750 324.053 C 105.171 336.461, 99.714 340.741, 107.250 336.208 C 112.357 333.137, 150 311.705, 155 309.022 C 157.475 307.694, 162.374 304.944, 165.886 302.912 C 171.761 299.511, 172.106 299.127, 170.203 298.109 C 163.832 294.699, 163.916 294.676, 152.380 302.983 M 469.468 300.656 C 465.086 303.216, 457.225 308.096, 452 311.499 C 446.775 314.903, 431.368 324.588, 417.761 333.022 C 404.155 341.455, 393.178 348.511, 393.369 348.702 C 393.559 348.892, 413.782 337.463, 438.309 323.303 C 465.780 307.442, 482.441 297.264, 481.701 296.794 C 479.451 295.364, 477.440 295.998, 469.468 300.656 M 291.718 300.420 C 284.753 305.241, 284.679 305.801, 291.500 302.066 C 298.349 298.315, 300.075 296.974, 297.950 297.055 C 297.152 297.085, 294.348 298.600, 291.718 300.420 M 40.966 304.537 L 35.500 310.075 44.130 305.287 C 49.262 302.441, 52.303 300.202, 51.630 299.765 C 48.962 298.031, 46.142 299.293, 40.966 304.537 M 321.081 301.719 C 317.477 302.992, 316.054 303.060, 313.366 302.088 C 310.168 300.931, 309.723 301.129, 298.285 308.765 C 291.803 313.092, 275.700 323.530, 262.500 331.959 C 249.300 340.389, 238.106 347.638, 237.624 348.068 C 237.143 348.499, 238.718 348.363, 241.124 347.766 C 243.531 347.170, 259.675 338.509, 277 328.521 C 294.325 318.533, 312.438 308.231, 317.250 305.628 C 322.063 303.025, 326 300.694, 326 300.448 C 326 300.201, 325.887 300.036, 325.750 300.079 C 325.613 300.122, 323.511 300.860, 321.081 301.719 M 197 305.569 C 193.425 308.005, 188.363 311.387, 185.750 313.085 C 183.137 314.783, 181 316.410, 181 316.701 C 181 316.992, 182.012 316.570, 183.250 315.764 C 184.488 314.958, 188.875 312.476, 193 310.248 C 197.125 308.020, 202.525 305.033, 205 303.611 C 209.388 301.088, 209.426 301.026, 206.500 301.082 C 204.667 301.117, 200.972 302.862, 197 305.569 M 437.116 302.739 C 433.833 303.030, 430.571 304.570, 424.116 308.875 C 419.377 312.035, 403.800 321.983, 389.500 330.981 C 375.200 339.979, 363.126 347.660, 362.670 348.051 C 362.213 348.441, 363.563 348.435, 365.670 348.037 C 367.870 347.621, 385.883 337.842, 408 325.055 C 429.175 312.814, 446.688 302.618, 446.917 302.399 C 447.351 301.983, 444.526 302.081, 437.116 302.739 M 59.741 308.664 C 56.309 311.779, 53.275 314.522, 53 314.760 C 51.888 315.724, 68.879 306.377, 71.103 304.802 L 73.500 303.105 69.741 303.052 C 66.539 303.008, 65.058 303.839, 59.741 308.664 M 468.593 317.569 C 439.598 335.646, 440.808 335.271, 475.263 315.500 C 489.781 307.169, 492.971 304.875, 489.750 305.079 C 489.063 305.123, 479.542 310.743, 468.593 317.569 M 479.697 324.537 C 471.555 329.617, 464.580 334.121, 464.197 334.547 C 463.300 335.543, 462.998 335.707, 480 325.969 C 495.945 316.836, 496.550 316.433, 495.337 315.764 C 494.877 315.510, 487.839 319.458, 479.697 324.537 M 473.957 341.612 C 452.977 354.681, 442.249 361.887, 452.160 356.254 C 482.047 339.266, 498 329.578, 498 328.418 C 498 327.638, 497.868 327, 497.707 327 C 497.545 327, 486.858 333.575, 473.957 341.612 M 42.077 365.372 C 15.629 380.718, 13.391 382.459, 14.207 387.057 C 14.478 388.586, 21.412 383.961, 67.500 351.513 C 72.847 347.748, 66.287 351.325, 42.077 365.372 M 489.329 357.320 C 484.834 360.174, 480.784 362.934, 480.329 363.452 C 479.873 363.971, 480.625 363.706, 482 362.864 C 483.375 362.021, 487.762 359.438, 491.750 357.122 C 498.448 353.233, 500.162 351.899, 498.250 352.065 C 497.837 352.101, 493.823 354.466, 489.329 357.320 M 274.268 371.393 C 261.758 379.454, 258.641 381.904, 267 377.105 C 270.025 375.369, 275.762 372.070, 279.750 369.775 C 283.738 367.480, 287 365.242, 287 364.801 C 287 363.361, 285.641 364.065, 274.268 371.393 M 334.967 365.820 C 332.383 366.966, 318 376.176, 318 376.685 C 318 376.948, 319.462 376.266, 321.250 375.169 C 323.038 374.073, 327.650 371.344, 331.500 369.106 C 337.651 365.529, 339.433 363.840, 334.967 365.820 M 205.500 368.550 C 203.850 369.378, 201.375 370.989, 200 372.131 C 198.154 373.664, 198.809 373.491, 202.500 371.471 C 209.594 367.588, 211.905 365.338, 205.500 368.550 M 55 400.499 C 32.725 413.396, 14.129 424.084, 13.676 424.249 C 13.223 424.414, 12.998 426.153, 13.176 428.113 L 13.500 431.677 54.169 405.089 C 91.861 380.447, 97.051 376.958, 95.917 377.024 C 95.688 377.038, 77.275 387.601, 55 400.499 M 60 416.052 L 13.500 442.967 13.184 446.584 C 12.941 449.359, 13.174 450.017, 14.184 449.414 C 18.457 446.862, 105.668 390.574, 106.450 389.864 C 106.973 389.389, 107.198 389.031, 106.950 389.068 C 106.703 389.105, 85.575 401.248, 60 416.052 M 474.742 404.406 C 446.902 423.113, 447.222 423.099, 480 404.176 C 491.376 397.608, 495.585 394.665, 495.820 393.114 C 495.995 391.951, 495.770 391.029, 495.320 391.065 C 494.869 391.101, 485.609 397.104, 474.742 404.406 M 21 407.171 C 19.075 408.346, 16.448 409.949, 15.163 410.734 C 13.878 411.518, 13.048 412.382, 13.319 412.653 C 13.786 413.119, 25 406.117, 25 405.358 C 25 404.779, 24.677 404.926, 21 407.171 M 470 425.067 C 445.277 442.336, 441.617 445.036, 448 441.297 C 449.925 440.169, 461.175 433.711, 473 426.944 C 484.825 420.178, 494.644 414.541, 494.821 414.417 C 494.997 414.294, 494.997 412.789, 494.821 411.073 L 494.500 407.954 470 425.067 M 183.069 416.704 C 176.781 420.375, 172.141 423.547, 172.756 423.752 C 173.715 424.072, 191.713 413.386, 194.450 410.873 C 196.409 409.073, 194.191 410.210, 183.069 416.704 M 110 417.106 C 105.325 419.888, 102.625 421.838, 104 421.438 C 107.579 420.396, 121.026 411.813, 118.750 412.023 C 118.612 412.036, 114.675 414.323, 110 417.106 M 100.152 464.510 C 67.510 483.404, 40.659 499.006, 40.482 499.182 C 39.281 500.373, 57.039 498.218, 59.050 496.929 C 60.397 496.065, 84.098 481.036, 111.718 463.532 C 154.598 436.356, 164.381 429.605, 160.191 430.078 C 159.811 430.121, 132.793 445.615, 100.152 464.510 M 81.500 434.230 C 78.803 435.194, 18.655 469.346, 16.686 471.031 C 16.239 471.414, 16.239 473.090, 16.686 474.754 L 17.500 477.781 45.500 459.832 C 60.900 449.959, 76.650 439.890, 80.500 437.455 C 87.298 433.157, 87.646 432.033, 81.500 434.230 M 200.500 437.940 C 198.571 438.725, 95.930 497.788, 95.083 498.600 C 94.854 498.820, 97.348 499, 100.625 499 L 106.584 499 152.542 469.924 C 177.819 453.932, 199.850 439.990, 201.500 438.941 C 204.572 436.988, 204.072 436.487, 200.500 437.940 M 481.476 449.564 C 467.147 460.455, 464.628 462.536, 469 459.870 C 470.375 459.032, 477.238 455.056, 484.250 451.035 C 491.262 447.015, 496.968 443.449, 496.930 443.112 C 496.404 438.532, 495.487 438.915, 481.476 449.564 M 175.793 469.774 C 129.272 496.659, 126.334 498.519, 129.937 498.802 C 133.455 499.079, 137.729 496.645, 179.581 470.531 C 242.154 431.489, 242.069 431.472, 175.793 469.774 M 370.811 477.817 L 335.123 498.500 341.567 498.796 L 348.011 499.092 377.505 478.454 C 402.552 460.929, 408.456 456.612, 406.750 457.067 C 406.613 457.103, 390.440 466.441, 370.811 477.817 M 344.500 476.822 C 329.650 485.448, 315.025 493.957, 312 495.731 L 306.500 498.956 311 498.957 C 315.161 498.958, 317.593 497.575, 343.288 480.607 C 381.268 455.526, 381.293 455.449, 344.500 476.822 M 231.052 480.302 C 206.488 494.516, 200.175 498.567, 202.213 498.808 C 204.159 499.037, 212.024 494.625, 233.161 481.444 C 258.985 465.341, 264.272 461.899, 262.950 462.052 C 262.702 462.081, 248.348 470.293, 231.052 480.302 M 178.020 484.273 C 164.078 492.364, 154.281 498.623, 155.261 498.812 C 156.648 499.079, 199.001 473.994, 202.450 470.863 C 204.516 468.987, 201.611 470.582, 178.020 484.273 M 414.500 483.652 C 401.850 491.047, 390.825 497.511, 390 498.018 C 388.982 498.643, 390.491 498.949, 394.700 498.970 L 400.900 499 417.700 486.361 C 432.930 474.903, 439.271 469.818, 437.972 470.104 C 437.712 470.161, 427.150 476.258, 414.500 483.652 M 196.061 487.271 C 185.369 493.445, 177.367 498.640, 178.279 498.815 C 179.696 499.088, 216 477.512, 216 476.397 C 216 475.749, 216.246 475.614, 196.061 487.271 M 256.061 491.213 C 249.220 495.152, 244.123 498.541, 244.736 498.745 C 245.675 499.058, 265.546 487.406, 268.450 484.840 C 270.448 483.074, 268.105 484.279, 256.061 491.213 M 373.205 495.178 C 370.293 496.864, 368.138 498.472, 368.417 498.750 C 368.910 499.244, 379 493.185, 379 492.396 C 379 491.823, 378.997 491.825, 373.205 495.178 M 444.199 495.322 C 441.284 497.051, 439.394 498.631, 440.001 498.834 C 441.072 499.191, 448.569 494.506, 449.603 492.834 C 450.296 491.712, 450.256 491.730, 444.199 495.322 M 290.500 496 C 287.750 497.631, 285.910 498.974, 286.412 498.983 C 287.508 499.003, 296 494.110, 296 493.458 C 296 492.758, 295.847 492.828, 290.500 496 M 268.750 496.572 C 265.012 498.600, 265.239 499.445, 269 497.500 C 270.650 496.647, 272 495.735, 272 495.474 C 272 494.831, 271.893 494.867, 268.750 496.572" stroke="none" fill="#305682" fill-rule="evenodd"/></svg>