<svg width="512" height="512" viewBox="0 0 683 683" fill="none" xmlns="http://www.w3.org/2000/svg">
<path d="M194 167.6C190.267 168.933 184.4 171.733 180.8 173.867C174.667 177.467 46.6667 286 21.7334 308.8C8.26672 321.067 3.60005 329.6 3.46672 341.867C3.33338 353.2 7.86672 362.133 20.2667 374.133C30.1334 383.733 160.267 496.133 171.733 504.933C182.533 513.2 191.333 516.533 202 516.4C220.267 516.133 234.933 507.2 242.667 491.6C246.267 484.133 246.8 481.6 247.6 466.4L248.4 449.467L254.533 448.8C257.867 448.4 346.8 448.133 452 448.267C672.4 448.533 651.733 449.733 666.133 435.467C679.867 421.733 679.333 425.467 679.333 338.667V264.667L675.867 257.333C671.467 248 665.333 241.867 656 237.467L648.667 234L447.733 233.6L246.8 233.333V217.467C246.933 195.2 243.6 184.533 233.867 176.133C223.2 166.667 206.4 163.2 194 167.6ZM211.467 178.133C217.867 181.2 225.6 190.4 228.4 198.133C230.133 203.2 230.667 208.933 230.667 222.8C230.667 236.267 231.067 241.333 232.4 242.533C233.733 243.467 292.133 244 436.8 244.267L639.333 244.667L646.133 248.267C655.067 252.933 659.467 258.4 661.333 266.933C662.4 272 662.8 295.2 662.4 346C662 415.867 661.867 418.133 659.2 424C657.6 427.333 655.2 431.067 653.6 432.4C646.533 438.8 653.2 438.533 438.667 438.667C262.933 438.667 236.267 438.933 233.733 440.667C231.2 442.4 230.933 444.133 230.4 463.6C230 475.6 228.933 486.667 228 489.333C221.6 506.933 206 511.467 189.467 500.533C185.333 497.733 178.4 492.133 174 487.867C169.6 483.733 163.067 477.733 159.333 474.8C155.733 471.733 146.667 464.133 139.2 457.6C131.733 451.2 116.8 438.267 105.867 428.933C94.9334 419.467 80.2667 406.8 73.3334 400.667C66.2667 394.533 58.8001 388.133 56.6667 386.533C54.4001 384.8 46.9334 378.533 39.8667 372.4C24.1334 359.067 20.6667 353.067 20.6667 339.867C20.6667 332 21.2 330.4 25.6 323.733C28.2667 319.733 33.8667 313.333 38.2667 309.6C45.8667 302.933 148.8 214.133 174.267 192.133C192.933 176.267 200.933 173.2 211.467 178.133Z" fill="black"/>
<path d="M164.667 246.667C163.2 247.2 151.867 256.667 139.333 267.333C126.933 278.133 106.267 296 93.6 306.933C74.6667 323.333 70.8 327.2 72.1333 328.8C74.4 331.6 81.6 331.067 86.2667 327.6C88.4 326 95.6 320 102.133 314.4C108.667 308.667 127.867 292.267 144.667 277.733C176.4 250.4 179.733 246.267 171.333 245.733C169.2 245.6 166.133 246 164.667 246.667Z" fill="black"/>
</svg>
