<?xml version="1.0" standalone="no"?>
<!DOCTYPE svg PUBLIC "-//W3C//DTD SVG 20010904//EN"
 "http://www.w3.org/TR/2001/REC-SVG-20010904/DTD/svg10.dtd">
<svg version="1.0" xmlns="http://www.w3.org/2000/svg"
 width="512.000000pt" height="512.000000pt" viewBox="0 0 512.000000 512.000000"
 preserveAspectRatio="xMidYMid meet">
<metadata>
Created by potrace 1.16, written by Peter Selinger 2001-2019
</metadata>
<g transform="translate(0.000000,512.000000) scale(0.100000,-0.100000)"
fill="#000000" stroke="none">
<path d="M3125 4255 c-58 -20 -121 -93 -134 -155 -12 -56 -6 -99 20 -150 10
-19 272 -289 583 -600 l566 -565 -1897 -5 -1898 -5 -45 -25 c-24 -14 -58 -45
-75 -68 -27 -40 -30 -51 -30 -122 0 -71 3 -82 30 -122 17 -23 51 -54 75 -68
l45 -25 1898 -5 1897 -5 -571 -570 c-385 -385 -577 -583 -590 -610 -49 -104
-3 -231 103 -286 46 -23 134 -25 186 -4 51 22 1574 1543 1602 1601 26 53 26
135 0 188 -13 28 -274 295 -797 817 -674 672 -784 777 -819 787 -54 15 -99 14
-149 -3z"/>
</g>
</svg>
