<svg xmlns="http://www.w3.org/2000/svg" width="512" height="512" viewBox="0 0 512 512" version="1.1"><path d="M 52.500 42.099 C 47.280 45.088, 46.263 45.979, 48.500 45.606 C 50.150 45.331, 54.336 44.810, 57.803 44.448 C 64.520 43.748, 65.674 42.177, 61.500 39.416 C 59.735 38.248, 58.678 38.563, 52.500 42.099 M 366.441 39.468 C 364.642 40.829, 364.829 40.936, 369 40.936 C 373.171 40.936, 373.358 40.829, 371.559 39.468 C 370.491 38.661, 369.340 38, 369 38 C 368.660 38, 367.509 38.661, 366.441 39.468 M 79.750 40.549 C 78.237 41.382, 76.999 42.162, 76.999 42.282 C 76.998 42.402, 79.496 42.345, 82.550 42.154 C 86.177 41.929, 87.972 41.408, 87.724 40.654 C 87.150 38.903, 82.840 38.846, 79.750 40.549 M 333 40 C 331.903 40.709, 332.658 40.973, 335.809 40.985 C 338.430 40.994, 339.876 40.608, 339.500 40 C 338.716 38.731, 334.963 38.731, 333 40 M 397 40 C 395.903 40.709, 396.658 40.973, 399.809 40.985 C 402.430 40.994, 403.876 40.608, 403.500 40 C 402.716 38.731, 398.963 38.731, 397 40 M 428.500 40 C 427.762 41.194, 429.722 41.194, 432.500 40 C 434.286 39.233, 434.212 39.133, 431.809 39.070 C 430.329 39.032, 428.840 39.450, 428.500 40 M 56 46.306 C 51.169 47.954, 49.004 52.577, 49.002 61.250 C 49.001 64.963, 49.284 68, 49.632 68 C 49.980 68, 51.892 67.029, 53.882 65.842 L 57.500 63.684 53.250 68.130 C 49.057 72.516, 49 72.672, 49 79.762 L 49 86.948 54.068 83.960 C 60.084 80.413, 59.748 81.620, 53.463 86.134 C 49.056 89.299, 49 89.412, 49 95.170 C 49 98.376, 49.199 101, 49.442 101 C 49.686 101, 56.548 97.131, 64.692 92.403 C 72.837 87.675, 80.400 83.375, 81.500 82.848 C 84.152 81.577, 83.919 81.767, 64.684 96.500 L 49.018 108.500 49.009 119.785 L 49 131.070 51.250 129.895 C 52.487 129.248, 62.500 123.546, 73.500 117.222 C 96.776 103.841, 95.811 104.366, 94.500 105.803 C 93.950 106.406, 88.069 110.635, 81.431 115.200 C 74.792 119.765, 64.796 126.650, 59.216 130.500 L 49.071 137.500 49.036 143.323 L 49 149.147 54.750 145.892 C 57.913 144.101, 62.188 141.588, 64.250 140.306 C 66.313 139.024, 68 138.182, 68 138.436 C 68 138.690, 63.725 141.667, 58.500 145.051 L 49 151.206 49 156.684 L 49 162.163 52.250 160.192 C 55.721 158.088, 119.818 121.093, 121.500 120.223 C 126.033 117.880, 115.365 125.175, 84.750 145.353 L 49 168.916 49 174.539 L 49 180.163 52.250 178.188 C 54.038 177.102, 68.550 168.685, 84.500 159.485 C 100.450 150.284, 113.837 142.559, 114.250 142.319 C 114.662 142.079, 115 142.085, 115 142.334 C 115 142.582, 100.150 152.366, 82 164.075 L 49 185.365 49 190.764 L 49 196.163 52.250 194.206 C 54.038 193.129, 70.575 183.581, 89 172.987 C 107.425 162.393, 122.649 153.600, 122.831 153.448 C 123.013 153.296, 122.633 152.182, 121.986 150.974 C 121.339 149.765, 120.827 146.609, 120.847 143.960 C 120.934 132.743, 125.581 124.820, 134.683 120.366 C 139.064 118.223, 141.042 117.835, 145.820 118.181 C 153.020 118.701, 157.020 121.345, 160.036 127.574 C 161.926 131.479, 162.180 133.345, 161.802 140.557 L 161.360 148.979 165.680 146.447 C 171.233 143.193, 171.280 143.900, 165.750 147.505 C 163.412 149.030, 159.012 152.856, 155.972 156.008 C 151.370 160.779, 149.587 161.923, 145.327 162.837 C 141.671 163.621, 135.682 166.844, 124.355 174.125 C 115.635 179.730, 100.175 189.558, 90 195.965 C 79.825 202.371, 66.449 210.962, 60.274 215.056 L 49.049 222.500 49.024 227.750 C 49.011 230.637, 49.178 233, 49.396 233 C 49.613 233, 57.376 228.569, 66.646 223.154 C 79.097 215.880, 157.330 170.652, 163.250 167.306 C 163.662 167.073, 164 167.086, 164 167.336 C 164 167.586, 138.125 184.147, 106.500 204.139 L 49 240.488 49 245.744 C 49 248.635, 49.160 251, 49.357 251 C 49.813 251, 64.364 242.633, 78.500 234.241 C 84.550 230.649, 108.175 216.927, 131 203.748 C 153.825 190.568, 173.963 178.897, 175.750 177.811 C 177.537 176.725, 179 176.057, 179 176.325 C 179 176.594, 159.394 189.092, 135.432 204.100 L 91.863 231.387 95.703 232.520 C 97.814 233.144, 100.657 234.378, 102.021 235.263 C 104.457 236.844, 105.162 236.489, 142.500 214.877 C 190.995 186.807, 189.678 187.555, 188.500 188.739 C 187.950 189.292, 169.950 200.636, 148.500 213.947 C 127.050 227.258, 109.124 238.514, 108.665 238.959 C 108.039 239.567, 111.046 245.698, 113.466 248.748 C 113.574 248.884, 128.926 240.181, 147.581 229.408 C 184.009 208.371, 185.885 207.317, 184.765 208.516 C 184.361 208.949, 168.611 218.834, 149.765 230.483 L 115.500 251.664 114.833 258.330 C 114.013 266.521, 111.305 271.217, 105.148 275.121 C 99.052 278.987, 91.591 279.122, 85.375 275.480 L 81.075 272.960 65.080 282.730 L 49.084 292.500 49.042 303.332 L 49 314.163 52.250 312.182 C 54.038 311.093, 77.325 297.624, 104 282.251 C 130.675 266.878, 161.275 249.227, 172 243.027 C 194.679 229.916, 193.814 230.394, 192.500 231.702 C 191.950 232.249, 184.975 236.643, 177 241.466 C 169.025 246.289, 136.963 265.984, 105.750 285.232 L 49 320.229 49 325.696 L 49 331.163 52.250 329.210 C 54.881 327.629, 65.745 321.339, 95.250 304.315 C 95.662 304.077, 96 304.082, 96 304.326 C 96 304.570, 85.425 311.183, 72.500 319.021 L 49 333.273 49 338.137 C 49 340.811, 49.247 343, 49.548 343 C 49.850 343, 89.562 320.223, 137.798 292.384 C 236.391 235.483, 227.832 240.372, 226.500 241.712 C 225.511 242.708, 168.388 278.302, 90 326.767 L 49.500 351.807 49.197 357.495 C 49.031 360.624, 49.256 362.965, 49.697 362.698 C 50.139 362.431, 85.375 342.091, 128 317.498 C 170.625 292.904, 207.075 271.860, 209 270.731 C 210.925 269.603, 212.050 269.154, 211.500 269.733 C 210.950 270.312, 174.725 292.930, 131 319.994 C 87.275 347.059, 50.910 369.763, 50.189 370.448 C 49.369 371.227, 48.994 373.445, 49.189 376.368 L 49.500 381.043 60.500 374.690 C 66.550 371.195, 88.150 358.727, 108.500 346.983 C 128.850 335.239, 159.329 317.634, 176.231 307.861 C 208.165 289.395, 211.896 287.298, 210.908 288.373 C 210.583 288.727, 174.133 311.440, 129.908 338.846 L 49.500 388.675 49.198 393.838 C 49.031 396.677, 49.187 399, 49.544 399 C 49.900 399, 65.561 390.142, 84.346 379.316 C 104.926 367.455, 119.975 358.131, 122.211 355.855 C 124.774 353.246, 127.689 351.565, 131.639 350.416 C 135.123 349.404, 150.475 341.138, 170.929 329.262 C 209.222 307.029, 206.828 308.384, 205.500 309.691 C 204.950 310.232, 190.377 319.382, 173.115 330.023 L 141.730 349.370 146.787 351.019 C 156.032 354.033, 161.106 359.065, 162.886 366.988 C 166.498 383.063, 151.545 395.504, 135.311 389.931 C 125.160 386.446, 119.257 379.469, 118.110 369.600 L 117.500 364.355 83.299 385.427 L 49.097 406.500 49.049 411.750 C 49.022 414.637, 49.244 417, 49.542 417 C 49.839 417, 60.302 411.095, 72.792 403.878 C 99.279 388.573, 97.710 389.449, 96.736 390.521 C 96.315 390.984, 85.515 397.729, 72.736 405.510 L 49.500 419.659 49.215 430.481 C 48.985 439.178, 49.182 441.108, 50.215 440.310 C 52.383 438.635, 63 432.824, 63 433.313 C 63 433.565, 59.850 435.643, 56 437.931 L 49 442.089 49 447.045 C 49 449.770, 49.283 452, 49.628 452 C 50.438 452, 55.900 448.893, 87.500 430.454 C 117.463 412.971, 223.009 351.999, 224.500 351.312 C 228.130 349.640, 212.740 359.325, 137.112 406.308 C 80.481 441.490, 52.276 459.556, 52.612 460.432 C 52.890 461.156, 54.553 462.520, 56.309 463.462 L 59.500 465.176 139.500 419.004 C 183.500 393.609, 221.075 371.897, 223 370.755 C 224.925 369.614, 226.050 369.148, 225.500 369.720 C 224.950 370.292, 190.300 392.007, 148.500 417.977 C 106.700 443.946, 72.050 465.640, 71.500 466.186 C 70.838 466.843, 73.543 467.049, 79.500 466.796 L 88.500 466.413 101 459.090 C 107.875 455.063, 114.963 450.883, 116.750 449.802 C 118.538 448.721, 120 448.063, 120 448.340 C 120 448.616, 113.916 452.535, 106.480 457.048 C 99.045 461.562, 92.718 465.647, 92.421 466.127 C 92.125 466.607, 95.419 467, 99.742 467 L 107.603 467 124.552 457.173 C 133.873 451.768, 156.575 438.636, 175 427.990 C 193.425 417.344, 209.963 407.771, 211.750 406.718 C 213.537 405.664, 215 404.981, 215 405.199 C 215 405.417, 193.193 419.074, 166.539 435.548 C 139.886 452.022, 118.061 465.837, 118.039 466.250 C 117.978 467.413, 149.860 467.146, 152.066 465.965 C 153.399 465.251, 154 465.251, 154 465.965 C 154 466.588, 157.034 467, 161.621 467 L 169.241 467 201.655 448.311 C 227.306 433.521, 233.920 429.297, 233.357 428.061 C 232.966 427.203, 232.457 424.368, 232.227 421.763 C 231.091 408.902, 246.230 395.683, 260.200 397.337 C 275.071 399.098, 282.830 414.993, 274.913 427.476 C 272.055 431.982, 272 432.232, 274.163 430.836 C 275.448 430.006, 285.725 424.026, 297 417.546 C 308.275 411.067, 318.962 404.882, 320.750 403.801 C 322.537 402.721, 324 402.056, 324 402.324 C 324 402.592, 302.117 417.141, 275.372 434.655 L 226.744 466.500 234.883 466.791 L 243.022 467.081 260.761 456.889 C 270.517 451.283, 279.512 446.038, 280.750 445.233 C 281.988 444.428, 283 443.990, 283 444.259 C 283 444.528, 275.258 449.642, 265.795 455.624 L 248.590 466.500 256.801 466.791 C 264.844 467.075, 265.160 466.996, 272.256 462.897 C 276.240 460.596, 279.837 458.526, 280.250 458.297 C 280.663 458.069, 281 458.070, 281 458.299 C 281 458.529, 278.413 460.468, 275.250 462.608 L 269.500 466.500 277.344 466.794 L 285.188 467.088 306.344 454.921 C 317.980 448.229, 329.075 441.837, 331 440.717 C 338.640 436.270, 331.548 441.351, 313 453.611 L 293.500 466.500 301.326 466.793 C 308.666 467.069, 309.567 466.864, 315.826 463.506 C 319.497 461.536, 321.399 460.729, 320.054 461.712 C 312.772 467.035, 312.746 466.930, 321.404 466.967 C 328.576 466.997, 329.919 466.672, 335.904 463.462 C 339.532 461.517, 341.399 460.729, 340.054 461.712 C 332.765 467.041, 332.733 466.930, 341.531 466.967 L 349.562 467 374.031 452.911 C 400.550 437.642, 403.010 436.278, 401.500 437.690 C 400.950 438.204, 392.047 444.896, 381.715 452.562 L 362.930 466.500 371.044 466.792 C 379.091 467.081, 379.227 467.044, 387.329 462.408 C 399.613 455.379, 400.037 455.405, 390.018 462.576 L 384.536 466.500 392.848 466.792 C 401.126 467.082, 401.191 467.065, 409.329 462.408 C 420.149 456.216, 420.203 456.202, 415 460.888 C 412.525 463.117, 410.163 464.954, 409.750 464.970 C 409.337 464.987, 409 465.450, 409 466 C 409 466.581, 412.244 466.996, 416.750 466.991 C 424.399 466.982, 424.630 466.905, 434.500 461.096 C 440 457.860, 444.698 455.399, 444.940 455.629 C 445.182 455.858, 443.269 458.189, 440.690 460.807 C 438.110 463.426, 436 465.891, 436 466.284 C 436 466.678, 439.421 467, 443.603 467 C 450.041 467, 451.953 466.580, 456.091 464.254 C 459.291 462.455, 461.323 460.513, 461.981 458.625 C 462.988 455.735, 463.363 422, 462.387 422 C 462.102 422, 460.886 422.475, 459.684 423.055 C 458.129 423.807, 458.292 423.494, 460.250 421.972 C 462.697 420.069, 463 419.183, 463 413.945 L 463 408.056 450.750 415.178 C 444.012 419.095, 437.375 422.989, 436 423.833 C 431.098 426.841, 435.702 423.095, 449.199 413.095 L 462.898 402.946 462.947 385.973 C 462.974 376.638, 462.706 369, 462.352 369 C 461.781 369, 442.501 379.855, 436 383.836 C 429.126 388.045, 437.109 382.187, 449.250 374.111 L 463 364.965 463 359.982 C 463 354.581, 462.924 354.490, 459.684 356.055 C 457.574 357.074, 457.566 357.057, 459.441 355.555 C 460.509 354.700, 461.746 354, 462.191 354 C 462.636 354, 463 351.525, 463 348.500 C 463 345.475, 462.766 343, 462.480 343 C 462.194 343, 460.282 344.043, 458.230 345.318 C 452.262 349.028, 442.433 354.401, 443.225 353.521 C 443.624 353.079, 448.124 350.154, 453.225 347.023 L 462.500 341.330 462.801 335.616 L 463.103 329.901 458.261 332.700 C 455.598 334.240, 439.381 343.600, 422.223 353.500 C 401.545 365.431, 391.022 372.049, 391.013 373.128 C 390.993 375.638, 388.091 382.014, 385.309 385.662 C 383.929 387.471, 380.368 390.141, 377.395 391.595 C 370.659 394.891, 362.227 394.722, 357.270 391.193 C 350.766 386.561, 348.299 375.642, 351.175 364.221 C 352.870 357.489, 359.951 350.605, 366.659 349.166 C 369.405 348.578, 372.517 348.272, 373.575 348.488 C 374.634 348.703, 376.703 349.132, 378.173 349.439 C 384.165 350.695, 391 359.542, 391 366.043 C 391 367.761, 391.367 369.017, 391.816 368.833 C 392.265 368.650, 408.457 358.150, 427.797 345.500 L 462.962 322.500 462.981 312.143 C 462.997 303.440, 462.765 301.876, 461.531 302.350 C 460.357 302.800, 441.966 313.299, 410 331.767 C 408.200 332.806, 407.951 332.831, 409.109 331.855 C 409.993 331.110, 422.449 323.300, 436.787 314.500 L 462.856 298.500 462.922 282.750 C 462.959 274.087, 462.818 267, 462.610 267 C 462.402 267, 443.842 277.618, 421.366 290.596 C 364.048 323.690, 364.168 323.294, 422.302 287.500 L 462.905 262.500 462.953 257.164 L 463 251.828 456.250 255.580 C 452.538 257.643, 448.375 259.979, 447 260.771 C 444.613 262.146, 444.591 262.136, 446.500 260.554 C 447.600 259.643, 451.757 257.008, 455.738 254.699 L 462.975 250.500 462.988 245.167 L 463 239.835 457.750 242.932 C 454.863 244.635, 449.466 247.709, 445.757 249.764 L 439.013 253.500 439.007 259.124 C 438.996 267.925, 432.383 277.862, 425.363 279.624 C 420.721 280.789, 413.917 279.327, 409.502 276.215 L 405.240 273.211 366.870 295.360 C 322.809 320.795, 317.584 323.744, 320.933 321.286 C 322.716 319.977, 377.288 285.741, 401 271.055 C 402.293 270.254, 402.156 269.463, 400 265.313 C 398.625 262.666, 397.463 260.388, 397.418 260.251 C 397.372 260.114, 378.022 271.156, 354.418 284.789 C 277.627 329.139, 279.274 327.913, 381.991 264.261 C 396.280 255.407, 396.492 255.223, 397.200 251.075 C 398.838 241.482, 407.240 234, 416.375 234 C 419.116 234, 422.765 234.509, 424.484 235.130 C 427.477 236.213, 428.352 235.797, 445.055 225.342 L 462.500 214.424 462.802 209.212 C 463.121 203.715, 462.662 203.179, 459.473 205.330 C 456.139 207.577, 445.455 213.376, 446.227 212.520 C 446.627 212.076, 450.452 209.615, 454.727 207.051 L 462.500 202.389 462.783 191.762 L 463.066 181.135 438.783 195.166 C 411.118 211.151, 411 211.217, 411 210.652 C 411 210.422, 422.700 203.171, 437 194.538 L 463 178.843 463 173.815 C 463 169.444, 462.772 168.874, 461.257 169.455 C 460.299 169.823, 425.536 189.730, 384.007 213.693 C 300.288 262.002, 306.255 258.594, 307.166 257.578 C 307.532 257.169, 315.673 252.034, 325.256 246.167 C 334.839 240.300, 369.521 218.850, 402.328 198.500 L 461.976 161.500 461.988 156.151 L 462 150.802 458.250 153.024 C 453.640 155.755, 305.894 241.032, 304.500 241.767 C 303.833 242.118, 303.833 241.947, 304.500 241.254 C 305.050 240.683, 340.600 218.493, 383.500 191.945 C 426.400 165.396, 461.598 143.612, 461.718 143.536 C 461.838 143.460, 462.237 140.838, 462.604 137.709 L 463.273 132.021 386.886 176.116 C 295.663 228.777, 301.261 225.582, 302.500 224.269 C 303.050 223.685, 317.675 214.455, 335 203.757 C 352.325 193.058, 383.375 173.824, 404 161.013 C 424.625 148.203, 446.351 134.747, 452.280 131.111 C 463.538 124.207, 464.397 123.141, 463.820 116.805 L 463.500 113.302 427.926 133.901 C 408.360 145.230, 390.810 155.693, 388.926 157.152 C 387.042 158.610, 383.925 160.453, 382 161.247 C 380.075 162.041, 358.025 174.514, 333 188.965 C 281.105 218.931, 285.288 216.556, 286.207 215.537 C 286.772 214.910, 322.099 192.742, 364.487 166.415 L 370.475 162.696 365.316 161.015 C 357.562 158.487, 354.979 156.403, 349.309 148.102 C 349.069 147.751, 327.171 159.993, 321.250 163.788 C 320.012 164.581, 319 164.988, 319 164.693 C 319 164.398, 325.678 160.051, 333.839 155.033 L 348.678 145.910 348.733 140.111 C 348.872 125.374, 361.370 117.507, 377.121 122.242 L 383.764 124.239 423.882 99.511 C 469.039 71.676, 465.350 75.195, 462.167 63 C 461.027 58.633, 460.024 56.596, 459.110 56.792 C 458.361 56.952, 426.868 74.900, 389.125 96.676 C 351.381 118.452, 320.163 136.459, 319.750 136.693 C 319.338 136.927, 319 136.902, 319 136.638 C 319 136.374, 326.988 131.244, 336.750 125.237 C 355.576 113.655, 421.863 72.708, 443.250 59.450 C 450.262 55.103, 456 51.070, 456 50.489 C 456 48.923, 450.123 45.734, 448.179 46.245 C 446.894 46.583, 299.036 131.532, 287 138.847 C 285.625 139.683, 284.950 139.883, 285.500 139.292 C 286.050 138.701, 297.750 131.254, 311.500 122.742 C 367.762 87.916, 433.560 46.812, 434.450 45.936 C 436.211 44.202, 420.212 44.840, 416.700 46.644 C 414.164 47.946, 281.967 124.065, 268 132.265 C 266.075 133.395, 264.950 133.829, 265.500 133.229 C 266.050 132.628, 284.950 120.664, 307.500 106.642 C 386.183 57.713, 403.957 46.495, 403.978 45.750 C 403.990 45.337, 400.490 45, 396.199 45 L 388.398 45 322.949 82.785 C 249.205 125.359, 245.105 127.693, 246.500 126.306 C 247.050 125.759, 252.900 121.934, 259.500 117.806 C 299.433 92.829, 370.727 47.553, 371.964 46.384 C 373.218 45.199, 372.237 45, 365.139 45 L 356.849 45 334.675 57.886 C 322.479 64.974, 305.311 74.996, 296.524 80.159 L 280.548 89.546 279.815 93.839 C 278.536 101.332, 273.284 107.870, 265.196 112.039 C 259.246 115.107, 253.170 115.613, 246.904 113.563 L 241.740 111.874 229.120 119.129 C 205.645 132.624, 205.262 132.570, 226.516 118.759 L 239.968 110.019 236.984 105.314 C 235.343 102.726, 234 100.022, 234 99.304 C 234 98.587, 233.572 98, 233.048 98 C 232.525 98, 226.562 101.207, 219.798 105.127 C 213.034 109.047, 207.162 112.449, 206.750 112.686 C 206.338 112.924, 206 112.923, 206 112.685 C 206 112.447, 211.512 108.744, 218.250 104.457 C 232.870 95.153, 234 94.245, 234 91.805 C 234 88.231, 238.003 82.090, 242.639 78.549 C 248.198 74.305, 253.117 72.829, 260.795 73.101 L 266.500 73.303 286.500 60.588 C 297.500 53.594, 307.159 47.226, 307.964 46.436 C 310.214 44.229, 295.049 44.410, 290.700 46.643 C 288.184 47.934, 222.055 85.905, 206 95.277 C 195.585 101.357, 208.608 92.635, 241.500 71.502 C 261.850 58.427, 279.159 47.115, 279.964 46.365 C 281.210 45.203, 280.232 45, 273.403 45 L 265.378 45 218.439 72.094 C 192.622 86.995, 170.600 99.650, 169.500 100.216 C 164.137 102.975, 172.582 97.165, 210 72.354 L 250.500 45.500 242.177 45.208 L 233.853 44.917 214.677 56.110 C 193.212 68.638, 193.083 68.709, 194.500 67.297 C 195.050 66.748, 202.025 62.117, 210 57.006 C 229.568 44.464, 229.150 45, 219.355 45 C 210.040 45, 209.729 45.136, 184 60.478 C 167.885 70.087, 142.238 84.968, 140.500 85.717 C 138.228 86.697, 144.870 81.924, 170.462 64.187 L 197.425 45.500 189.603 45.206 C 183.289 44.969, 180.983 45.311, 177.641 46.982 C 175.363 48.120, 174.287 48.428, 175.250 47.666 C 178.334 45.223, 177.177 44.786, 168.750 45.212 L 160.500 45.628 132.500 61.912 C 117.100 70.868, 104.162 78.403, 103.750 78.657 C 103.337 78.910, 103 78.894, 103 78.621 C 103 78.347, 112.563 70.783, 124.250 61.812 C 147.497 43.967, 147.235 44.414, 134.019 45.177 C 127.905 45.530, 126.629 46.075, 113.500 53.931 C 93.962 65.622, 93.829 65.585, 109.960 52.924 L 119.419 45.500 111.545 45.205 L 103.672 44.910 87.586 54.115 C 78.739 59.177, 71.050 63.533, 70.500 63.794 C 69.950 64.055, 73.766 59.934, 78.980 54.635 L 88.460 45 80.465 45 C 72.272 45, 70.439 45.596, 61.025 51.326 L 57.549 53.442 59.611 50.471 C 63.114 45.422, 63.248 44.996, 61.309 45.056 C 60.314 45.087, 57.925 45.650, 56 46.306 M 298 59.997 C 283.975 68.188, 272.139 75.035, 271.698 75.212 C 271.257 75.389, 272.859 77.582, 275.257 80.085 L 279.618 84.636 309.235 65.568 C 325.525 55.081, 339.186 46.163, 339.593 45.750 C 340 45.337, 336.546 45.023, 331.917 45.052 L 323.500 45.104 298 59.997 M 42.060 48.428 C 41.386 49.240, 41.026 50.713, 41.260 51.702 C 41.599 53.136, 41.925 52.914, 42.871 50.611 C 44.230 47.297, 43.850 46.271, 42.060 48.428 M 432.500 99.092 C 415.450 108.987, 398.003 119.107, 393.729 121.581 L 385.958 126.078 388.353 129.289 C 392.129 134.350, 393.268 137.076, 393.906 142.581 L 394.500 147.711 429.500 125.900 L 464.500 104.089 464.802 99.045 C 464.969 96.270, 464.825 94, 464.483 94 C 463.979 94, 435.073 110.435, 420 119.291 C 418.075 120.422, 416.871 120.932, 417.325 120.424 C 417.778 119.916, 428.578 113.166, 441.325 105.424 L 464.500 91.349 464.802 86.174 C 464.969 83.329, 464.744 81.023, 464.302 81.051 C 463.861 81.078, 449.550 89.197, 432.500 99.092 M 256.523 84.570 C 252.877 88.504, 253.415 89.339, 258.065 86.967 C 260.301 85.826, 261.961 84.382, 261.753 83.759 C 261.022 81.566, 259.019 81.876, 256.523 84.570 M 254.250 98.675 C 250.629 100.783, 248.718 103, 250.521 103 C 251.649 103, 259 97.683, 259 96.867 C 259 95.823, 259.424 95.662, 254.250 98.675 M 412.750 122.572 C 409.012 124.600, 409.239 125.445, 413 123.500 C 414.650 122.647, 416 121.735, 416 121.474 C 416 120.831, 415.893 120.867, 412.750 122.572 M 305.269 137.281 C 298.205 145.034, 279.904 183.181, 262.707 226 C 260.829 230.675, 258.799 234.395, 258.196 234.266 C 255.472 233.687, 246.189 236.271, 242.698 238.581 C 234.952 243.707, 231.670 257.271, 235.913 266.616 C 239.353 274.191, 248.344 278.600, 257.727 277.314 C 260.442 276.942, 262.513 277.181, 263.473 277.977 C 264.298 278.662, 267.783 284.173, 271.216 290.224 C 281.063 307.574, 287.565 312.411, 294.017 307.187 L 296.256 305.374 284.471 287.689 C 273.635 271.428, 272.810 269.863, 274.222 268.252 C 281.073 260.439, 280.158 246.202, 272.413 240.110 C 271.086 239.066, 270 237.959, 270 237.649 C 270 235.814, 278.415 219.138, 279.121 219.575 C 279.592 219.866, 279.750 219.513, 279.473 218.791 C 279.196 218.069, 281.266 212.308, 284.073 205.989 C 303.821 161.526, 314.388 127.271, 305.269 137.281 M 149.659 140 C 147.643 143.412, 148.409 143.794, 151.894 141.115 C 153.230 140.087, 153.977 138.772, 153.585 138.137 C 152.476 136.343, 151.564 136.776, 149.659 140 M 134.114 143.879 C 132.535 145.093, 132.112 145.951, 132.864 146.416 C 134.282 147.292, 135.683 146.461, 137.030 143.944 C 138.329 141.516, 137.219 141.491, 134.114 143.879 M 86.250 179.152 L 49 203.191 49 208.532 L 49 213.873 67.250 203.321 C 77.287 197.517, 96.923 186.195, 110.884 178.160 L 136.267 163.552 132.884 162.193 C 131.023 161.446, 128.150 159.547, 126.500 157.974 L 123.500 155.113 86.250 179.152 M 456.500 225.731 C 453.200 227.697, 446.360 231.725, 441.300 234.682 L 432.100 240.058 434.607 243.753 C 435.986 245.785, 437.280 247.613, 437.481 247.815 C 437.683 248.016, 443.507 244.684, 450.424 240.409 L 463 232.636 463 227.318 C 463 224.393, 462.887 222.035, 462.750 222.079 C 462.613 222.122, 459.800 223.766, 456.500 225.731 M 61.750 250.175 L 49 258.215 49 263.538 L 49 268.862 60.750 262.068 L 72.500 255.274 73.046 250.887 C 73.346 248.474, 74.149 245.488, 74.831 244.250 C 75.513 243.012, 75.717 242.031, 75.285 242.068 C 74.853 242.105, 68.763 245.753, 61.750 250.175 M 255.120 248 C 252.538 252.595, 252.888 252.826, 257.882 249.826 C 262.824 246.857, 262.732 247.009, 260.557 245.418 C 257.836 243.428, 257.637 243.523, 255.120 248 M 103.631 252.440 C 101.831 255.188, 102.578 255.777, 105.290 253.750 C 106.343 252.963, 106.656 252.015, 106.135 251.190 C 105.512 250.204, 104.894 250.513, 103.631 252.440 M 87.494 257.572 C 85.297 258.901, 83.050 260.188, 82.500 260.432 C 81.381 260.927, 84.787 264.004, 86.441 263.992 C 87.494 263.985, 92.465 256.132, 91.824 255.491 C 91.639 255.306, 89.691 256.242, 87.494 257.572 M 412.216 260.049 C 407.178 262.938, 406.159 265.026, 409.809 264.978 C 411.963 264.949, 415.430 262.156, 416.918 259.250 C 417.552 258.012, 417.942 257.004, 417.785 257.009 C 417.628 257.015, 415.122 258.382, 412.216 260.049 M 256.500 259.447 C 255.400 260.123, 253.180 261.488, 251.567 262.481 L 248.634 264.286 250.928 266.143 C 252.189 267.164, 253.532 268, 253.912 268 C 254.646 268, 259.296 258.945, 258.796 258.488 C 258.633 258.340, 257.600 258.772, 256.500 259.447 M 60.782 268.292 L 49.065 275.500 49.032 280.776 L 49 286.051 51.881 284.562 C 54.704 283.102, 77.253 270.029, 77.755 269.561 C 78.145 269.198, 73.571 261.012, 73 261.050 C 72.725 261.068, 67.227 264.327, 60.782 268.292 M 141.209 363.178 C 140.006 366.025, 139.187 368.520, 139.388 368.721 C 139.590 368.923, 142.319 367.543, 145.454 365.654 L 151.153 362.221 148.888 360.110 C 145.317 356.783, 143.626 357.458, 141.209 363.178 M 363.711 375.852 C 361.433 377.354, 361.173 377.898, 362.289 378.825 C 363.359 379.713, 364.131 379.314, 365.857 376.979 C 368.381 373.566, 367.711 373.215, 363.711 375.852 M 137.720 379.588 C 136.192 380.417, 135.206 381.524, 135.529 382.047 C 136.533 383.671, 138.421 383.045, 140.297 380.469 C 142.345 377.654, 141.696 377.432, 137.720 379.588 M 255.571 410.859 C 254.157 413.650, 253 416.210, 253 416.548 C 253 417.226, 259.752 413.370, 261.771 411.539 C 262.782 410.623, 262.541 409.918, 260.592 408.086 L 258.143 405.785 255.571 410.859 M 253.557 426.167 C 249.810 428.142, 249.711 428.315, 251.546 429.657 C 253.584 431.147, 254.493 430.509, 257.108 425.750 C 258.276 423.626, 258.407 423.610, 253.557 426.167 M 206.277 447.861 C 190.754 457.563, 178.041 465.825, 178.027 466.222 C 178.012 466.619, 185.517 466.944, 194.705 466.944 L 211.411 466.944 235.142 453.222 L 258.873 439.500 252.687 438.975 C 246.243 438.428, 241.254 436.367, 237 432.497 L 234.500 430.222 206.277 447.861 M 470.585 452.451 C 468.614 457.167, 468.611 457.568, 470.555 455.955 C 472.938 453.976, 473.950 451.538, 473.015 450.025 C 472.398 449.025, 471.744 449.678, 470.585 452.451 M 177 470.465 C 177 473.481, 180.697 474.195, 184.986 472.007 C 187.194 470.881, 189 469.743, 189 469.480 C 189 469.216, 186.300 469, 183 469 C 178.397 469, 177 469.341, 177 470.465 M 195.185 470.750 C 195.668 473.301, 200.925 473.466, 204 471.027 L 206.500 469.044 200.677 469.022 C 195.665 469.003, 194.900 469.244, 195.185 470.750 M 227 470.404 C 227 473.106, 230.271 474.009, 233.825 472.288 C 235.602 471.427, 236.931 470.618, 236.778 470.490 C 236.625 470.361, 234.363 469.946, 231.750 469.567 C 227.857 469.002, 227 469.153, 227 470.404 M 119 470.911 L 116.500 471.623 118.741 472.842 C 120.562 473.832, 121.545 473.769, 123.991 472.505 C 125.646 471.649, 127 470.735, 127 470.474 C 127 469.796, 121.949 470.072, 119 470.911 M 134.638 471.500 C 135.375 473.419, 140.039 473.438, 142.559 471.532 C 144.347 470.180, 144.088 470.061, 139.281 470.032 C 135.046 470.006, 134.171 470.283, 134.638 471.500 M 153 470.965 C 153 471.495, 153.924 472.424, 155.054 473.029 C 156.693 473.906, 157.754 473.714, 160.304 472.081 L 163.500 470.034 158.250 470.017 C 155.363 470.008, 153 470.434, 153 470.965 M 249.244 471.250 C 249.865 473.142, 254.686 473.333, 257.210 471.565 C 259.358 470.061, 259.239 470, 254.139 470 C 250.342 470, 248.950 470.355, 249.244 471.250 M 269.872 471.331 C 271.394 473.181, 274.694 473.490, 277 472 C 278.306 471.156, 278.289 471.029, 276.875 471.015 C 275.981 471.007, 273.731 470.699, 271.875 470.331 C 268.808 469.724, 268.625 469.815, 269.872 471.331 M 93.500 472 C 93.151 472.565, 93.970 473, 95.382 473 C 96.757 473, 98.160 472.550, 98.500 472 C 98.849 471.435, 98.030 471, 96.618 471 C 95.243 471, 93.840 471.450, 93.500 472 M 294 471.917 C 294 473.140, 296.089 473.781, 298.250 473.221 C 301.087 472.485, 300.251 471, 297 471 C 295.350 471, 294 471.413, 294 471.917" stroke="none" fill="#e4eef2" fill-rule="evenodd"/><path d="M 66.841 5.029 C 65.929 5.562, 60.811 6.058, 55.469 6.132 C 46.331 6.259, 45.325 6.490, 38.446 10.028 C 27.380 15.720, 19.102 21.271, 18.370 23.490 C 18.009 24.584, 15.467 28.859, 12.723 32.990 C 7.740 40.489, 7.272 41.851, 3.436 60 C 2.022 66.694, 1.849 88.091, 1.828 259 C 1.812 398.407, 2.117 452.268, 2.950 457 C 4.203 464.120, 7.430 474.794, 9.753 479.500 C 16.711 493.603, 31.558 503.475, 49 505.597 C 52.025 505.965, 55.077 506.723, 55.782 507.282 C 56.660 507.978, 58.241 507.911, 60.791 507.069 C 63.213 506.270, 67.663 506.029, 73.508 506.382 C 78.454 506.681, 83.513 506.914, 84.750 506.900 C 85.987 506.886, 89.813 506.829, 93.250 506.772 C 99.616 506.668, 212.180 506.728, 221.750 506.842 C 229.898 506.938, 230.743 506.920, 243.323 506.382 C 251.626 506.027, 255.571 506.229, 256.572 507.060 C 257.671 507.972, 258.667 507.967, 260.913 507.036 C 262.781 506.262, 266.460 506.031, 271.163 506.391 C 275.199 506.700, 279.512 506.924, 280.750 506.890 C 281.988 506.855, 288.175 506.827, 294.500 506.827 C 300.825 506.827, 307.125 506.824, 308.500 506.821 C 319.937 506.792, 339.429 506.827, 341.250 506.878 C 342.488 506.914, 347.059 506.692, 351.408 506.387 C 356.894 506.001, 360.052 506.225, 361.720 507.117 C 363.607 508.127, 364.537 508.146, 366.048 507.202 C 368.625 505.593, 389.166 505.566, 390.770 507.170 C 391.663 508.063, 392.834 508.046, 395.720 507.097 C 398.264 506.260, 403.097 506.024, 410.500 506.376 C 425.016 507.065, 424.540 507.065, 431.887 506.393 C 436.100 506.007, 439.061 506.230, 440.587 507.046 C 442.367 507.999, 443.545 508.018, 445.700 507.127 C 447.240 506.491, 452.510 505.917, 457.411 505.852 C 465.795 505.740, 466.843 505.476, 475.107 501.394 C 485.565 496.227, 491.715 491.765, 494.946 487 C 498.856 481.233, 504.169 471.630, 504.567 469.612 C 504.771 468.574, 505.591 465.424, 506.388 462.612 C 510.227 449.072, 510.242 448.187, 510.059 248 C 509.862 33.095, 510.297 47.067, 503.388 33.919 C 496.533 20.874, 482.128 10.492, 467 7.694 C 449.530 4.463, 452.019 4.660, 440.606 5.610 C 436.123 5.983, 432.931 5.766, 431.481 4.990 C 429.832 4.107, 428.713 4.083, 427.191 4.898 C 424.403 6.390, 408.734 6.334, 407.227 4.827 C 406.330 3.930, 405.449 3.930, 403.480 4.827 C 400.130 6.354, 387.754 6.354, 386.227 4.827 C 385.330 3.930, 384.449 3.930, 382.480 4.827 C 378.985 6.420, 353.820 6.420, 352.227 4.827 C 351.330 3.930, 350.449 3.930, 348.480 4.827 C 345.115 6.361, 330.526 6.345, 328.061 4.806 C 326.578 3.880, 325.559 3.880, 323.527 4.806 C 320.164 6.338, 310.754 6.354, 309.230 4.830 C 308.337 3.937, 307.160 3.957, 304.252 4.917 C 301.784 5.731, 297.640 5.977, 292.472 5.616 C 282.957 4.950, 283.132 4.950, 270.570 5.618 C 263.923 5.971, 259.915 5.757, 258.445 4.971 C 256.827 4.105, 255.709 4.086, 254.191 4.898 C 251.381 6.401, 233.492 6.324, 231.048 4.798 C 229.539 3.855, 228.609 3.871, 226.741 4.871 C 225.055 5.773, 221.458 5.991, 214.430 5.618 C 208.968 5.327, 203.488 5.110, 202.250 5.134 C 199.774 5.183, 176.338 5.196, 172.750 5.150 C 171.512 5.134, 164.671 5.346, 157.547 5.621 C 148.195 5.981, 143.937 5.769, 142.235 4.858 C 140.388 3.870, 139.459 3.856, 137.952 4.798 C 135.477 6.343, 123.765 6.365, 122.227 4.827 C 121.330 3.930, 120.449 3.930, 118.480 4.827 C 114.947 6.437, 93.588 6.384, 90.986 4.759 C 89.405 3.772, 88.595 3.772, 87.014 4.759 C 84.643 6.240, 73.381 6.426, 72.500 5 C 71.725 3.746, 69.016 3.760, 66.841 5.029 M 74.459 10.067 C 73.393 11.791, 74.327 11.934, 77.002 10.454 C 79.411 9.120, 79.422 9.070, 77.309 9.035 C 76.104 9.016, 74.821 9.480, 74.459 10.067 M 92.872 10.938 C 92.117 12.004, 84.975 18.127, 77 24.545 C 61.491 37.027, 60.105 38.236, 64 35.887 C 65.375 35.057, 75.859 29.006, 87.297 22.439 C 109.480 9.705, 109.801 9.335, 98.872 9.100 C 95.357 9.024, 93.914 9.466, 92.872 10.938 M 410.263 11.265 C 409.033 11.944, 397.576 18.912, 384.803 26.750 L 361.579 41 367.539 40.968 C 372.979 40.939, 373.332 40.809, 371.573 39.479 C 370.513 38.677, 369.838 37.864, 370.073 37.672 C 370.308 37.481, 380.175 31.775, 392 24.993 C 403.825 18.211, 414.388 12.063, 415.473 11.331 C 417.370 10.050, 417.351 10.001, 414.973 10.015 C 413.613 10.023, 411.493 10.585, 410.263 11.265 M 433.005 11.494 C 432.323 12.315, 429.343 14.373, 426.383 16.067 C 423.422 17.761, 421 19.372, 421 19.647 C 421 20.103, 428.027 16.306, 435.500 11.812 C 438.108 10.244, 438.222 10.007, 436.372 10.004 C 435.202 10.002, 433.687 10.672, 433.005 11.494 M 157.082 25.027 C 141.006 36.028, 137.252 39, 139.428 39 C 140.948 39, 143.386 38.166, 144.846 37.146 C 146.306 36.127, 156.725 29.989, 168 23.506 C 179.275 17.023, 188.688 11.557, 188.917 11.359 C 189.146 11.162, 186.671 11.012, 183.417 11.027 L 177.500 11.054 157.082 25.027 M 187.713 24.194 C 176.829 31.379, 168.139 37.473, 168.401 37.735 C 168.807 38.141, 207.756 16.188, 213.473 12.331 C 215.270 11.118, 215.093 11.006, 211.473 11.065 C 208.106 11.120, 204.481 13.123, 187.713 24.194 M 213.126 24.586 C 201.921 31.964, 193.560 38, 194.546 38 C 196.099 38, 238.869 14.153, 241.450 11.848 C 241.986 11.370, 240.460 11.038, 237.950 11.086 C 233.979 11.163, 231.307 12.617, 213.126 24.586 M 259.648 11.760 C 259.390 12.178, 250.360 18.141, 239.583 25.010 C 228.805 31.880, 220.568 37.627, 221.278 37.782 C 221.987 37.937, 233.121 31.974, 246.019 24.532 C 269.305 11.095, 269.437 11, 264.794 11 C 262.222 11, 259.907 11.342, 259.648 11.760 M 284.363 12.852 C 283.188 13.834, 273.621 20.005, 263.104 26.566 C 252.587 33.126, 244.405 38.635, 244.922 38.807 C 245.438 38.979, 247.580 38.010, 249.681 36.653 C 251.781 35.297, 262.275 29.139, 273 22.970 C 283.725 16.801, 292.688 11.584, 292.917 11.377 C 293.146 11.170, 291.796 11.015, 289.917 11.033 C 288.038 11.052, 285.538 11.870, 284.363 12.852 M 308.181 25.186 C 295.906 32.891, 286.070 39.403, 286.323 39.657 C 286.751 40.084, 333.334 13.706, 335.450 11.839 C 335.988 11.364, 335.120 11.038, 333.450 11.089 C 331.484 11.148, 323.053 15.852, 308.181 25.186 M 352.964 12.350 C 352.159 13.092, 342.307 19.504, 331.072 26.600 L 310.644 39.500 315.778 39.801 C 320.752 40.092, 321.653 39.676, 344.706 26.423 C 357.793 18.899, 368.928 12.351, 369.450 11.872 C 369.997 11.370, 367.016 11, 362.414 11 C 357.101 11, 353.939 11.452, 352.964 12.350 M 387.577 11.875 C 387.280 12.357, 383.878 14.627, 380.018 16.920 C 376.158 19.213, 373 21.346, 373 21.660 C 373 21.973, 374.012 21.578, 375.250 20.781 C 376.488 19.984, 380.538 17.643, 384.250 15.580 C 387.962 13.516, 391 11.642, 391 11.414 C 391 10.619, 388.113 11.008, 387.577 11.875 M 124.275 25.988 C 112.148 34.711, 106.140 39.596, 107.272 39.814 C 108.235 39.999, 118.580 34.649, 130.261 27.925 C 158.179 11.854, 156.426 13.257, 149.103 12.843 L 143.028 12.500 124.275 25.988 M 429.585 26.767 L 407.670 40.500 412.740 40.799 C 417.624 41.087, 418.620 40.629, 439.878 28.322 C 452.016 21.296, 461.603 15.203, 461.183 14.783 C 460.763 14.363, 458.412 13.798, 455.960 13.527 C 451.648 13.051, 450.771 13.491, 429.585 26.767 M 472.318 31.825 C 464.686 36.542, 458.759 40.752, 462.500 38.799 C 466.836 36.534, 483 26.791, 483 26.442 C 483 25.444, 481.066 26.419, 472.318 31.825 M 480.502 39.531 C 475.553 42.532, 471.329 45.514, 471.114 46.157 C 470.778 47.167, 474.622 45.239, 487.159 38.109 C 488.715 37.224, 489.990 35.938, 489.994 35.250 C 490.002 33.640, 490.839 33.263, 480.502 39.531 M 52.500 42.099 C 47.280 45.088, 46.263 45.979, 48.500 45.606 C 50.150 45.331, 54.336 44.810, 57.803 44.448 C 64.520 43.748, 65.674 42.177, 61.500 39.416 C 59.735 38.248, 58.678 38.563, 52.500 42.099 M 79.750 40.549 C 78.237 41.382, 76.999 42.162, 76.999 42.282 C 76.998 42.402, 79.496 42.345, 82.550 42.154 C 86.177 41.929, 87.972 41.408, 87.724 40.654 C 87.150 38.903, 82.840 38.846, 79.750 40.549 M 333 40 C 331.903 40.709, 332.658 40.973, 335.809 40.985 C 338.430 40.994, 339.876 40.608, 339.500 40 C 338.716 38.731, 334.963 38.731, 333 40 M 397 40 C 395.903 40.709, 396.658 40.973, 399.809 40.985 C 402.430 40.994, 403.876 40.608, 403.500 40 C 402.716 38.731, 398.963 38.731, 397 40 M 428.500 40 C 427.762 41.194, 429.722 41.194, 432.500 40 C 434.286 39.233, 434.212 39.133, 431.809 39.070 C 430.329 39.032, 428.840 39.450, 428.500 40 M 458.528 39.911 C 456.740 40.610, 456.801 40.729, 459.187 41.185 C 461.112 41.553, 461.679 41.327, 461.302 40.344 C 461.018 39.605, 460.722 39.032, 460.643 39.070 C 460.564 39.109, 459.613 39.487, 458.528 39.911 M 26.801 50.076 C 19.199 54.469, 15.663 57.996, 17.260 59.594 C 17.592 59.925, 33.237 48.029, 35.917 45.408 C 37.041 44.308, 34.766 45.473, 26.801 50.076 M 56 46.306 C 51.169 47.954, 49.004 52.577, 49.002 61.250 C 49.001 64.963, 49.284 68, 49.632 68 C 49.980 68, 51.892 67.029, 53.882 65.842 L 57.500 63.684 53.250 68.130 C 49.054 72.519, 49 72.667, 49 79.788 C 49 83.755, 49.256 87, 49.570 87 C 49.883 87, 52.203 85.581, 54.724 83.846 C 60.540 79.844, 59.439 81.842, 53.463 86.134 C 49.056 89.299, 49 89.412, 49 95.170 C 49 98.376, 49.199 101, 49.443 101 C 49.686 101, 51.472 100.064, 53.410 98.921 C 55.348 97.777, 57.469 97.172, 58.122 97.575 C 58.818 98.005, 59.046 97.883, 58.672 97.279 C 58.106 96.362, 65.247 91.795, 79 84.277 C 84.542 81.248, 84.074 81.648, 64.684 96.500 L 49.018 108.500 49.009 119.785 L 49 131.070 51.250 129.895 C 52.487 129.248, 62.500 123.546, 73.500 117.222 C 84.500 110.898, 93.838 105.535, 94.250 105.303 C 94.662 105.071, 95 105.123, 95 105.419 C 95 106.087, 73.628 120.476, 73.159 120.124 C 72.971 119.982, 72.150 120.684, 71.335 121.683 C 70.519 122.683, 70.191 122.825, 70.606 122 C 71.021 121.175, 70.042 121.850, 68.430 123.500 C 66.819 125.150, 61.802 128.975, 57.283 132 L 49.066 137.500 49.033 143.865 L 49 150.230 51.500 148.615 C 52.875 147.727, 55.125 146.273, 56.500 145.385 C 57.875 144.497, 59 144, 59 144.281 C 59 144.562, 56.750 146.235, 54 148 L 49 151.208 49 156.686 L 49 162.163 52.250 160.192 C 55.721 158.088, 119.818 121.093, 121.500 120.223 C 126.033 117.880, 115.365 125.175, 84.750 145.353 L 49 168.916 49 174.539 L 49 180.163 52.250 178.188 C 54.038 177.102, 68.550 168.685, 84.500 159.485 C 100.450 150.284, 113.837 142.559, 114.250 142.319 C 114.662 142.079, 115 142.085, 115 142.334 C 115 142.582, 100.150 152.366, 82 164.075 L 49 185.365 49 190.764 L 49 196.163 52.250 194.206 C 54.038 193.129, 70.575 183.581, 89 172.987 C 107.425 162.393, 122.649 153.600, 122.831 153.448 C 123.013 153.296, 122.633 152.182, 121.986 150.974 C 121.339 149.765, 120.827 146.609, 120.847 143.960 C 120.934 132.743, 125.581 124.820, 134.683 120.366 C 139.064 118.223, 141.042 117.835, 145.820 118.181 C 153.020 118.701, 157.020 121.345, 160.036 127.574 C 161.926 131.479, 162.180 133.345, 161.802 140.557 L 161.360 148.979 165.680 146.447 C 171.233 143.193, 171.280 143.900, 165.750 147.505 C 163.412 149.030, 159.012 152.856, 155.972 156.008 C 151.359 160.791, 149.592 161.922, 145.295 162.843 C 141.426 163.673, 134.595 167.512, 117.823 178.281 C 96.372 192.055, 83.146 200.205, 68.801 208.488 C 65.117 210.615, 62.374 212.795, 62.705 213.332 C 63.037 213.870, 62.799 213.994, 62.175 213.608 C 60.767 212.738, 56.743 214.775, 57.488 215.981 C 57.788 216.465, 57.506 217.187, 56.862 217.585 C 56.131 218.037, 55.959 217.876, 56.405 217.155 C 56.797 216.520, 56.754 216.002, 56.309 216.004 C 54.911 216.010, 48.748 220.082, 49.300 220.634 C 49.590 220.923, 51.103 220.395, 52.663 219.461 L 55.500 217.763 53 219.859 C 51.625 221.012, 50.163 221.966, 49.750 221.978 C 49.001 222, 48.647 233, 49.396 233 C 49.613 233, 57.376 228.569, 66.646 223.154 C 79.097 215.880, 157.330 170.652, 163.250 167.306 C 163.662 167.073, 164 167.086, 164 167.336 C 164 167.586, 138.125 184.147, 106.500 204.139 L 49 240.488 49 246.359 C 49 252.218, 49.005 252.227, 51.250 250.756 C 58.332 246.117, 93.869 225.160, 130.500 204.022 C 153.600 190.691, 173.963 178.897, 175.750 177.811 C 177.537 176.725, 179 176.057, 179 176.325 C 179 176.594, 159.394 189.092, 135.432 204.100 L 91.863 231.387 95.703 232.520 C 97.814 233.144, 100.657 234.378, 102.021 235.263 C 104.457 236.844, 105.162 236.489, 142.500 214.877 C 190.995 186.807, 189.678 187.555, 188.500 188.739 C 187.950 189.292, 169.950 200.636, 148.500 213.947 C 127.050 227.258, 109.124 238.514, 108.665 238.959 C 108.039 239.567, 111.046 245.698, 113.466 248.748 C 113.574 248.884, 128.926 240.181, 147.581 229.408 C 184.009 208.371, 185.885 207.317, 184.765 208.516 C 184.361 208.949, 168.611 218.834, 149.765 230.483 L 115.500 251.664 114.833 258.330 C 114.013 266.521, 111.305 271.217, 105.148 275.121 C 99.052 278.987, 91.591 279.122, 85.375 275.480 L 81.075 272.960 65.080 282.730 L 49.084 292.500 49.042 303.332 L 49 314.163 52.250 312.182 C 54.038 311.093, 77.325 297.624, 104 282.251 C 130.675 266.878, 161.275 249.227, 172 243.027 C 194.709 229.899, 193.811 230.394, 192.500 231.710 C 190.484 233.731, 157.196 253.425, 105 283.476 C 75.575 300.416, 50.916 314.815, 50.203 315.471 C 49.314 316.290, 48.999 318.893, 49.203 323.736 L 49.500 330.806 71 318.323 C 96.137 303.728, 96 303.804, 96 304.349 C 96 304.580, 85.425 311.183, 72.500 319.021 L 49 333.273 49 338.137 C 49 340.811, 49.247 343, 49.548 343 C 49.850 343, 89.562 320.223, 137.798 292.384 C 186.034 264.546, 225.950 241.530, 226.500 241.238 C 236.371 235.996, 144.328 293.598, 110 314.146 C 100.375 319.907, 82.720 330.219, 70.766 337.060 L 49.033 349.500 49.016 356.332 L 49 363.163 52.250 361.206 C 74.376 347.886, 110.236 328.028, 111.148 328.591 C 111.854 329.028, 112.040 328.873, 111.622 328.197 C 110.844 326.939, 116.538 323.596, 117.960 324.475 C 118.456 324.782, 119.187 324.506, 119.585 323.862 C 120.037 323.131, 119.876 322.959, 119.155 323.405 C 118.520 323.797, 118 323.876, 118 323.579 C 118 322.537, 125.762 319.094, 126.537 319.793 C 126.968 320.182, 127.067 320.050, 126.757 319.500 C 126.314 318.715, 168.784 293.518, 207.435 271.632 C 222.279 263.227, 202.775 275.567, 131 319.994 C 87.275 347.059, 50.910 369.763, 50.189 370.448 C 49.369 371.227, 48.994 373.445, 49.189 376.368 L 49.500 381.043 60.500 374.690 C 66.550 371.195, 88.150 358.727, 108.500 346.983 C 128.850 335.239, 159.329 317.634, 176.231 307.861 C 208.165 289.395, 211.896 287.298, 210.908 288.373 C 210.583 288.727, 174.133 311.442, 129.908 338.851 L 49.500 388.686 49.317 396.360 L 49.135 404.033 52.861 401.767 C 113.974 364.599, 117.265 362.475, 120.091 358.367 C 123.246 353.782, 129.024 350.476, 135.732 349.418 C 138.059 349.051, 139.723 348.362, 139.430 347.887 C 139.136 347.412, 139.668 347.319, 140.612 347.681 C 141.793 348.134, 142.098 347.967, 141.590 347.145 C 141.184 346.488, 141.222 346.051, 141.676 346.173 C 143.416 346.644, 147 344.808, 146.360 343.773 C 145.961 343.128, 146.158 342.979, 146.845 343.405 C 147.480 343.797, 148 343.615, 148 343 C 148 342.385, 148.434 342.150, 148.964 342.477 C 149.493 342.805, 150.806 342.194, 151.880 341.120 C 152.954 340.046, 154.096 339.429, 154.417 339.750 C 154.737 340.071, 155 339.782, 155 339.108 C 155 338.434, 155.453 338.162, 156.007 338.504 C 156.561 338.847, 157.283 338.426, 157.612 337.569 C 157.941 336.712, 158.612 336.260, 159.105 336.565 C 159.597 336.869, 160 336.641, 160 336.059 C 160 335.477, 160.643 335, 161.429 335 C 162.214 335, 163.452 334.423, 164.179 333.717 C 164.905 333.012, 174.275 327.328, 185 321.086 C 207.297 308.111, 206.857 308.356, 205.500 309.691 C 204.950 310.232, 190.377 319.382, 173.115 330.023 L 141.730 349.370 146.787 351.019 C 156.032 354.033, 161.106 359.065, 162.886 366.988 C 166.498 383.063, 151.545 395.504, 135.311 389.931 C 125.160 386.446, 119.257 379.469, 118.110 369.600 L 117.500 364.355 83.299 385.427 L 49.097 406.500 49.049 423.872 C 49.010 437.623, 49.261 441.044, 50.250 440.281 C 52.401 438.623, 63 432.830, 63 433.313 C 63 433.565, 59.850 435.643, 56 437.931 L 49 442.089 49 446.986 C 49 449.679, 49.337 452.087, 49.750 452.339 C 50.162 452.590, 60.400 446.822, 72.500 439.522 C 90.541 428.638, 221.081 352.880, 224.500 351.311 C 228.105 349.656, 212.804 359.286, 137.112 406.308 C 80.481 441.490, 52.276 459.556, 52.612 460.432 C 52.890 461.156, 54.553 462.520, 56.309 463.462 L 59.500 465.176 139.500 419.004 C 183.500 393.609, 221.075 371.897, 223 370.755 C 224.925 369.614, 226.050 369.148, 225.500 369.720 C 224.950 370.292, 190.300 392.007, 148.500 417.977 C 106.700 443.946, 72.050 465.640, 71.500 466.186 C 70.838 466.843, 73.543 467.049, 79.500 466.796 L 88.500 466.413 101 459.090 C 107.875 455.063, 114.963 450.883, 116.750 449.802 C 118.538 448.721, 120 448.063, 120 448.340 C 120 448.616, 113.916 452.535, 106.480 457.048 C 99.045 461.562, 92.718 465.647, 92.421 466.127 C 92.125 466.607, 95.419 467, 99.742 467 L 107.603 467 124.552 457.173 C 133.873 451.768, 156.575 438.636, 175 427.990 C 193.425 417.344, 209.963 407.771, 211.750 406.718 C 213.537 405.664, 215 404.981, 215 405.199 C 215 405.417, 193.193 419.074, 166.539 435.548 C 139.886 452.022, 118.061 465.837, 118.039 466.250 C 117.978 467.413, 149.860 467.146, 152.066 465.965 C 153.399 465.251, 154 465.251, 154 465.965 C 154 466.588, 157.034 467, 161.621 467 L 169.241 467 201.655 448.311 C 227.306 433.521, 233.920 429.297, 233.357 428.061 C 232.966 427.203, 232.457 424.368, 232.227 421.763 C 231.091 408.902, 246.230 395.683, 260.200 397.337 C 275.071 399.098, 282.830 414.993, 274.913 427.476 C 272.055 431.982, 272 432.232, 274.163 430.836 C 275.448 430.006, 285.725 424.026, 297 417.546 C 308.275 411.067, 318.962 404.882, 320.750 403.801 C 322.537 402.721, 324 402.056, 324 402.324 C 324 402.592, 302.117 417.141, 275.372 434.655 L 226.744 466.500 234.883 466.791 L 243.022 467.081 260.761 456.889 C 270.517 451.283, 279.512 446.038, 280.750 445.233 C 281.988 444.428, 283 443.990, 283 444.259 C 283 444.528, 275.258 449.642, 265.795 455.624 L 248.590 466.500 256.801 466.791 C 264.844 467.075, 265.160 466.996, 272.256 462.897 C 276.240 460.596, 279.837 458.526, 280.250 458.297 C 280.663 458.069, 281 458.070, 281 458.299 C 281 458.529, 278.413 460.468, 275.250 462.608 L 269.500 466.500 277.344 466.794 L 285.188 467.088 306.344 454.921 C 317.980 448.229, 329.075 441.837, 331 440.717 C 338.640 436.270, 331.548 441.351, 313 453.611 L 293.500 466.500 301.326 466.793 C 308.666 467.069, 309.567 466.864, 315.826 463.506 C 319.497 461.536, 321.399 460.729, 320.054 461.712 C 312.772 467.035, 312.746 466.930, 321.404 466.967 C 328.576 466.997, 329.919 466.672, 335.904 463.462 C 339.532 461.517, 341.399 460.729, 340.054 461.712 C 332.765 467.041, 332.733 466.930, 341.531 466.967 L 349.562 467 374.031 452.911 C 400.550 437.642, 403.010 436.278, 401.500 437.690 C 400.950 438.204, 392.047 444.896, 381.715 452.562 L 362.930 466.500 370.955 466.790 C 375.369 466.950, 379.797 466.644, 380.794 466.110 C 381.904 465.516, 383.169 465.495, 384.054 466.054 C 384.849 466.558, 389.100 466.975, 393.500 466.981 C 399.451 466.990, 402.268 466.530, 404.500 465.188 C 406.150 464.196, 410.200 461.908, 413.500 460.105 L 419.500 456.826 415 460.883 C 412.525 463.115, 410.163 464.954, 409.750 464.970 C 409.337 464.987, 409 465.450, 409 466 C 409 466.581, 412.244 466.996, 416.750 466.991 C 424.399 466.982, 424.630 466.905, 434.500 461.096 C 440 457.860, 444.698 455.399, 444.940 455.629 C 445.182 455.858, 443.269 458.189, 440.690 460.807 C 438.110 463.426, 436 465.891, 436 466.284 C 436 466.678, 439.421 467, 443.603 467 C 450.041 467, 451.953 466.580, 456.091 464.254 C 459.291 462.455, 461.323 460.513, 461.981 458.625 C 462.988 455.735, 463.363 422, 462.387 422 C 462.102 422, 460.886 422.490, 459.684 423.089 C 458.097 423.880, 458.267 423.538, 460.305 421.839 C 462.904 419.671, 463.087 419.046, 462.805 413.300 L 462.500 407.101 451.375 414.300 C 429.625 428.376, 429.024 428.043, 449.199 413.095 L 462.898 402.946 462.947 385.973 C 462.974 376.638, 462.706 369, 462.352 369 C 461.781 369, 442.501 379.855, 436 383.836 C 429.126 388.045, 437.109 382.187, 449.250 374.111 L 463 364.965 463 359.982 C 463 354.581, 462.924 354.490, 459.684 356.055 C 457.574 357.074, 457.566 357.057, 459.441 355.555 C 460.509 354.700, 461.746 354, 462.191 354 C 462.636 354, 463 351.525, 463 348.500 C 463 345.475, 462.766 343, 462.480 343 C 462.194 343, 460.282 344.043, 458.230 345.318 C 452.262 349.028, 442.433 354.401, 443.225 353.521 C 443.624 353.079, 448.124 350.154, 453.225 347.023 L 462.500 341.330 462.801 335.616 L 463.103 329.901 458.261 332.700 C 455.598 334.240, 439.381 343.600, 422.223 353.500 C 401.545 365.431, 391.022 372.049, 391.013 373.128 C 390.993 375.638, 388.091 382.014, 385.309 385.662 C 383.929 387.471, 380.368 390.141, 377.395 391.595 C 370.659 394.891, 362.227 394.722, 357.270 391.193 C 350.766 386.561, 348.299 375.642, 351.175 364.221 C 352.870 357.489, 359.951 350.605, 366.659 349.166 C 369.405 348.578, 372.517 348.272, 373.575 348.488 C 374.634 348.703, 376.703 349.132, 378.173 349.439 C 384.165 350.695, 391 359.542, 391 366.043 C 391 367.761, 391.367 369.017, 391.816 368.833 C 392.265 368.650, 408.457 358.150, 427.797 345.500 L 462.962 322.500 462.981 312.143 C 462.997 303.440, 462.765 301.876, 461.531 302.350 C 460.245 302.843, 416.640 327.801, 410 331.845 C 408.625 332.682, 407.950 332.884, 408.500 332.295 C 409.623 331.091, 454.724 303.216, 459.699 300.650 L 462.899 299.001 462.944 283 C 462.968 274.200, 462.818 267, 462.610 267 C 462.402 267, 443.842 277.618, 421.366 290.596 C 364.048 323.690, 364.168 323.294, 422.302 287.500 L 462.905 262.500 462.953 257.164 L 463 251.828 456.250 255.580 C 452.538 257.643, 448.375 259.979, 447 260.771 C 444.613 262.146, 444.591 262.136, 446.500 260.554 C 447.600 259.643, 451.757 257.008, 455.738 254.699 L 462.975 250.500 462.988 245.167 L 463 239.835 457.750 242.932 C 454.863 244.635, 449.466 247.709, 445.757 249.764 L 439.013 253.500 439.007 259.124 C 438.996 267.925, 432.383 277.862, 425.363 279.624 C 420.721 280.789, 413.917 279.327, 409.502 276.215 L 405.240 273.211 366.870 295.360 C 322.809 320.795, 317.584 323.744, 320.933 321.286 C 322.716 319.977, 377.288 285.741, 401 271.055 C 402.293 270.254, 402.156 269.463, 400 265.313 C 398.625 262.666, 397.463 260.388, 397.418 260.251 C 397.372 260.114, 378.022 271.156, 354.418 284.789 C 277.627 329.139, 279.274 327.913, 381.991 264.261 C 396.375 255.348, 396.487 255.250, 397.217 250.976 C 398.223 245.081, 402.078 239.624, 407.468 236.466 C 411.336 234.199, 412.804 233.890, 417.740 234.303 C 420.908 234.569, 424.625 235.088, 426 235.457 C 428.006 235.996, 431.858 234.188, 445.500 226.302 L 462.500 216.476 462.798 210.238 C 463.109 203.716, 462.719 203.141, 459.473 205.330 C 456.139 207.577, 445.455 213.376, 446.227 212.520 C 446.627 212.076, 450.452 209.614, 454.727 207.050 L 462.500 202.387 462.775 185.577 C 463.032 169.854, 462.935 168.811, 461.282 169.445 C 460.310 169.818, 425.536 189.730, 384.007 213.693 C 300.740 261.741, 306.105 258.683, 307.500 257.308 C 308.050 256.766, 315.475 252.118, 324 246.978 C 332.525 241.839, 341.355 236.384, 343.623 234.856 C 345.890 233.329, 348.028 232.361, 348.373 232.706 C 348.718 233.051, 349 232.808, 349 232.167 C 349 231.525, 349.675 231, 350.500 231 C 351.325 231, 352 230.475, 352 229.833 C 352 229.192, 352.293 228.960, 352.651 229.318 C 353.009 229.676, 353.943 229.188, 354.725 228.234 C 355.675 227.077, 355.933 226.999, 355.500 228 C 355.143 228.825, 355.560 228.626, 356.426 227.559 C 357.292 226.491, 358.014 226.041, 358.030 226.559 C 358.047 227.076, 358.509 226.731, 359.057 225.792 C 359.605 224.852, 360.670 224.320, 361.425 224.610 C 362.180 224.899, 363.138 224.586, 363.553 223.914 C 364.067 223.082, 363.860 222.924, 362.905 223.420 C 362.132 223.820, 362.331 223.471, 363.347 222.643 C 364.363 221.815, 365.899 221.408, 366.761 221.739 C 367.750 222.118, 368.077 221.934, 367.648 221.239 C 367.274 220.634, 367.494 219.813, 368.138 219.415 C 368.912 218.937, 369.040 219.127, 368.515 219.975 C 367.983 220.837, 368.179 221.093, 369.111 220.755 C 369.875 220.477, 370.393 219.760, 370.262 219.161 C 370.125 218.532, 370.722 218.340, 371.676 218.706 C 372.737 219.113, 373.085 218.946, 372.648 218.239 C 372.274 217.634, 372.494 216.813, 373.138 216.415 C 373.912 215.937, 374.040 216.127, 373.515 216.975 C 372.983 217.837, 373.179 218.093, 374.111 217.755 C 374.875 217.477, 375.392 216.757, 375.260 216.155 C 375.128 215.553, 375.970 214.551, 377.131 213.930 C 378.622 213.132, 379.042 213.123, 378.562 213.900 C 377.560 215.521, 379.327 215.237, 381.559 213.418 C 383.473 211.858, 383.473 211.845, 381.500 212.421 L 379.500 213.005 381.500 211.429 C 384.706 208.904, 387.954 207.494, 385 209.911 C 383.625 211.035, 382.890 211.966, 383.367 211.978 C 384.420 212.005, 458.943 169.182, 460.846 167.457 C 461.586 166.786, 462.036 165.576, 461.846 164.769 C 461.602 163.732, 451.220 169.589, 426.500 184.707 C 388.091 208.198, 388 208.252, 388 207.656 C 388 207.428, 404.647 196.950, 424.993 184.371 L 461.987 161.500 461.993 156.151 L 462 150.802 458.250 153.024 C 453.640 155.755, 305.894 241.032, 304.500 241.767 C 303.833 242.118, 303.833 241.947, 304.500 241.254 C 305.050 240.683, 340.600 218.493, 383.500 191.945 C 426.400 165.396, 461.598 143.612, 461.718 143.536 C 461.838 143.460, 462.237 140.838, 462.604 137.709 L 463.273 132.021 386.886 176.116 C 295.751 228.726, 301.259 225.582, 302.500 224.277 C 303.050 223.698, 320.825 212.533, 342 199.465 C 363.175 186.397, 381.734 174.843, 383.243 173.789 C 384.752 172.736, 386.552 172.199, 387.243 172.597 C 387.934 172.995, 388.165 172.951, 387.756 172.500 C 386.703 171.338, 390.743 168.734, 392.252 169.602 C 392.938 169.997, 393.165 169.951, 392.756 169.500 C 391.726 168.363, 395.735 165.718, 397.156 166.597 C 397.851 167.026, 398.038 166.870, 397.627 166.205 C 396.781 164.837, 400.619 162.647, 402.175 163.608 C 402.831 164.014, 403.035 163.865, 402.658 163.256 C 402.289 162.659, 405.147 160.261, 409.254 157.721 C 450.581 132.160, 462.608 124.560, 463.235 123.612 C 464.136 122.248, 464.249 112, 463.362 112 C 463.012 112, 449.849 119.801, 434.112 129.337 C 418.376 138.872, 402.575 148.402, 399 150.515 C 395.425 152.628, 391.153 155.464, 389.508 156.818 C 387.862 158.172, 384.680 160.066, 382.437 161.027 C 380.194 161.988, 357.916 174.579, 332.929 189.007 C 281.111 218.928, 285.288 216.556, 286.207 215.537 C 286.772 214.910, 322.099 192.742, 364.487 166.415 L 370.475 162.696 365.316 161.015 C 357.562 158.487, 354.979 156.403, 349.309 148.102 C 349.069 147.751, 327.171 159.993, 321.250 163.788 C 320.012 164.581, 319 164.988, 319 164.693 C 319 164.398, 325.678 160.051, 333.839 155.033 L 348.678 145.910 348.733 140.111 C 348.872 125.374, 361.370 117.507, 377.121 122.242 L 383.764 124.239 423.882 99.511 C 469.039 71.676, 465.350 75.195, 462.167 63 C 461.027 58.633, 460.024 56.596, 459.110 56.792 C 458.361 56.952, 426.868 74.900, 389.125 96.676 C 351.381 118.452, 320.163 136.459, 319.750 136.693 C 319.338 136.927, 319 136.902, 319 136.638 C 319 136.374, 326.988 131.244, 336.750 125.237 C 355.576 113.655, 421.863 72.708, 443.250 59.450 C 450.262 55.103, 456 51.070, 456 50.489 C 456 48.923, 450.123 45.734, 448.179 46.245 C 446.894 46.583, 299.036 131.532, 287 138.847 C 285.625 139.683, 284.950 139.883, 285.500 139.292 C 286.050 138.701, 297.750 131.254, 311.500 122.742 C 367.762 87.916, 433.560 46.812, 434.450 45.936 C 436.211 44.202, 420.212 44.840, 416.700 46.644 C 413.527 48.273, 274.491 128.392, 268.250 132.187 C 266.462 133.274, 265 133.924, 265 133.633 C 265 132.512, 348.009 81.385, 377.414 64.395 C 411.351 44.787, 410.861 45.297, 395.949 45.100 L 388.398 45 322.949 82.785 C 249.205 125.359, 245.105 127.693, 246.500 126.306 C 247.050 125.759, 252.900 121.934, 259.500 117.806 C 299.433 92.829, 370.727 47.553, 371.964 46.384 C 373.217 45.200, 372.125 45, 364.387 45 L 355.345 45 341.922 53.153 C 334.540 57.637, 317.709 67.669, 304.520 75.446 L 280.541 89.586 279.811 93.859 C 278.536 101.332, 273.276 107.874, 265.196 112.039 C 259.246 115.107, 253.170 115.613, 246.904 113.563 L 241.740 111.874 229.120 119.129 C 205.645 132.624, 205.262 132.570, 226.516 118.759 L 239.968 110.019 236.984 105.314 C 235.343 102.726, 234 100.022, 234 99.304 C 234 98.587, 233.572 98, 233.048 98 C 232.525 98, 226.562 101.207, 219.798 105.127 C 213.034 109.047, 207.162 112.449, 206.750 112.686 C 206.338 112.924, 206 112.923, 206 112.685 C 206 112.447, 211.512 108.744, 218.250 104.457 C 232.870 95.153, 234 94.245, 234 91.805 C 234 88.231, 238.003 82.090, 242.639 78.549 C 248.197 74.306, 253.116 72.829, 260.795 73.099 C 266.308 73.293, 266.888 73.051, 278 65.950 C 284.325 61.908, 294.102 55.830, 299.728 52.445 C 305.353 49.059, 309.666 45.999, 309.311 45.644 C 307.919 44.252, 293.892 45.004, 290.700 46.643 C 288.184 47.934, 222.055 85.905, 206 95.277 C 195.585 101.357, 208.608 92.635, 241.500 71.502 C 261.850 58.427, 279.159 47.115, 279.964 46.365 C 281.210 45.203, 280.232 45, 273.403 45 L 265.378 45 218.439 72.094 C 192.622 86.995, 170.600 99.650, 169.500 100.216 C 164.137 102.975, 172.582 97.165, 210 72.354 L 250.500 45.500 242.177 45.208 L 233.853 44.917 214.677 56.110 C 193.212 68.638, 193.083 68.709, 194.500 67.297 C 195.050 66.748, 202.025 62.117, 210 57.006 C 229.927 44.234, 229.644 44.677, 217.500 45.273 C 207.517 45.764, 203.611 46.562, 204.462 47.938 C 204.709 48.339, 204.368 48.667, 203.703 48.667 C 203.038 48.667, 198.670 51.156, 193.997 54.199 C 185.809 59.530, 146.726 82.590, 141.869 84.956 C 139.573 86.075, 139.562 86.061, 141.500 84.492 C 142.600 83.602, 155.633 74.464, 170.462 64.187 L 197.425 45.500 189.603 45.206 C 183.289 44.969, 180.983 45.311, 177.641 46.982 C 175.363 48.120, 174.287 48.428, 175.250 47.666 C 178.334 45.223, 177.177 44.786, 168.750 45.212 L 160.500 45.628 132.500 61.912 C 117.100 70.868, 104.162 78.403, 103.750 78.657 C 103.337 78.910, 103 78.894, 103 78.621 C 103 78.347, 112.563 70.783, 124.250 61.812 C 147.497 43.967, 147.235 44.414, 134.019 45.177 C 127.905 45.530, 126.629 46.075, 113.500 53.931 C 93.962 65.622, 93.829 65.585, 109.960 52.924 L 119.419 45.500 111.545 45.205 L 103.672 44.910 87.586 54.115 C 78.739 59.177, 71.050 63.533, 70.500 63.794 C 69.950 64.055, 73.766 59.934, 78.980 54.635 L 88.460 45 80.465 45 C 72.272 45, 70.439 45.596, 61.025 51.326 L 57.549 53.442 59.611 50.471 C 63.114 45.422, 63.248 44.996, 61.309 45.056 C 60.314 45.087, 57.925 45.650, 56 46.306 M 298 59.997 C 283.975 68.188, 272.139 75.035, 271.698 75.212 C 271.257 75.389, 272.859 77.582, 275.257 80.085 L 279.618 84.636 309.235 65.568 C 325.525 55.081, 339.186 46.163, 339.593 45.750 C 340 45.337, 336.546 45.023, 331.917 45.052 L 323.500 45.104 298 59.997 M 484.299 50.793 C 479.229 53.936, 475.480 56.880, 475.949 57.349 C 477.040 58.440, 495 48.017, 495 46.293 C 495 44.319, 494.201 44.655, 484.299 50.793 M 93.861 48.056 C 92.005 49.673, 91.928 49.894, 93.500 49.090 C 96.892 47.355, 98.554 46.031, 97.361 46.015 C 96.734 46.007, 95.159 46.925, 93.861 48.056 M 42.060 48.428 C 41.386 49.240, 41.026 50.713, 41.260 51.702 C 41.599 53.136, 41.925 52.914, 42.871 50.611 C 44.230 47.297, 43.850 46.271, 42.060 48.428 M 443.178 62.083 C 430.365 69.891, 424.030 74.117, 429.500 71.207 C 439.387 65.948, 458.958 54.110, 458.314 53.777 C 457.866 53.546, 451.055 57.284, 443.178 62.083 M 485.750 64.240 C 476.542 69.980, 476 70.506, 476 73.694 C 476 77.598, 475.032 77.894, 488.750 69.794 C 496.556 65.185, 497 64.736, 497 61.461 C 497 59.558, 496.663 58.036, 496.250 58.081 C 495.837 58.125, 491.113 60.897, 485.750 64.240 M 27.153 79.403 C 15.951 85.864, 15.755 86.042, 16.172 89.412 C 16.497 92.043, 16.590 92.002, 26.500 84.898 C 32 80.955, 36.652 77.601, 36.838 77.443 C 37.025 77.285, 37.025 76.449, 36.838 75.584 C 36.572 74.345, 34.522 75.153, 27.153 79.403 M 486.512 82.328 C 480.608 85.989, 476.375 89.291, 476.161 90.403 C 475.854 91.995, 476.855 91.697, 482.649 88.475 C 494.615 81.820, 497 80.077, 497 77.987 C 497 76.894, 496.887 76.030, 496.750 76.067 C 496.613 76.104, 492.005 78.921, 486.512 82.328 M 425.494 101.511 C 404.597 114.394, 387.076 125.091, 386.557 125.281 C 386.039 125.472, 386.770 127.175, 388.182 129.064 C 392.135 134.354, 393.261 137.014, 393.906 142.581 L 394.500 147.711 429.500 125.900 L 464.500 104.089 464.802 99.045 C 464.969 96.270, 464.825 94, 464.483 94 C 463.979 94, 435.073 110.435, 420 119.291 C 418.075 120.422, 416.871 120.932, 417.325 120.424 C 417.778 119.916, 428.578 113.166, 441.325 105.425 L 464.500 91.350 464.796 86.887 C 464.959 84.432, 464.731 81.448, 464.290 80.256 C 463.539 78.224, 461.114 79.552, 425.494 101.511 M 256.523 84.570 C 252.877 88.504, 253.415 89.339, 258.065 86.967 C 260.301 85.826, 261.961 84.382, 261.753 83.759 C 261.022 81.566, 259.019 81.876, 256.523 84.570 M 486 97.853 C 472.412 106.135, 472.779 108.734, 486.430 100.901 C 492.243 97.566, 497 94.198, 497 93.418 C 497 91.293, 496.302 91.574, 486 97.853 M 24.250 99.698 C 16.003 104.605, 15 105.513, 15 108.078 L 15 110.954 24.956 104.227 C 31.072 100.095, 34.929 96.825, 34.956 95.750 C 34.980 94.787, 34.663 94.044, 34.250 94.098 C 33.837 94.151, 29.337 96.672, 24.250 99.698 M 254.250 98.675 C 250.629 100.783, 248.718 103, 250.521 103 C 251.649 103, 259 97.683, 259 96.867 C 259 95.823, 259.424 95.662, 254.250 98.675 M 486.250 112.322 C 480.613 115.715, 476 119.056, 476 119.746 C 476 120.436, 476.200 121, 476.444 121 C 476.796 121, 495.522 110.349, 496.838 109.400 C 497.025 109.266, 497.025 108.481, 496.838 107.655 C 496.584 106.527, 493.952 107.687, 486.250 112.322 M 24.500 116.985 C 15.233 122.557, 14 123.559, 14 125.521 C 14 127.078, 33.143 115.070, 33.799 113.102 C 34.398 111.306, 32.922 111.922, 24.500 116.985 M 412.750 122.572 C 409.012 124.600, 409.239 125.445, 413 123.500 C 414.650 122.647, 416 121.735, 416 121.474 C 416 120.831, 415.893 120.867, 412.750 122.572 M 59.500 127.670 C 49.236 133.856, 48.813 134.147, 49.333 134.667 C 49.828 135.162, 66 125.203, 66 124.404 C 66 123.768, 65.838 123.850, 59.500 127.670 M 23.750 132.643 C 16.821 136.606, 14 138.765, 14 140.109 C 14 141.149, 14.261 142, 14.579 142 C 16.271 142, 34 129.582, 34 128.397 C 34 127.629, 33.888 127.015, 33.750 127.033 C 33.612 127.052, 29.112 129.576, 23.750 132.643 M 433.324 144.322 C 417.826 153.770, 404.776 161.903, 404.324 162.396 C 403.871 162.889, 405.525 162.126, 408 160.701 C 449.111 137.025, 462.472 129.084, 462.787 128.138 C 462.996 127.512, 462.792 127.032, 462.333 127.072 C 461.875 127.111, 448.821 134.874, 433.324 144.322 M 305.269 137.281 C 298.205 145.034, 279.904 183.181, 262.707 226 C 260.829 230.675, 258.799 234.395, 258.196 234.266 C 255.472 233.687, 246.189 236.271, 242.698 238.581 C 234.952 243.707, 231.670 257.271, 235.913 266.616 C 239.353 274.191, 248.344 278.600, 257.727 277.314 C 260.442 276.942, 262.513 277.181, 263.473 277.977 C 264.298 278.662, 267.783 284.173, 271.216 290.224 C 281.063 307.574, 287.565 312.411, 294.017 307.187 L 296.256 305.374 284.471 287.689 C 273.635 271.428, 272.810 269.863, 274.222 268.252 C 281.073 260.439, 280.158 246.202, 272.413 240.110 C 271.086 239.066, 270 237.959, 270 237.649 C 270 235.814, 278.415 219.138, 279.121 219.575 C 279.592 219.866, 279.750 219.513, 279.473 218.791 C 279.196 218.069, 281.266 212.308, 284.073 205.989 C 303.821 161.526, 314.388 127.271, 305.269 137.281 M 149.659 140 C 147.643 143.412, 148.409 143.794, 151.894 141.115 C 153.230 140.087, 153.977 138.772, 153.585 138.137 C 152.476 136.343, 151.564 136.776, 149.659 140 M 134.114 143.879 C 132.535 145.093, 132.112 145.951, 132.864 146.416 C 134.282 147.292, 135.683 146.461, 137.030 143.944 C 138.329 141.516, 137.219 141.491, 134.114 143.879 M 486.233 148.199 C 477.854 153.275, 476 154.830, 476 156.781 L 476 159.163 479.250 157.215 C 481.038 156.144, 485.762 153.356, 489.750 151.020 C 495.538 147.629, 497 146.291, 497 144.386 C 497 143.074, 496.880 142, 496.733 142 C 496.587 142, 491.862 144.790, 486.233 148.199 M 23.500 148.463 C 17.089 152.237, 14.405 154.394, 14.170 155.962 C 13.863 158.006, 14.259 157.894, 19.670 154.410 C 22.876 152.345, 27.637 149.316, 30.250 147.678 C 34.868 144.784, 36.292 142.914, 33.750 143.083 C 33.063 143.129, 28.450 145.550, 23.500 148.463 M 86.250 179.152 L 49 203.191 49 208.532 L 49 213.873 67.250 203.321 C 77.287 197.517, 96.923 186.195, 110.884 178.160 L 136.267 163.552 132.884 162.193 C 131.023 161.446, 128.150 159.547, 126.500 157.974 L 123.500 155.113 86.250 179.152 M 24.500 163.094 C 18.915 166.325, 14.341 169.650, 14.141 170.626 C 13.810 172.233, 13.971 172.250, 16.141 170.844 C 17.438 170.003, 21.650 167.372, 25.500 164.997 C 29.350 162.622, 33.148 160.087, 33.940 159.363 C 37.260 156.331, 33.888 157.664, 24.500 163.094 M 486.500 164.325 C 477.546 169.930, 476.467 170.921, 476.187 173.793 C 476.014 175.557, 476.188 177, 476.574 177 C 476.959 177, 481.712 174.423, 487.137 171.272 C 496.866 165.622, 497 165.493, 497 161.772 C 497 159.698, 496.887 158.014, 496.750 158.032 C 496.613 158.050, 492 160.882, 486.500 164.325 M 488.823 181.322 C 483.071 184.921, 478.466 188.369, 481.500 186.805 C 484.955 185.024, 497 177.705, 497 177.386 C 497 176.478, 495.109 177.388, 488.823 181.322 M 24.500 188.026 C 18.957 191.270, 14.340 194.658, 14.141 195.626 C 13.812 197.224, 13.983 197.246, 16.141 195.876 C 17.438 195.053, 22.437 191.931, 27.248 188.940 C 34.941 184.157, 37.687 181.805, 35.250 182.087 C 34.837 182.135, 30 184.807, 24.500 188.026 M 486.500 195.380 C 477.638 200.984, 476.464 202.063, 476.187 204.852 C 476.014 206.583, 476.140 208, 476.465 208 C 476.791 208, 481.545 205.429, 487.029 202.287 C 496.896 196.633, 497 196.534, 497 192.787 C 497 190.704, 496.887 189.012, 496.750 189.027 C 496.613 189.042, 492 191.901, 486.500 195.380 M 25.250 201.785 L 14 208.285 14 212.616 L 14 216.947 25.250 209.782 C 31.438 205.842, 36.642 202.524, 36.816 202.409 C 36.990 202.294, 36.990 200.645, 36.816 198.743 L 36.500 195.285 25.250 201.785 M 486 214.100 C 477.663 219.320, 474.422 222, 476.445 222 C 478.215 222, 497 210.381, 497 209.287 C 497 207.349, 496.280 207.664, 486 214.100 M 456.500 225.731 C 453.200 227.697, 446.360 231.725, 441.300 234.682 L 432.100 240.058 434.607 243.753 C 435.986 245.785, 437.280 247.613, 437.481 247.815 C 437.683 248.016, 443.507 244.684, 450.424 240.409 L 463 232.636 463 227.318 C 463 224.393, 462.887 222.035, 462.750 222.079 C 462.613 222.122, 459.800 223.766, 456.500 225.731 M 18.250 225.566 C 15.912 226.967, 14 228.350, 14 228.638 C 14 229.177, 20.747 225.346, 22.450 223.840 C 24.169 222.320, 22.568 222.978, 18.250 225.566 M 26 233.110 C 13.968 240.062, 14.682 239.546, 15.152 240.956 C 15.555 242.166, 37 229.375, 37 227.924 C 37 226.675, 37.754 226.320, 26 233.110 M 61.750 250.175 L 49 258.215 49 263.538 L 49 268.862 60.750 262.068 L 72.500 255.274 73.046 250.887 C 73.346 248.474, 74.149 245.488, 74.831 244.250 C 75.513 243.012, 75.717 242.031, 75.285 242.068 C 74.853 242.105, 68.763 245.753, 61.750 250.175 M 255.120 248 C 252.538 252.595, 252.888 252.826, 257.882 249.826 C 262.824 246.857, 262.732 247.009, 260.557 245.418 C 257.836 243.428, 257.637 243.523, 255.120 248 M 103.631 252.440 C 101.831 255.188, 102.578 255.777, 105.290 253.750 C 106.343 252.963, 106.656 252.015, 106.135 251.190 C 105.512 250.204, 104.894 250.513, 103.631 252.440 M 25.250 259.238 C 15.013 265.253, 15 265.265, 15 269.187 L 15 273.113 18.817 270.807 C 20.916 269.538, 25.633 266.700, 29.299 264.500 C 35.614 260.711, 35.966 260.302, 35.983 256.750 C 35.992 254.688, 35.888 253.048, 35.750 253.108 C 35.612 253.167, 30.888 255.926, 25.250 259.238 M 87.494 257.572 C 85.297 258.901, 83.050 260.188, 82.500 260.432 C 81.381 260.927, 84.787 264.004, 86.441 263.992 C 87.494 263.985, 92.465 256.132, 91.824 255.491 C 91.639 255.306, 89.691 256.242, 87.494 257.572 M 485.750 262.328 C 480.387 265.709, 476 269.044, 476 269.738 C 476 270.432, 476.270 271, 476.600 271 C 476.930 271, 481.655 268.478, 487.100 265.395 C 494.177 261.387, 497 259.249, 497 257.895 C 497 256.853, 496.663 256.040, 496.250 256.090 C 495.837 256.139, 491.113 258.947, 485.750 262.328 M 412.216 260.049 C 407.178 262.938, 406.159 265.026, 409.809 264.978 C 411.963 264.949, 415.430 262.156, 416.918 259.250 C 417.552 258.012, 417.942 257.004, 417.785 257.009 C 417.628 257.015, 415.122 258.382, 412.216 260.049 M 256.500 259.447 C 255.400 260.123, 253.180 261.488, 251.567 262.481 L 248.634 264.286 250.928 266.143 C 252.189 267.164, 253.532 268, 253.912 268 C 254.646 268, 259.296 258.945, 258.796 258.488 C 258.633 258.340, 257.600 258.772, 256.500 259.447 M 60.782 268.292 L 49.065 275.500 49.032 280.776 L 49 286.051 51.881 284.562 C 54.704 283.102, 77.253 270.029, 77.755 269.561 C 78.145 269.198, 73.571 261.012, 73 261.050 C 72.725 261.068, 67.227 264.327, 60.782 268.292 M 486.500 277.409 C 476.992 283.395, 476.484 283.889, 476.184 287.453 C 476.010 289.514, 476.235 291, 476.684 290.756 C 486.505 285.413, 496.309 279.359, 496.672 278.412 C 496.930 277.740, 496.997 275.823, 496.820 274.151 L 496.500 271.112 486.500 277.409 M 61.233 281.184 C 54.487 285.098, 49.166 288.499, 49.408 288.742 C 49.850 289.184, 74 275.071, 74 274.371 C 74 273.775, 74.055 273.746, 61.233 281.184 M 23.258 290.778 C 18.726 293.375, 15.013 295.828, 15.008 296.228 C 15.001 296.906, 29.340 288.723, 31.450 286.845 C 33.296 285.203, 31.410 286.109, 23.258 290.778 M 485.750 297.384 C 477.946 302.277, 476 303.963, 476 305.832 C 476 308.598, 475.436 308.779, 486.362 302.500 C 494.526 297.808, 496.981 295.137, 495.848 292.178 C 495.656 291.679, 491.113 294.021, 485.750 297.384 M 25.250 302.033 C 19.613 305.340, 15 308.512, 15 309.082 C 15 309.652, 15.338 309.932, 15.750 309.705 C 23.803 305.268, 36 297.541, 36 296.877 C 36 295.662, 36.598 295.375, 25.250 302.033 M 25.781 314.858 C 19.470 318.522, 16.052 321.109, 16.031 322.236 C 16.007 323.584, 18.239 322.602, 26 317.853 C 31.500 314.488, 36 311.119, 36 310.367 C 36 309.615, 35.888 309.049, 35.750 309.108 C 35.612 309.168, 31.127 311.755, 25.781 314.858 M 487.750 313.061 C 484.038 315.288, 481 317.320, 481 317.576 C 481 318.097, 489.343 313.418, 493.076 310.802 C 497.455 307.735, 494.628 308.934, 487.750 313.061 M 486.333 326.342 C 477.495 331.924, 473.665 335.003, 481 330.630 C 483.475 329.154, 487.637 326.762, 490.250 325.314 C 492.863 323.867, 495 322.304, 495 321.841 C 495 320.776, 495.817 320.352, 486.333 326.342 M 25.500 329.347 C 16.958 334.330, 16.484 334.786, 16.190 338.299 C 16.019 340.334, 16.103 342, 16.375 342 C 16.648 342, 21.063 339.393, 26.186 336.206 C 34.481 331.046, 35.534 330.061, 35.813 327.206 C 35.986 325.443, 35.761 324.022, 35.313 324.048 C 34.866 324.075, 30.450 326.459, 25.500 329.347 M 77.021 347.958 C 53.134 361.792, 46.714 366, 49.497 366 C 50.242 366, 102.966 334.205, 104.450 332.861 C 104.973 332.387, 105.198 332.010, 104.950 332.022 C 104.703 332.034, 92.135 339.206, 77.021 347.958 M 25.764 347.793 C 19.367 351.543, 16.023 354.100, 16.014 355.250 C 16.006 356.212, 16.256 357, 16.568 357 C 16.880 357, 21.376 354.413, 26.559 351.250 C 32.653 347.532, 35.985 344.882, 35.991 343.750 C 35.996 342.788, 35.888 342.019, 35.750 342.043 C 35.612 342.067, 31.119 344.655, 25.764 347.793 M 486.938 361.129 C 475.620 368.428, 476.633 367.522, 477.682 369.396 C 478.412 370.700, 480.036 370.085, 488.024 365.480 C 496.091 360.830, 497.448 359.682, 497.152 357.759 C 496.961 356.517, 496.708 355.397, 496.590 355.271 C 496.472 355.146, 492.129 357.782, 486.938 361.129 M 26.500 362.620 C 21.550 365.523, 17.111 368.050, 16.636 368.237 C 16.161 368.423, 15.936 369.313, 16.136 370.213 C 16.431 371.537, 18.190 370.832, 25.362 366.512 C 35.083 360.659, 36.402 359.622, 35.862 358.259 C 35.663 357.755, 31.450 359.718, 26.500 362.620 M 141.209 363.178 C 140.006 366.025, 139.187 368.520, 139.388 368.721 C 139.590 368.923, 142.319 367.543, 145.454 365.654 L 151.153 362.221 148.888 360.110 C 145.317 356.783, 143.626 357.458, 141.209 363.178 M 493.443 373.667 C 487.410 377.665, 486.922 378.591, 492.500 375.455 C 498.516 372.073, 498.453 372.119, 497.860 371.526 C 497.599 371.266, 495.612 372.229, 493.443 373.667 M 25.750 377.573 C 20.388 380.628, 16 383.773, 16 384.564 C 16 385.354, 16.287 386, 16.637 386 C 18.342 386, 36 374.406, 36 373.286 C 36 372.579, 35.888 372.004, 35.750 372.009 C 35.612 372.015, 31.113 374.518, 25.750 377.573 M 363.711 375.852 C 361.433 377.354, 361.173 377.898, 362.289 378.825 C 363.359 379.713, 364.131 379.314, 365.857 376.979 C 368.381 373.566, 367.711 373.215, 363.711 375.852 M 137.720 379.588 C 136.192 380.417, 135.206 381.524, 135.529 382.047 C 136.533 383.671, 138.421 383.045, 140.297 380.469 C 142.345 377.654, 141.696 377.432, 137.720 379.588 M 488.313 389.827 C 482.710 393.497, 478.097 397.063, 478.063 397.750 C 477.966 399.668, 478.615 399.408, 489.161 393.308 C 497.128 388.700, 499 387.178, 499 385.308 C 499 384.039, 498.887 383.035, 498.750 383.077 C 498.613 383.119, 493.916 386.157, 488.313 389.827 M 488.732 406.250 C 478.973 412.853, 475.392 416.726, 477.290 418.623 C 477.582 418.915, 482.796 416.306, 488.879 412.827 C 499.843 406.554, 499.938 406.468, 499.969 402.750 C 499.986 400.688, 499.876 399, 499.724 399 C 499.572 399, 494.626 402.262, 488.732 406.250 M 255.571 410.859 C 254.157 413.650, 253 416.210, 253 416.548 C 253 417.226, 259.752 413.370, 261.771 411.539 C 262.782 410.623, 262.541 409.918, 260.592 408.086 L 258.143 405.785 255.571 410.859 M 24.822 413.827 C 17.385 418.162, 15.032 420.051, 14.660 421.984 C 14.394 423.368, 14.311 424.637, 14.475 424.804 C 14.640 424.971, 19.437 422.227, 25.137 418.707 C 32.399 414.222, 35.596 411.663, 35.820 410.154 C 35.995 408.969, 35.770 408.042, 35.320 408.093 C 34.869 408.143, 30.145 410.724, 24.822 413.827 M 495.443 420.667 C 489.410 424.665, 488.922 425.591, 494.500 422.455 C 500.516 419.073, 500.453 419.119, 499.860 418.526 C 499.599 418.266, 497.612 419.229, 495.443 420.667 M 24.750 430.236 L 14 436.417 14 440.323 C 14 444.137, 14.054 444.196, 16.250 442.782 C 17.488 441.986, 22.438 438.939, 27.250 436.012 C 35.446 431.028, 36 430.479, 36 427.345 C 36 425.505, 35.888 424.013, 35.750 424.028 C 35.612 424.043, 30.663 426.837, 24.750 430.236 M 253.557 426.167 C 249.810 428.142, 249.711 428.315, 251.546 429.657 C 253.584 431.147, 254.493 430.509, 257.108 425.750 C 258.276 423.626, 258.407 423.610, 253.557 426.167 M 206.277 447.861 C 190.754 457.563, 178.041 465.825, 178.027 466.222 C 178.012 466.619, 185.517 466.944, 194.705 466.944 L 211.411 466.944 235.142 453.222 L 258.873 439.500 252.687 438.975 C 246.243 438.428, 241.254 436.367, 237 432.497 L 234.500 430.222 206.277 447.861 M 486.642 440.594 C 479.570 445.759, 473.396 449.745, 472.922 449.452 C 472.187 448.998, 469 455.026, 469 456.872 C 469 457.217, 470.688 455.687, 472.750 453.472 C 474.813 451.258, 481.528 446.588, 487.673 443.096 C 496.129 438.291, 498.999 436.141, 499.472 434.255 C 499.816 432.885, 499.963 431.638, 499.799 431.484 C 499.634 431.329, 493.714 435.429, 486.642 440.594 M 23.258 449.778 C 18.726 452.375, 15.013 454.828, 15.008 455.228 C 15.001 455.906, 29.340 447.723, 31.450 445.845 C 33.296 444.203, 31.410 445.109, 23.258 449.778 M 487.500 458.077 C 476.254 466.881, 475.202 467.998, 481.500 464.446 C 493.036 457.941, 497 455.017, 497 453.012 C 497 451.906, 496.887 451.007, 496.750 451.016 C 496.613 451.024, 492.450 454.202, 487.500 458.077 M 26.762 460.098 L 18.025 465.147 19.576 468.147 C 21.120 471.132, 21.140 471.138, 23.814 469.384 C 25.291 468.415, 29.053 466.100, 32.173 464.240 C 37.671 460.962, 37.815 460.767, 36.825 457.929 C 36.264 456.318, 35.736 455.011, 35.652 455.024 C 35.568 455.038, 31.568 457.321, 26.762 460.098 M 34.674 474.149 C 28.925 477.471, 26.189 479.589, 26.826 480.226 C 27.812 481.212, 45.927 471.302, 45.976 469.750 C 46.028 468.132, 43.144 469.255, 34.674 474.149 M 177 470.300 C 177 471.015, 177.442 472.042, 177.983 472.583 C 178.626 473.226, 170.881 478.213, 155.538 487.033 L 132.110 500.500 137.334 500.793 C 142.512 501.084, 142.769 500.954, 166.827 485.882 C 183.301 475.561, 190.679 470.413, 189.798 469.854 C 187.583 468.449, 177 468.818, 177 470.300 M 195.185 470.750 C 195.668 473.301, 200.925 473.466, 204 471.027 L 206.500 469.044 200.677 469.022 C 195.665 469.003, 194.900 469.244, 195.185 470.750 M 227 470.404 C 227 473.106, 230.271 474.009, 233.825 472.288 C 235.602 471.427, 236.931 470.618, 236.778 470.490 C 236.625 470.361, 234.363 469.946, 231.750 469.567 C 227.857 469.002, 227 469.153, 227 470.404 M 119.192 470.713 C 117.509 471.035, 117.158 471.485, 117.895 472.374 C 118.651 473.284, 112.786 477.122, 94.703 487.546 C 70.729 501.368, 70.540 501.503, 74.738 501.807 C 78.167 502.055, 79.693 501.559, 82.738 499.204 C 84.807 497.603, 95.612 490.754, 106.750 483.984 C 117.888 477.213, 127 471.297, 127 470.837 C 127 469.982, 123.326 469.923, 119.192 470.713 M 134.638 471.500 C 135.375 473.419, 140.039 473.438, 142.559 471.532 C 144.347 470.180, 144.088 470.061, 139.281 470.032 C 135.046 470.006, 134.171 470.283, 134.638 471.500 M 124.017 485.592 L 97.535 501 105.285 501 L 113.035 501 134.482 487.500 C 146.278 480.075, 156.282 473.997, 156.714 473.993 C 157.146 473.990, 158.850 473.093, 160.500 472 L 163.500 470.013 157 470.099 L 150.500 470.185 124.017 485.592 M 249.244 471.250 C 249.865 473.142, 254.686 473.333, 257.210 471.565 C 259.358 470.061, 259.239 470, 254.139 470 C 250.342 470, 248.950 470.355, 249.244 471.250 M 269.872 471.331 C 271.394 473.181, 274.694 473.490, 277 472 C 278.306 471.156, 278.289 471.029, 276.875 471.015 C 275.981 471.007, 273.731 470.699, 271.875 470.331 C 268.808 469.724, 268.625 469.815, 269.872 471.331 M 93.500 472 C 93.151 472.565, 93.970 473, 95.382 473 C 96.757 473, 98.160 472.550, 98.500 472 C 98.849 471.435, 98.030 471, 96.618 471 C 95.243 471, 93.840 471.450, 93.500 472 M 268.810 485.750 L 243.131 500.500 248.539 500.799 C 252.678 501.028, 254.600 500.631, 256.724 499.110 C 265.265 492.991, 295.684 473.866, 297.666 473.369 C 300.881 472.562, 300.603 471, 297.244 471 C 295.522 471, 284.860 476.531, 268.810 485.750 M 316.510 487.604 C 293.615 500.945, 293.540 501, 298.198 501 C 302.500 501, 304.422 499.989, 322.187 488.377 C 343.807 474.247, 344.197 473.958, 341.450 474.104 C 340.377 474.161, 329.155 480.236, 316.510 487.604 M 343.778 487.841 L 322.056 500.500 329.666 500.795 C 335.960 501.038, 337.641 500.765, 339.388 499.215 C 340.550 498.185, 348.250 492.697, 356.500 487.021 C 364.750 481.345, 371.928 476.318, 372.450 475.850 C 372.989 475.368, 371.691 475.039, 369.450 475.091 C 366.290 475.163, 361.158 477.712, 343.778 487.841 M 398.634 488.341 L 377.769 500.500 382.831 500.800 C 387.874 501.100, 387.955 501.056, 404.697 488.905 C 413.938 482.197, 421.688 476.549, 421.917 476.354 C 422.146 476.159, 421.696 476.041, 420.917 476.091 C 420.137 476.141, 410.110 481.653, 398.634 488.341 M 427.196 488.770 L 406.891 500.500 412.828 500.795 L 418.765 501.089 432.133 490.425 C 445.732 479.575, 448.793 476.984, 447.964 477.020 C 447.709 477.032, 438.363 482.319, 427.196 488.770 M 38.500 486 C 35.750 487.631, 33.870 488.974, 34.322 488.983 C 35.300 489.003, 44 483.989, 44 483.405 C 44 482.764, 43.779 482.869, 38.500 486 M 198.544 491.794 C 190.016 496.753, 184.311 500.629, 185.271 500.814 C 186.196 500.992, 188.426 500.056, 190.227 498.733 C 192.027 497.410, 198.113 493.514, 203.750 490.074 C 209.387 486.634, 214 483.635, 214 483.410 C 214 482.790, 214.486 482.526, 198.544 491.794 M 175.189 492.769 C 167.667 497.138, 162.590 500.647, 163.514 500.838 C 164.413 501.023, 165.903 500.526, 166.824 499.733 C 167.746 498.940, 173.113 495.482, 178.750 492.048 C 187.470 486.738, 190.055 484.920, 188.750 485.019 C 188.613 485.029, 182.510 488.517, 175.189 492.769 M 282.519 494.773 C 277.030 497.912, 273.216 500.611, 274.044 500.770 C 275.228 500.998, 290.469 491.864, 292.808 489.526 C 294.003 488.331, 292.007 489.349, 282.519 494.773 M 364 495.523 C 358.016 498.963, 355.315 500.988, 356.702 500.992 C 357.913 500.997, 361.963 498.900, 365.702 496.334 C 377.604 488.165, 377.162 487.954, 364 495.523" stroke="none" fill="#33558b" fill-rule="evenodd"/></svg>