<svg xmlns="http://www.w3.org/2000/svg" width="512" height="512" viewBox="0 0 512 512" version="1.1"><path d="M 253.211 15.250 C 252.642 15.938, 250.391 20.550, 248.210 25.500 C 246.028 30.450, 240.340 42.741, 235.569 52.813 C 230.799 62.886, 227.020 71.886, 227.173 72.813 C 227.325 73.741, 227.052 75.135, 226.566 75.912 C 225.953 76.891, 226.378 77.887, 227.952 79.162 C 231.274 81.853, 239.031 81.623, 243.770 78.694 C 245.821 77.426, 249.750 75.106, 252.500 73.537 C 257.362 70.765, 257.446 70.752, 255.529 73.093 C 254.445 74.417, 252.452 76.733, 251.102 78.240 C 249.751 79.746, 248.846 81.179, 249.091 81.424 C 249.335 81.668, 257.761 82.011, 267.815 82.184 L 286.094 82.500 285.441 78.500 C 284.805 74.602, 281.492 64.159, 280.613 63.280 C 280.371 63.038, 278.897 63.638, 277.337 64.612 L 274.500 66.384 277.117 63.442 L 279.734 60.500 277.301 55.250 C 275.049 50.392, 274.705 50.086, 272.684 51.146 C 270.554 52.263, 270.544 52.241, 272.290 50.272 C 274.030 48.311, 273.936 47.987, 269.040 38.977 C 266.268 33.874, 264 29.299, 264 28.810 C 264 27.333, 260.014 19.998, 259.230 20.032 C 258.828 20.049, 257.626 20.724, 256.559 21.532 C 253.211 24.064, 252.657 23.139, 255.381 19.567 C 256.822 17.678, 258 15.653, 258 15.067 C 258 13.590, 254.473 13.725, 253.211 15.250 M 86 75 C 84.903 75.709, 85.658 75.973, 88.809 75.985 C 91.430 75.994, 92.876 75.608, 92.500 75 C 91.716 73.731, 87.963 73.731, 86 75 M 422.500 75.657 C 420.549 77.211, 420.561 77.235, 423 76.639 C 424.375 76.302, 426.625 76.014, 428 75.998 C 429.983 75.975, 430.190 75.769, 429 75 C 426.859 73.616, 424.800 73.824, 422.500 75.657 M 86.336 83.567 C 85.311 86.237, 86.851 95.254, 90.057 105.359 L 93.137 115.068 98.818 111.881 L 104.500 108.693 101.469 112.097 C 94.338 120.104, 94.644 118.873, 97.875 126.589 C 101.402 135.013, 106.976 147.310, 107.509 147.842 C 107.723 148.056, 111.184 146.373, 115.199 144.102 L 122.500 139.972 116.182 145.736 C 111.652 149.869, 110.045 151.969, 110.504 153.159 C 110.997 154.437, 115.334 150.645, 129.374 136.659 C 149.410 116.701, 152.662 112.049, 149.948 107.219 C 148.392 104.449, 140.656 100.092, 136.836 99.834 C 134.771 99.694, 130.662 101.774, 118 109.368 L 114.500 111.467 116.500 108.846 C 117.600 107.404, 120.251 104.137, 122.391 101.587 C 124.531 99.036, 126.106 96.817, 125.891 96.655 C 125.676 96.494, 122.708 95.540, 119.295 94.536 C 113.317 92.777, 112.988 92.777, 110.295 94.510 L 107.500 96.310 109.382 94.180 C 111.245 92.073, 111.235 92.040, 108.382 90.955 C 100.520 87.965, 97.289 87.581, 94.635 89.319 C 91.108 91.631, 90.819 91.479, 91.529 87.695 C 92.070 84.814, 91.815 84.237, 89.541 83.201 C 87.366 82.210, 86.833 82.271, 86.336 83.567 M 407.404 86.345 C 402.402 88.120, 391.983 93.221, 384.251 97.680 C 370.272 105.742, 370.205 105.768, 372.267 102.272 L 374.341 98.757 371.920 99.493 C 364.540 101.735, 359.603 106.825, 361.068 110.680 C 362.416 114.224, 365.307 117.932, 366.750 117.969 C 367.438 117.986, 368.004 118.563, 368.010 119.250 C 368.015 119.938, 371.137 123.317, 374.948 126.760 L 381.876 133.021 387.188 129.945 L 392.500 126.870 388 130.865 L 383.500 134.860 387.155 138.568 L 390.810 142.277 395.405 139.709 C 397.932 138.296, 400 137.318, 400 137.536 C 400 137.753, 398.608 139.516, 396.907 141.453 L 393.813 144.977 396.869 148.834 C 401.539 154.731, 402.846 155.608, 403.612 153.363 C 403.961 152.338, 408.048 142.531, 412.693 131.568 C 422.975 107.303, 426 98.265, 426 91.807 C 426 81.847, 422.762 80.896, 407.404 86.345 M 350.015 103.954 C 348.648 105.004, 347.784 106.117, 348.094 106.428 C 348.405 106.738, 349.714 105.869, 351.004 104.496 C 353.792 101.528, 353.431 101.329, 350.015 103.954 M 256.500 117 L 253.500 118.987 259.250 118.993 C 265.040 119, 266.007 118.407, 263.800 116.200 C 262.086 114.486, 259.940 114.721, 256.500 117 M 235.518 118.546 L 231.537 120.903 237.518 120.369 C 245.756 119.633, 246.524 119.336, 244.990 117.488 C 243.280 115.428, 240.205 115.771, 235.518 118.546 M 277.102 118.400 C 274.780 119.687, 274.854 119.751, 279.444 120.439 C 284.904 121.258, 285.739 120.882, 283.476 118.619 C 281.538 116.681, 280.282 116.637, 277.102 118.400 M 293.169 121.874 C 292.233 122.468, 292.789 122.908, 295.044 123.359 C 299.758 124.302, 300.383 124.166, 299 122.500 C 297.622 120.840, 295.209 120.581, 293.169 121.874 M 202.759 126.354 C 194.704 130.976, 194.857 131.091, 204.547 127.702 C 210.277 125.699, 212.695 124.422, 211.816 123.865 C 209.788 122.579, 208.925 122.817, 202.759 126.354 M 230 124.941 C 224.787 126.045, 219.394 127.986, 216.052 129.961 C 212.932 131.805, 211.220 132.440, 212.045 131.446 C 213.362 129.858, 213.273 129.778, 210.992 130.499 C 190.927 136.838, 164.521 157.306, 151.151 176.884 C 145.722 184.834, 141.344 192.420, 141.123 194.261 C 141.073 194.679, 140.286 196.160, 139.373 197.553 C 137.280 200.749, 130.048 221.752, 130.020 224.718 C 130.002 226.714, 131.494 226.064, 144.941 218.218 C 159.873 209.505, 159.886 209.495, 166.126 200.683 C 179.060 182.419, 197.376 165.384, 211.687 158.309 C 218.406 154.987, 220.469 154.454, 227.815 154.142 C 234.203 153.871, 236.138 154.085, 235.824 155.027 C 235.597 155.710, 230.481 158.949, 224.455 162.226 C 199.207 175.956, 182.940 189.267, 173.329 204.058 C 168.472 211.533, 164.310 220.643, 165.300 221.633 C 165.581 221.914, 167.541 221.058, 169.656 219.730 C 174.699 216.562, 178 214.829, 178 215.347 C 178 215.577, 175.099 217.655, 171.554 219.965 C 163.420 225.264, 163.056 225.732, 162.338 231.791 C 161.583 238.165, 161.117 238.852, 156.447 240.457 C 151.915 242.015, 150.382 241.607, 148.697 238.391 L 147.455 236.020 137.477 242.667 C 131.990 246.323, 127.169 249.806, 126.765 250.407 C 125.868 251.741, 125.750 261, 126.630 261 C 127.176 261, 150.955 247.461, 158 243.139 C 159.375 242.295, 160.188 241.968, 159.807 242.412 C 159.426 242.856, 152.001 247.807, 143.307 253.415 L 127.500 263.612 127.186 267.942 C 126.703 274.600, 127.877 274.823, 136.679 269.744 C 151.594 261.137, 152.496 260.643, 151.767 261.469 C 151.364 261.926, 145.964 265.561, 139.767 269.547 L 128.500 276.794 128.820 280.611 C 128.996 282.710, 129.446 284.972, 129.820 285.638 C 130.285 286.467, 140.598 281.018, 162.500 268.371 C 205.178 243.726, 203.637 244.599, 202.500 245.719 C 201.950 246.260, 185.863 256.942, 166.750 269.457 C 147.637 281.971, 132 292.752, 132 293.414 C 132 294.076, 134.228 295.331, 136.951 296.202 L 141.903 297.785 165.201 284.317 C 192.751 268.392, 192 268.811, 192 269.369 C 192 269.610, 188.287 272.185, 183.750 275.090 C 179.213 277.995, 168.987 284.615, 161.027 289.801 L 146.555 299.230 152.788 301.573 L 159.022 303.917 174.761 294.851 C 183.417 289.865, 191.963 284.897, 193.750 283.811 C 195.537 282.725, 197 282.058, 197 282.329 C 197 282.600, 189.357 287.699, 180.016 293.660 C 164.333 303.669, 161.311 306, 164.016 306 C 164.575 306, 169.339 308.012, 174.603 310.472 L 184.173 314.944 210.336 299.840 C 247.047 278.648, 247.211 278.774, 212.518 301.516 L 188.535 317.236 195.018 320.526 C 201.453 323.792, 201.522 323.803, 204.500 322.023 C 206.150 321.036, 213.575 316.742, 221 312.481 C 228.425 308.219, 236.075 303.821, 238 302.706 C 245.537 298.343, 238.699 303.229, 222.187 314.005 C 203.197 326.398, 203.701 325.593, 212 330.296 L 216.500 332.846 235.500 321.856 C 262.440 306.274, 263.614 305.618, 262.500 306.753 C 261.950 307.313, 252.387 313.928, 241.250 321.451 C 230.113 328.975, 221 335.284, 221 335.472 C 221 336.116, 231.005 343, 231.941 343 C 232.705 343, 250.398 333.056, 268 322.733 C 275.488 318.341, 268.737 323.261, 252.212 334.239 L 234.924 345.723 244.120 353.111 C 249.178 357.175, 254.258 361.235, 255.408 362.134 C 257.421 363.706, 257.899 363.446, 268 355.283 C 286.388 340.422, 305.570 328.307, 330.500 315.809 C 338.750 311.674, 347.750 307.493, 350.500 306.518 C 353.250 305.543, 360.900 302.838, 367.500 300.505 C 380.004 296.086, 381.741 294.705, 382.385 288.671 C 382.517 287.430, 382.887 285.984, 383.207 285.458 C 384.250 283.741, 386.188 269.585, 385.839 266.227 L 385.500 262.954 370.500 271.607 C 362.250 276.366, 347.063 285.135, 336.750 291.095 C 326.438 297.054, 318 301.744, 318 301.517 C 318 301.289, 333.532 290.669, 352.517 277.917 L 387.033 254.731 386.381 249.615 C 386.022 246.802, 385.667 244.415, 385.592 244.311 C 385.517 244.207, 369.715 253.223, 350.477 264.348 C 308.748 288.478, 303.189 291.614, 304.500 290.289 C 305.050 289.733, 323.152 277.489, 344.727 263.080 C 366.303 248.671, 384.165 236.542, 384.421 236.127 C 384.678 235.712, 384.351 233.292, 383.694 230.749 L 382.500 226.125 350.500 244.629 C 332.900 254.806, 316.587 264.247, 314.250 265.609 C 303.549 271.842, 312.703 265.496, 345.505 243.940 C 383.861 218.736, 381.594 220.793, 378.626 213.874 L 377.500 211.249 337 234.686 C 314.725 247.576, 295.600 258.601, 294.500 259.184 C 289.082 262.058, 297.780 256.135, 334.500 231.949 C 356.500 217.459, 374.686 205.468, 374.914 205.304 C 375.392 204.959, 367.834 190.015, 366.886 189.429 C 366.539 189.215, 355.286 195.380, 341.878 203.128 C 309.251 221.984, 308.412 222.458, 309.079 221.682 C 309.397 221.312, 321.749 213.201, 336.528 203.658 C 351.306 194.115, 363.537 185.888, 363.708 185.376 C 363.878 184.865, 362.776 182.980, 361.259 181.187 L 358.500 177.928 334.500 191.772 C 321.300 199.386, 308.363 206.870, 305.750 208.403 C 303.137 209.936, 301 210.975, 301 210.712 C 301 210.449, 313.375 202.225, 328.500 192.437 C 343.625 182.648, 356 174.359, 356 174.016 C 356 173.673, 354.538 171.994, 352.750 170.284 L 349.500 167.175 312 188.864 C 291.375 200.792, 273.938 210.904, 273.250 211.335 C 272.563 211.766, 272 211.954, 272 211.754 C 272 211.554, 288.422 200.615, 308.493 187.445 C 328.564 174.275, 344.989 163.050, 344.993 162.500 C 344.997 161.950, 343.483 160.290, 341.629 158.811 L 338.259 156.121 327.879 162.115 C 322.171 165.411, 315.587 169.228, 313.250 170.596 C 304.653 175.629, 309.353 172.028, 321.250 164.467 C 337.229 154.313, 336.934 154.603, 333.918 152.029 C 328.998 147.831, 329.257 147.767, 313 157.155 C 289.034 170.995, 288.436 171.329, 289.500 170.280 C 290.050 169.737, 298.375 164.220, 308 158.020 C 317.625 151.820, 325.622 146.644, 325.770 146.520 C 326.205 146.155, 318.135 141, 317.129 141 C 316.627 141, 303.694 148.237, 288.390 157.082 C 247.536 180.692, 247.410 180.673, 283.973 156.404 C 298.808 146.557, 310.808 138.050, 310.640 137.500 C 310.472 136.950, 308.307 135.659, 305.829 134.632 L 301.324 132.764 278.412 146.004 C 265.810 153.285, 255.162 159.440, 254.750 159.681 C 254.338 159.921, 254 159.934, 254 159.709 C 254 159.484, 263.439 153.045, 274.976 145.400 C 286.513 137.755, 295.963 131.234, 295.976 130.908 C 295.989 130.583, 293.393 129.527, 290.206 128.563 L 284.413 126.808 278.956 130.002 C 275.955 131.758, 271.925 134.123, 270 135.258 C 264.558 138.464, 267.754 135.755, 275.338 130.732 L 282.176 126.203 277.039 125.102 C 269.156 123.411, 267.713 123.679, 259.833 128.297 C 239.796 140.038, 238.190 140.438, 254.492 129.627 L 264.485 123 251.492 123.070 C 243.048 123.116, 235.525 123.771, 230 124.941 M 142.873 222.056 L 128.247 231.868 127.541 237.518 C 127.153 240.626, 127.013 243.346, 127.230 243.563 C 127.447 243.780, 132.459 241.155, 138.367 237.729 C 148.859 231.645, 149.163 231.368, 151.414 225.820 C 152.682 222.696, 154.701 218.477, 155.901 216.444 C 157.100 214.411, 157.950 212.635, 157.791 212.496 C 157.631 212.357, 150.918 216.659, 142.873 222.056 M 432 233.896 C 432 247.310, 432.685 251.335, 434.830 250.512 C 436.138 250.010, 436.116 250.214, 434.694 251.786 C 433.412 253.202, 433 255.523, 433 261.329 C 433 265.548, 433.234 269, 433.520 269 C 433.806 269, 435.943 267.827, 438.270 266.394 L 442.500 263.788 437.683 268.144 C 433.099 272.289, 431.105 276.486, 431.024 282.161 C 430.980 285.187, 441.909 281.686, 453.805 274.863 C 459.687 271.489, 464.950 268.499, 465.500 268.220 C 466.050 267.940, 464.505 269.790, 462.066 272.331 L 457.632 276.951 466.066 274.380 C 484.755 268.683, 496 262.455, 496 257.801 C 496 255.916, 495.747 255.955, 491.250 258.538 L 486.500 261.266 490.365 257.223 L 494.231 253.180 489.965 250.090 C 487.619 248.390, 485.205 247.002, 484.600 247.005 C 483.995 247.008, 478.353 249.951, 472.063 253.544 L 460.626 260.078 467.448 253.827 C 471.200 250.389, 475.388 246.696, 476.756 245.620 L 479.242 243.664 474.871 241.377 C 469.811 238.730, 467.231 238.470, 464.473 240.330 C 463.388 241.061, 459.800 243.151, 456.500 244.974 L 450.500 248.289 455.750 242.863 C 458.637 239.879, 461 236.947, 461 236.348 C 461 235.749, 455.989 233.172, 449.864 230.620 C 441.191 227.008, 438.421 226.236, 437.341 227.132 C 436.252 228.035, 436.075 227.968, 436.516 226.820 C 436.870 225.896, 436.141 224.930, 434.539 224.200 L 432 223.043 432 233.896 M 54.349 233.337 C 45.082 237.922, 32.920 243.611, 27.323 245.979 C 16.067 250.742, 14.647 252.482, 17.504 258.009 C 19.259 261.401, 20.502 261.671, 24.027 259.424 C 26.211 258.032, 26.182 258.121, 23.780 260.188 L 21.060 262.528 25.676 265.448 C 30.248 268.340, 30.323 268.351, 33.381 266.596 L 36.470 264.823 34.574 266.918 C 33.532 268.070, 32.864 269.162, 33.089 269.345 C 34.010 270.091, 46.784 274.866, 50.618 275.898 C 54.341 276.900, 55.206 276.750, 59.618 274.339 L 64.500 271.673 61.591 274.807 C 59.419 277.147, 59.039 278.063, 60.091 278.421 C 62.962 279.400, 69.606 280.945, 73 281.424 C 74.925 281.696, 77.464 282.202, 78.643 282.548 L 80.786 283.177 80.374 263.839 C 79.782 236.082, 79.228 228.796, 77.498 225.996 C 76.044 223.645, 70.176 225.506, 54.349 233.337 M 56.500 289 C 56.840 289.550, 58.104 289.993, 59.309 289.985 C 61.090 289.972, 61.219 289.788, 60 289 C 58.030 287.727, 55.713 287.727, 56.500 289 M 77.750 294.324 C 72.583 298.554, 75.321 299.406, 81.962 295.633 C 85.850 293.425, 85.974 293.225, 83.814 292.647 C 80.705 291.814, 80.871 291.768, 77.750 294.324 M 132.500 308.247 C 129.350 310.539, 128.041 312, 128.015 313.250 C 127.989 314.543, 129.332 314.078, 134.985 310.836 C 139.713 308.125, 140.196 307.584, 138.485 306.916 C 135.729 305.839, 135.843 305.814, 132.500 308.247 M 360.440 309.837 C 353.221 312.755, 348.343 315.816, 336.440 324.897 C 322.083 335.849, 318.284 338.920, 320.500 337.779 C 337.640 328.954, 374.072 305.879, 370.500 306.109 C 369.950 306.144, 365.423 307.822, 360.440 309.837 M 143.190 317.552 C 135.236 322.877, 132.952 325.286, 134.443 326.777 C 135.123 327.457, 136.681 326.671, 150.403 318.729 C 157.199 314.795, 157.268 314.713, 154.903 313.402 C 153.581 312.670, 152.271 312.055, 151.991 312.035 C 151.711 312.016, 147.751 314.498, 143.190 317.552 M 158.730 324.413 C 148.885 331.120, 147.880 332.230, 155.500 327.982 C 163.673 323.425, 169 320.073, 169 319.487 C 169 318.081, 165.710 319.659, 158.730 324.413 M 180.226 334.416 C 171.786 340.199, 171.257 341.001, 178.585 336.903 C 186.843 332.285, 189.866 330.103, 188 330.111 C 187.175 330.114, 183.677 332.051, 180.226 334.416 M 183.821 349.311 C 167.900 359.992, 161.485 364.734, 169 360.267 C 170.925 359.123, 179.369 354.207, 187.764 349.343 C 196.159 344.479, 203.045 340.050, 203.067 339.500 C 203.166 336.953, 199.321 338.913, 183.821 349.311 M 200.735 354.879 C 193.164 359.729, 186.639 364.079, 186.235 364.546 C 185.831 365.013, 186.625 364.714, 188 363.883 C 189.375 363.051, 196.232 359.085, 203.238 355.070 C 210.244 351.055, 215.730 347.371, 215.429 346.885 C 215.128 346.398, 214.796 346.014, 214.691 346.030 C 214.586 346.047, 208.306 350.029, 200.735 354.879 M 283.500 352.945 C 282.400 353.396, 280.600 354.785, 279.500 356.032 C 277.738 358.030, 278.006 357.969, 281.750 355.517 C 286.896 352.148, 287.454 351.327, 283.500 352.945 M 207.896 364.061 C 198.878 370.065, 191.355 375.657, 191.177 376.489 C 190.999 377.320, 191.139 378, 191.488 378 C 192.168 378, 226.962 358.140, 228.301 356.987 C 228.742 356.608, 228.020 355.588, 226.697 354.721 C 224.356 353.187, 223.853 353.436, 207.896 364.061 M 300.080 369.523 C 288.299 376.353, 278.267 382.333, 277.787 382.813 C 277.291 383.309, 277.498 384.168, 278.266 384.806 C 279.320 385.680, 284.115 382.938, 300.059 372.341 C 329.707 352.637, 329.709 352.346, 300.080 369.523 M 321.581 372.529 C 307.875 380.491, 296.474 387.193, 296.245 387.422 C 296.016 387.651, 296.681 388.294, 297.722 388.851 C 299.299 389.695, 303.520 387.278, 323.057 374.340 C 355.248 353.023, 355.218 352.987, 321.581 372.529 M 218.752 373.750 C 209.549 379.663, 202.015 384.837, 202.010 385.250 C 201.987 387.006, 205.268 385.455, 222.083 375.758 C 235.654 367.933, 239.598 365.220, 238.799 364.258 C 238.225 363.566, 237.244 363, 236.619 363 C 235.995 363, 227.954 367.837, 218.752 373.750 M 231.260 381.237 C 223.428 386.251, 217.201 390.534, 217.421 390.754 C 218.044 391.377, 248 373.862, 248 372.875 C 248 370.955, 244.911 372.498, 231.260 381.237 M 246.500 385.558 C 238.150 391.235, 236.920 392.858, 239.407 394.923 C 240.638 395.944, 242.659 395.129, 250.959 390.264 L 261.020 384.367 258.695 382.184 C 257.417 380.983, 255.950 380.027, 255.436 380.060 C 254.921 380.093, 250.900 382.567, 246.500 385.558" stroke="none" fill="#f6cc24" fill-rule="evenodd"/><path d="M 248.322 6.882 C 238.375 14.087, 227.690 34.879, 215.533 70.682 L 211.736 81.864 213.652 85.182 C 214.706 87.007, 217.128 89.317, 219.034 90.316 C 222.624 92.197, 228.684 92.210, 248.853 90.383 C 253.500 89.962, 258.837 90.199, 263.353 91.027 C 273.281 92.846, 285.610 92.707, 290.228 90.722 C 297.907 87.423, 299.824 79.209, 295.915 66.355 C 294.769 62.585, 289.369 50.142, 283.915 38.704 C 278.462 27.266, 274 17.542, 274 17.095 C 274 15.574, 265.784 6.940, 262.935 5.466 C 258.315 3.078, 252.842 3.608, 248.322 6.882 M 253.211 15.250 C 252.642 15.938, 250.391 20.550, 248.210 25.500 C 246.028 30.450, 240.404 42.606, 235.711 52.514 C 231.019 62.422, 226.871 72.171, 226.494 74.178 C 225.303 80.531, 226.510 80.822, 258.030 81.759 C 273.139 82.208, 285.652 82.482, 285.837 82.367 C 286.023 82.252, 285.631 79.535, 284.965 76.329 C 283.544 69.478, 277.711 55.518, 270.412 41.500 C 267.548 36, 263.508 27.563, 261.435 22.750 C 257.663 13.996, 255.717 12.221, 253.211 15.250 M 80.035 77.241 C 78.116 77.938, 75.549 80.017, 74.285 81.898 C 70.636 87.324, 71.511 94.465, 77.381 107.173 C 79.264 111.251, 82.887 121.467, 85.430 129.876 C 87.973 138.285, 91.361 147.754, 92.959 150.919 C 96.406 157.748, 101.633 162.653, 106.419 163.551 C 111.766 164.554, 119.003 161.719, 121.878 157.496 C 123.186 155.575, 132.418 146.179, 142.394 136.615 C 160.474 119.283, 165.047 113.463, 164.965 107.890 C 164.873 101.715, 159.138 97.092, 146.500 93.005 C 141.550 91.404, 132.550 88.075, 126.500 85.606 C 106.725 77.537, 88.333 74.226, 80.035 77.241 M 418 77.466 C 408.364 79.426, 390.721 84.721, 380.500 88.720 C 347.290 101.712, 337.342 114.081, 353.500 122.290 C 357.904 124.528, 363.443 130.072, 374.314 143.127 C 389.750 161.663, 397.795 165.781, 408.417 160.584 C 413.384 158.154, 414.019 157.458, 415.591 152.709 C 416.540 149.844, 420.880 139.937, 425.237 130.694 C 435.015 109.946, 437.978 101.504, 438.640 92.500 C 439.082 86.505, 438.821 84.854, 436.828 81 C 434.568 76.631, 434.355 76.495, 429.500 76.322 C 426.750 76.224, 421.575 76.739, 418 77.466 M 86.349 83.534 C 83.998 89.658, 93.043 117.889, 105.622 143.692 L 111.078 154.884 129.341 136.692 C 149.400 116.712, 152.667 112.041, 149.948 107.239 C 147.919 103.656, 143.548 101.656, 127.488 96.963 C 110.028 91.860, 98.633 87.861, 92.052 84.527 C 87.613 82.277, 86.880 82.149, 86.349 83.534 M 397.500 89.916 C 370.041 99.773, 367.111 101.029, 363.377 104.551 C 360.304 107.449, 360.101 107.991, 361.058 110.737 C 361.668 112.487, 370.687 122.382, 382.590 134.361 C 398.462 150.335, 403.205 154.584, 403.660 153.237 C 403.983 152.282, 408.048 142.531, 412.693 131.568 C 422.975 107.303, 426 98.265, 426 91.807 C 426 80.781, 423.424 80.610, 397.500 89.916 M 235 120.503 C 222.588 122.023, 215.499 123.783, 201.135 128.911 C 188.819 133.307, 182.253 136.485, 172.500 142.769 C 142.638 162.011, 123.951 189.681, 116.292 226 C 114.061 236.581, 113.755 271.565, 115.800 282.367 C 116.514 286.144, 116.932 289.401, 116.728 289.605 C 116.048 290.285, 94.694 285.095, 93.589 283.981 C 92.856 283.242, 92.638 277.428, 92.923 266.192 C 93.815 231.050, 93.644 224.765, 91.701 221.206 C 89.698 217.536, 84.633 214.009, 81.359 214.004 C 80.182 214.002, 70.957 217.082, 60.859 220.849 C 19.705 236.203, 3 247.045, 3 258.404 C 3 261.734, 3.658 262.973, 7.258 266.421 C 9.600 268.665, 14.538 271.850, 18.231 273.500 C 21.925 275.150, 24.958 276.781, 24.973 277.125 C 24.988 277.469, 23.574 278.035, 21.831 278.384 C 18.492 279.052, 8.470 286.206, 7.084 288.911 C 6.637 289.785, 6.462 291.032, 6.696 291.683 C 6.930 292.333, 6.170 295.933, 5.007 299.683 C 0.935 312.812, 0.012 323.505, 0.015 357.500 C 0.017 375.100, 0.449 396.700, 0.975 405.500 C 3.530 448.201, 4.092 468.762, 3 479.499 C 2.174 487.625, 2.187 491.038, 3.056 493.135 C 4.368 496.302, 14.739 505.279, 16.108 504.433 C 16.601 504.129, 20.265 504.773, 24.252 505.864 C 36.700 509.272, 63.189 510.426, 96.698 509.021 C 112.539 508.357, 129.985 507.662, 135.466 507.478 C 140.948 507.294, 149.162 506.833, 153.721 506.453 C 159.725 505.953, 162.421 506.105, 163.504 507.003 C 164.688 507.986, 165.613 507.989, 167.965 507.015 C 170.035 506.157, 173.416 506.006, 179.159 506.514 C 187.317 507.236, 203.490 507.169, 226.391 506.317 C 234.023 506.033, 239.269 506.283, 241.038 507.016 C 243.249 507.931, 244.399 507.845, 246.848 506.579 C 250.882 504.492, 259.359 504.534, 262.597 506.656 C 264.949 508.196, 265.365 508.196, 268.596 506.656 C 272.314 504.883, 284 504.334, 284 505.933 C 284 507.734, 287.931 508.087, 290.900 506.552 C 294.837 504.516, 300.429 504.579, 303.660 506.697 C 306.044 508.259, 306.469 508.267, 309.027 506.799 C 311.279 505.507, 313.853 505.305, 322.652 505.733 C 328.618 506.022, 334.041 506.688, 334.702 507.212 C 335.471 507.822, 337.812 507.739, 341.202 506.982 C 345.134 506.104, 349.190 506.069, 356.931 506.847 C 362.668 507.423, 367.672 507.702, 368.052 507.468 C 368.432 507.233, 380.613 507.682, 395.121 508.467 C 440.773 510.934, 458.739 511.320, 469 510.051 C 487.205 507.800, 488.265 507.514, 496.720 502.571 C 504.807 497.843, 506.626 495.794, 505.453 492.737 C 505.127 491.888, 505.740 488.337, 506.816 484.846 C 511.498 469.658, 511.978 453.800, 510.673 357.500 C 510.162 319.788, 509.441 295.164, 508.784 293 C 506.307 284.835, 499.187 279.792, 488.200 278.419 L 482.787 277.743 491.090 273.840 C 500.930 269.215, 505.459 265.947, 507.501 261.998 C 513.691 250.027, 501.730 240.606, 456.064 221.485 C 439.168 214.410, 437.216 213.814, 432.703 214.349 C 425.498 215.202, 421.438 218.686, 419.374 225.785 C 417.954 230.669, 417.843 233.659, 418.605 246.497 C 419.095 254.748, 419.496 266.547, 419.498 272.716 C 419.500 285.997, 418.897 287.064, 411.194 287.410 C 408.415 287.535, 405.548 288.103, 404.821 288.672 C 403.455 289.743, 394.801 292.134, 394.258 291.591 C 394.089 291.422, 394.737 287.058, 395.698 281.892 C 398.228 268.288, 398.183 234.802, 395.620 223 C 391.512 204.089, 384.366 187.206, 375.093 174.500 C 345.347 133.745, 292.665 113.440, 235 120.503 M 231.622 124.489 C 206.623 129.695, 185.028 141.105, 166.923 158.673 C 147.270 177.743, 134.506 201.624, 128.957 229.700 C 125.366 247.870, 126.060 272.597, 130.623 289.080 L 132.168 294.661 140.706 297.365 C 155.056 301.910, 171.719 308.826, 188.500 317.202 C 197.300 321.594, 205.175 325.757, 206 326.454 C 206.825 327.151, 210.650 329.589, 214.500 331.872 C 223.790 337.380, 231.434 342.839, 243.395 352.504 C 248.838 356.902, 254.238 361.232, 255.395 362.126 C 257.422 363.691, 257.969 363.377, 270.187 353.626 C 277.165 348.057, 288.772 339.756, 295.980 335.181 C 309.191 326.795, 344.091 308, 346.452 308 C 347.152 308, 350.824 306.723, 354.612 305.163 C 358.401 303.602, 365.325 301.074, 370 299.544 C 374.675 298.014, 379.054 296.245, 379.731 295.614 C 384.202 291.446, 387.612 259.873, 385.482 242.373 C 383.656 227.380, 377.163 206.950, 370.744 196 C 349.128 159.130, 318.616 135.370, 280.732 125.904 C 269.797 123.172, 241.816 122.366, 231.622 124.489 M 215.892 156.354 C 212.808 157.623, 208.533 159.718, 206.392 161.010 C 185.229 173.782, 157.193 207.886, 149.941 229.677 C 146.757 239.246, 149.013 243.013, 156.406 240.471 C 160.798 238.961, 161.963 237.610, 161.985 233.997 C 162.005 230.755, 165.209 219.576, 167.794 213.732 C 175.904 195.399, 194.441 178.548, 224.455 162.226 C 230.481 158.949, 235.581 155.758, 235.789 155.134 C 236.527 152.920, 222.088 153.806, 215.892 156.354 M 432.191 248.828 C 432.361 262.947, 432.117 276.600, 431.649 279.166 L 430.798 283.833 435.149 282.861 C 445.657 280.513, 474.576 271.818, 481.590 268.898 C 489.902 265.438, 496 260.839, 496 258.031 C 496 251.734, 485.237 245.511, 445.691 228.941 L 431.883 223.156 432.191 248.828 M 54.349 233.337 C 45.082 237.922, 32.920 243.611, 27.323 245.979 C 19.252 249.394, 17.022 250.776, 16.551 252.652 C 14.423 261.130, 31.018 270.908, 60.181 278.359 C 67.507 280.231, 75.153 282.055, 77.174 282.412 L 80.847 283.062 80.409 265.781 C 79.396 225.853, 79.263 225, 74.064 225 C 72.486 225, 63.626 228.746, 54.349 233.337 M 28.254 287.250 C 27.709 287.938, 26.038 290.469, 24.540 292.876 L 21.816 297.252 27.158 294.203 C 30.096 292.526, 34.525 290, 37 288.589 L 41.500 286.024 35.372 286.012 C 31.652 286.005, 28.856 286.491, 28.254 287.250 M 442.744 305.405 C 414.094 324.608, 408.455 328.617, 417 323.708 C 419.475 322.286, 435.208 313.220, 451.962 303.561 L 482.425 286 476.962 286.066 C 471.566 286.131, 471.153 286.364, 442.744 305.405 M 48.479 296.137 L 40.500 304.280 46.500 300.938 C 60.502 293.139, 65.162 290.220, 64.356 289.756 C 63.885 289.485, 61.916 288.978, 59.979 288.629 C 56.607 288.022, 56.119 288.341, 48.479 296.137 M 443.071 288.737 C 440.743 289.020, 432.949 293.658, 418.821 303.168 C 407.369 310.876, 398 317.393, 398 317.650 C 398 317.907, 398.337 317.925, 398.750 317.690 C 423.191 303.733, 447.730 289.493, 448.450 288.850 C 449.019 288.341, 448.818 288.064, 447.950 288.160 C 447.152 288.248, 444.957 288.508, 443.071 288.737 M 464.712 309.429 C 440.745 325.224, 432.443 330.924, 436.500 328.796 C 442.294 325.758, 492.820 296.423, 493.787 295.536 C 495.008 294.415, 494.508 290.935, 493.143 291.058 C 492.789 291.090, 479.996 299.357, 464.712 309.429 M 77.162 294.982 C 75.326 296.668, 70.039 301.235, 65.412 305.132 C 60.785 309.028, 57 312.417, 57 312.664 C 57 312.911, 58.913 311.960, 61.250 310.550 C 63.587 309.140, 70.787 304.979, 77.250 301.305 C 83.713 297.630, 89 294.258, 89 293.812 C 89 293.365, 87.987 292.994, 86.750 292.986 C 85.513 292.979, 83.600 292.735, 82.500 292.445 C 81.164 292.092, 79.392 292.934, 77.162 294.982 M 373.500 305.161 C 355.915 311.038, 351.633 313.316, 336.591 324.796 C 328.291 331.130, 321.050 336.760, 320.500 337.306 C 319.333 338.466, 327.210 334.122, 342 325.450 C 380.295 302.995, 380.635 302.776, 373.500 305.161 M 106.858 321.784 C 94.406 330.978, 84.364 338.658, 84.543 338.852 C 84.723 339.045, 95.362 333.229, 108.185 325.928 C 121.008 318.627, 133.511 311.529, 135.970 310.156 L 140.440 307.658 136.970 306.405 C 135.061 305.716, 132.600 305.133, 131.500 305.110 C 130.400 305.087, 119.311 312.590, 106.858 321.784 M 476.282 318.823 C 447.118 338.060, 447.118 338.132, 476.250 321.465 C 491.147 312.942, 497 309.087, 497 307.797 C 497 306.809, 496.663 306.033, 496.250 306.073 C 495.837 306.113, 486.852 311.851, 476.282 318.823 M 17.760 310.294 C 15.481 311.638, 14.016 313.263, 14.010 314.453 C 14.002 316.061, 14.705 315.717, 18 312.500 C 23.428 307.199, 23.403 306.966, 17.760 310.294 M 147.482 314.665 C 138.383 320.755, 110.425 340.363, 109.500 341.303 C 108.950 341.863, 110.075 341.408, 112 340.292 C 122.109 334.436, 130.220 329.876, 136.500 326.519 C 140.350 324.460, 146.606 320.967, 150.403 318.755 C 157.201 314.794, 157.269 314.714, 154.903 313.402 C 151.750 311.655, 152.058 311.603, 147.482 314.665 M 158.730 324.413 C 148.885 331.120, 147.880 332.230, 155.500 327.982 C 163.673 323.425, 169 320.073, 169 319.487 C 169 318.081, 165.710 319.659, 158.730 324.413 M 25.306 323.861 C 17.633 328.437, 17.053 329.005, 20.083 328.979 C 21.505 328.967, 24.558 327.131, 27.500 324.518 C 30.250 322.075, 32.275 320.097, 32 320.122 C 31.725 320.147, 28.713 321.830, 25.306 323.861 M 493.250 323.115 C 489.841 325.298, 488.738 326.764, 491.750 325.108 C 494.044 323.847, 497.639 321.068, 497 321.049 C 496.725 321.040, 495.038 321.970, 493.250 323.115 M 178 336.061 C 173.325 339.334, 164.100 345.667, 157.500 350.135 C 146.651 357.480, 141.699 361.165, 144.500 359.809 C 145.050 359.543, 155.987 353.302, 168.805 345.940 C 189.287 334.175, 191.899 332.399, 190.364 331.277 C 189.404 330.575, 188.141 330.025, 187.559 330.056 C 186.976 330.086, 182.675 332.789, 178 336.061 M 183.500 349.625 C 159.349 365.929, 158.909 366.242, 159.427 366.760 C 159.684 367.017, 170.250 361.250, 182.908 353.945 C 203.132 342.273, 205.714 340.505, 204.211 339.363 C 203.270 338.648, 202.050 338.083, 201.500 338.106 C 200.950 338.129, 192.850 343.313, 183.500 349.625 M 479.244 356.386 C 464.477 366.050, 457.684 370.800, 461.500 368.795 C 463.192 367.906, 496.478 348.726, 496.838 348.432 C 497.025 348.281, 497.025 347.467, 496.838 346.625 C 496.591 345.506, 491.849 348.137, 479.244 356.386 M 37 358.030 C 25.725 364.594, 16.129 370.096, 15.676 370.257 C 15.223 370.418, 14.998 372.189, 15.176 374.193 L 15.500 377.837 36.500 362.319 C 48.050 353.785, 57.688 346.621, 57.917 346.401 C 59.124 345.239, 55.752 347.114, 37 358.030 M 200.735 354.879 C 193.164 359.729, 186.639 364.079, 186.235 364.546 C 185.831 365.013, 186.625 364.714, 188 363.883 C 189.375 363.051, 196.232 359.085, 203.238 355.070 C 210.244 351.055, 215.730 347.371, 215.429 346.885 C 215.128 346.398, 214.796 346.014, 214.691 346.030 C 214.586 346.047, 208.306 350.029, 200.735 354.879 M 283.500 353.020 C 282.400 353.512, 279.475 355.759, 277 358.015 L 272.500 362.116 279 357.463 C 287.344 351.491, 287.693 351.147, 283.500 353.020 M 203.892 366.706 C 180.508 382.263, 182.495 380.828, 183.268 381.601 C 183.598 381.931, 185.811 381.158, 188.184 379.883 C 195.525 375.939, 227.454 357.716, 228.301 356.987 C 228.742 356.608, 228.018 355.587, 226.693 354.718 C 224.341 353.178, 223.792 353.466, 203.892 366.706 M 300.080 369.523 C 288.299 376.353, 278.267 382.333, 277.787 382.813 C 277.291 383.309, 277.498 384.168, 278.266 384.806 C 279.320 385.680, 284.115 382.938, 300.059 372.341 C 329.707 352.637, 329.709 352.346, 300.080 369.523 M 322 372.345 C 286.280 393.184, 285.857 393.457, 287.227 394.827 C 287.872 395.472, 288.744 396, 289.165 396 C 290.057 396, 298.859 390.356, 326.500 372.060 C 354.856 353.292, 354.636 353.306, 322 372.345 M 483.499 368.621 C 463.960 381.590, 463.856 382.090, 483 371.037 C 496.814 363.061, 497.384 362.651, 496.861 361.084 C 496.661 360.484, 490.648 363.876, 483.499 368.621 M 219.445 373.335 C 202.527 384.258, 194.243 390, 195.400 390 C 196.630 390, 202.064 387.089, 221.179 376.187 C 235.534 368.001, 239.615 365.241, 238.807 364.267 C 238.228 363.570, 237.237 363, 236.603 363 C 235.969 363, 228.248 367.651, 219.445 373.335 M 33.543 379.602 C 23.666 385.366, 15.417 390.249, 15.212 390.455 C 15.006 390.660, 14.987 391.787, 15.169 392.958 C 15.461 394.839, 17.540 393.669, 33 382.921 C 58.306 365.326, 58.338 365.131, 33.543 379.602 M 231.260 381.237 C 223.428 386.251, 217.201 390.534, 217.421 390.754 C 218.044 391.377, 248 373.862, 248 372.875 C 248 370.955, 244.911 372.498, 231.260 381.237 M 235.380 393.283 C 221.724 402.723, 216.661 406.734, 217.663 407.318 C 218.588 407.857, 221.871 406.514, 227.283 403.383 C 231.802 400.768, 238.650 396.970, 242.500 394.943 C 246.350 392.915, 252.082 389.697, 255.239 387.792 L 260.977 384.327 258.674 382.164 C 257.407 380.974, 255.950 380.015, 255.436 380.033 C 254.921 380.051, 245.896 386.014, 235.380 393.283 M 487.082 392.815 C 479.601 397.867, 478.959 398.535, 481.306 398.814 C 482.943 399.008, 486.426 397.741, 490.473 395.478 C 495.698 392.556, 497 391.346, 497 389.414 C 497 388.086, 496.663 387.029, 496.250 387.065 C 495.837 387.101, 491.712 389.688, 487.082 392.815 M 168.250 390.115 C 163.737 393.005, 164.156 393.670, 168.750 390.908 C 173.399 388.112, 173.546 387.996, 172.417 388.017 C 171.912 388.026, 170.037 388.970, 168.250 390.115 M 248.158 404.185 C 237.520 411.315, 229.017 417.350, 229.262 417.595 C 230.044 418.377, 267.170 396.448, 268.210 394.589 C 270.821 389.924, 265.975 392.243, 248.158 404.185 M 324.723 404.164 C 308.379 413.654, 304.177 416.509, 305.032 417.539 C 305.892 418.575, 310.123 416.233, 325.309 406.314 C 343.107 394.690, 347.113 391.922, 345.950 392.049 C 345.702 392.077, 336.150 397.528, 324.723 404.164 M 300.250 401.675 C 297.913 403.036, 296 404.566, 296 405.075 C 296 406.705, 297.404 406.053, 301.500 402.523 C 306.198 398.474, 305.989 398.333, 300.250 401.675 M 267.921 407.675 C 258.920 413.641, 255.244 416.626, 261 413.295 C 262.925 412.181, 267.425 409.587, 271 407.532 C 278.651 403.134, 278.375 403.350, 277.238 402.647 C 276.745 402.343, 272.553 404.605, 267.921 407.675 M 481.494 413.625 C 468.630 422.163, 463.240 426.221, 470 422.279 C 471.925 421.156, 478.788 417.222, 485.250 413.535 C 496.073 407.362, 498.977 405, 495.744 405 C 495.053 405, 488.641 408.881, 481.494 413.625 M 458.226 412.416 C 449.817 418.178, 449.241 419.031, 456.500 414.971 C 467.631 408.747, 468.709 408.002, 466.500 408.062 C 465.400 408.092, 461.677 410.051, 458.226 412.416 M 33.094 418.979 C 16.126 428.818, 16.518 428.531, 15.521 431.826 C 14.958 433.687, 18.181 431.914, 31.659 422.949 C 40.921 416.788, 48.928 411.354, 49.450 410.874 C 52.209 408.337, 46.975 410.931, 33.094 418.979 M 268.956 421.610 C 253.751 432.064, 249.443 435.300, 253.500 433.219 C 256.042 431.916, 285.384 414.910, 285.842 414.475 C 286.030 414.296, 285.785 413.438, 285.297 412.567 C 284.559 411.247, 281.843 412.750, 268.956 421.610 M 197.921 418.675 C 188.920 424.641, 185.244 427.626, 191 424.295 C 192.925 423.181, 197.425 420.587, 201 418.532 C 208.651 414.134, 208.375 414.350, 207.238 413.647 C 206.745 413.343, 202.553 415.605, 197.921 418.675 M 37.758 432.315 C 17.213 444.226, 12.447 447.780, 14.400 449.733 C 14.919 450.252, 61 420.205, 61 419.348 C 61 418.819, 61.930 418.300, 37.758 432.315 M 483 428.100 C 470.289 436.948, 467.141 439.608, 474 435.706 C 491.990 425.474, 495.530 423.201, 495.819 421.699 C 495.999 420.765, 495.776 420.022, 495.323 420.048 C 494.870 420.075, 489.325 423.698, 483 428.100 M 284.489 427.630 C 278.152 431.829, 273.855 435.137, 276.500 433.781 C 280.641 431.657, 294 423.743, 294 423.412 C 294 422.069, 290.623 423.567, 284.489 427.630 M 340.500 434.504 C 331.700 439.678, 324.050 444.100, 323.500 444.331 C 322.836 444.609, 322.839 445.114, 323.510 445.835 C 324.221 446.599, 329.111 443.940, 340.010 436.864 C 354.315 427.577, 358.122 424.922, 356.950 425.048 C 356.702 425.075, 349.300 429.330, 340.500 434.504 M 481.500 446.643 C 473.250 452.991, 465.375 459.090, 464 460.198 L 461.500 462.211 464 460.762 C 465.375 459.964, 473.363 455.361, 481.750 450.531 C 496.670 441.940, 497 441.677, 497 438.375 C 497 436.519, 496.887 435.023, 496.750 435.051 C 496.613 435.079, 489.750 440.295, 481.500 446.643 M 290.203 438.429 C 284.962 442.135, 285.085 442.591, 290.500 439.532 C 296.541 436.119, 296.709 435.987, 294.917 436.049 C 294.137 436.076, 292.016 437.147, 290.203 438.429 M 341.250 449.105 C 330.227 455.452, 327.013 458, 330.033 458 C 330.602 458, 335.889 454.791, 341.783 450.869 C 358.795 439.548, 358.655 439.084, 341.250 449.105 M 41.500 458.645 C 26.650 467.235, 14.317 474.425, 14.093 474.622 C 13.869 474.819, 14.094 475.832, 14.593 476.872 C 15.409 478.573, 18.130 477.042, 41.681 461.631 C 66.019 445.707, 70.010 442.978, 68.917 443.013 C 68.688 443.021, 56.350 450.055, 41.500 458.645 M 370.558 458.359 C 359.022 465.099, 353.633 468.876, 351.058 472.027 C 347.847 475.955, 349.355 475.126, 366.500 463.536 C 393.316 445.409, 393.817 444.769, 370.558 458.359 M 88.765 475.783 C 62.574 490.931, 46.775 500.621, 47.955 500.812 C 49.014 500.983, 52.495 500.651, 55.690 500.073 C 60.900 499.131, 65.140 496.579, 96.750 475.362 C 127.370 454.809, 133.047 450.863, 131.750 451.033 C 131.613 451.051, 112.269 462.188, 88.765 475.783 M 300.841 461.610 C 289.342 471.183, 288.384 472.078, 292 469.864 C 293.375 469.021, 297.762 466.438, 301.750 464.122 C 305.738 461.806, 309 459.272, 309 458.491 C 309 457.710, 309.900 456.589, 311 456 C 313.040 454.908, 313.734 453, 312.091 453 C 311.592 453, 306.529 456.874, 300.841 461.610 M 41.923 474.834 C 27.752 483.069, 18.509 489.027, 18.756 489.768 C 18.982 490.445, 19.542 491, 20 491 C 20.846 491, 63.703 463.562, 65.450 461.903 C 67.288 460.156, 65.293 461.253, 41.923 474.834 M 110.803 481.300 C 81.942 498.015, 81.220 498.509, 85.187 498.814 C 89.004 499.108, 90.951 498.008, 115.135 481.910 C 150.447 458.405, 150.355 458.392, 110.803 481.300 M 416.500 479.603 C 403.850 486.995, 390.800 494.593, 387.500 496.487 L 381.500 499.930 389 499.943 L 396.500 499.956 417.500 483.895 C 437.847 468.333, 440.902 465.909, 439.950 466.081 C 439.702 466.126, 429.150 472.211, 416.500 479.603 M 493 472.606 L 488.500 477.316 492.500 474.998 C 497.835 471.906, 498.245 471.489, 497.844 469.554 C 497.585 468.305, 496.391 469.056, 493 472.606 M 360 481.488 C 352.025 486.124, 345.355 490.611, 345.177 491.459 C 344.999 492.306, 345.264 493, 345.765 493 C 346.266 493, 352.712 488.896, 360.088 483.879 C 380.471 470.018, 380.456 469.597, 360 481.488 M 377.699 486.303 C 359.503 496.835, 355.427 499.565, 357.519 499.823 C 358.961 500.001, 361.347 499.725, 362.821 499.211 C 366.108 498.063, 402.899 472.824, 400.950 473.053 C 400.702 473.082, 390.239 479.045, 377.699 486.303 M 147.745 489.333 C 132.565 498.166, 132.125 498.512, 135.677 498.821 C 138.908 499.103, 140.960 498.056, 152.248 490.369 C 159.334 485.544, 165.353 481.237, 165.625 480.798 C 166.946 478.661, 162.163 480.944, 147.745 489.333 M 245.551 489.289 L 229.601 498.500 235.326 498.801 L 241.051 499.101 251.526 490.408 C 257.287 485.627, 262 481.329, 262 480.858 C 262 479.700, 263.355 479.006, 245.551 489.289 M 42.500 489.614 C 36.450 493.185, 30.829 496.498, 30.008 496.978 C 29.188 497.458, 28.809 498.143, 29.167 498.501 C 29.756 499.089, 54 484.347, 54 483.400 C 54 482.809, 54.355 482.618, 42.500 489.614 M 122.203 490.781 C 114.890 495.026, 109.609 498.647, 110.468 498.826 C 111.792 499.103, 136 484.452, 136 483.374 C 136 482.769, 136.063 482.735, 122.203 490.781 M 453.172 491.001 C 445.842 495.303, 439.579 499.087, 439.256 499.411 C 438.932 499.735, 441.104 500, 444.083 499.999 L 449.500 499.998 458.500 491.548 C 463.450 486.901, 467.275 483.117, 467 483.139 C 466.725 483.161, 460.502 486.699, 453.172 491.001 M 197.145 490.421 C 193.081 492.815, 190.276 495.053, 190.875 495.423 C 191.472 495.791, 194.556 494.207, 197.730 491.903 C 207.828 484.569, 207.687 484.213, 197.145 490.421 M 479.225 493.230 C 473.574 496.560, 469.074 499.372, 469.225 499.479 C 469.376 499.586, 472.659 499.477, 476.521 499.237 L 483.542 498.800 486.810 492.900 C 488.608 489.655, 489.948 487.040, 489.789 487.088 C 489.630 487.137, 484.876 489.901, 479.225 493.230 M 214 494.500 C 209.875 496.963, 207.340 498.983, 208.366 498.989 C 209.392 498.995, 212.542 497.347, 215.366 495.326 C 224.941 488.475, 224.519 488.220, 214 494.500 M 423.500 494.784 C 418.323 497.817, 416.120 499.590, 417.257 499.810 C 418.658 500.081, 432 491.481, 432 490.307 C 432 489.812, 431.864 489.883, 423.500 494.784 M 165 495.064 C 159.974 498.077, 159.047 498.965, 160.912 498.980 C 163.468 499.001, 173 493.414, 173 491.896 C 173 490.485, 171.935 490.907, 165 495.064 M 264.500 496.474 C 262.300 497.829, 261.175 498.935, 262 498.933 C 262.825 498.930, 264.850 497.821, 266.500 496.469 C 270.322 493.337, 269.591 493.338, 264.500 496.474 M 326.750 496.574 C 323.046 498.581, 323.275 499, 328.073 499 C 331.338 499, 332.082 498.669, 331.823 497.333 C 331.378 495.035, 329.979 494.826, 326.750 496.574" stroke="none" fill="#7cc44f" fill-rule="evenodd"/></svg>