<?xml version="1.0" standalone="no"?>
<svg version="1.1" id="Layer_1_15_" xmlns="http://www.w3.org/2000/svg" xmlns:xlink="http://www.w3.org/1999/xlink" x="0px" y="0px" viewBox="0 0 595.276 595.276" enable-background="new 0 0 595.276 595.276" xml:space="preserve">
<path id="color_x5F_7" fill-rule="evenodd" clip-rule="evenodd" fill="#E96257" d="M121.467,235.915h7.795v3.851H114.11v-1.993
	l6.765-6.899c1.636-1.655,2.723-2.986,3.264-3.992c0.54-1.006,0.81-1.915,0.81-2.728c0-0.843-0.28-1.539-0.84-2.089
	s-1.281-0.825-2.164-0.825c-0.892,0-1.636,0.332-2.23,0.996c-0.595,0.664-0.912,1.567-0.952,2.706h-4.059
	c0.109-2.359,0.85-4.215,2.223-5.568s3.135-2.029,5.286-2.029c1.328,0,2.5,0.28,3.517,0.84c1.016,0.56,1.829,1.368,2.438,2.424
	c0.61,1.056,0.915,2.129,0.915,3.219c0,1.299-0.37,2.696-1.109,4.193c-0.739,1.497-2.09,3.266-4.053,5.308L121.467,235.915z
	 M135.994,221.805h9.174l-8.216,16.805l3.517,1.706l9.873-20.236v-2.186h-14.349v3.911H135.994z M202.775,225.172
	c1.011-0.496,1.782-1.145,2.312-1.948s0.795-1.69,0.795-2.662c0-1.566-0.607-2.919-1.821-4.059s-2.718-1.71-4.512-1.71
	c-2.013,0-3.683,0.684-5.011,2.052c-0.952,0.982-1.531,2.28-1.74,3.896h4c0.178-0.575,0.51-1.043,0.996-1.405
	c0.485-0.362,1.026-0.543,1.62-0.543c0.674,0,1.219,0.196,1.636,0.588s0.624,0.884,0.624,1.479c0,0.456-0.136,0.887-0.409,1.294
	c-0.273,0.406-0.655,0.726-1.145,0.959c-0.491,0.233-1.237,0.389-2.238,0.469v3.569c1.626,0.02,2.87,0.372,3.732,1.056
	s1.293,1.522,1.293,2.513c0,0.902-0.319,1.665-0.959,2.289c-0.64,0.625-1.445,0.937-2.416,0.937c-0.932,0-1.702-0.275-2.312-0.825
	s-1.004-1.39-1.182-2.52h-4.119c0.129,2.211,0.863,3.958,2.201,5.241c1.338,1.284,3.068,1.925,5.189,1.925
	c2.24,0,4.084-0.682,5.531-2.045c1.447-1.362,2.171-3.026,2.171-4.989c0-1.338-0.375-2.5-1.123-3.486
	C205.141,226.26,204.103,225.568,202.775,225.172z M226.985,219.559c0.63,1.611,0.944,3.854,0.944,6.728
	c0,2.905-0.32,5.165-0.959,6.78c-0.64,1.616-1.499,2.803-2.58,3.561c-1.08,0.759-2.444,1.138-4.089,1.138
	c-1.646,0-3.028-0.382-4.149-1.145c-1.12-0.763-1.997-1.923-2.632-3.479c-0.635-1.556-0.952-3.771-0.952-6.646
	c0-4.015,0.619-6.924,1.858-8.728c1.378-1.982,3.296-2.974,5.755-2.974c1.596,0,2.971,0.392,4.126,1.175
	C225.463,216.751,226.355,217.948,226.985,219.559z M223.766,226.331c0-2.874-0.324-4.857-0.972-5.947
	c-0.648-1.09-1.486-1.636-2.515-1.636c-0.703,0-1.326,0.226-1.87,0.677c-0.544,0.451-0.959,1.227-1.246,2.327
	s-0.43,2.711-0.43,4.832c0,2.766,0.329,4.677,0.987,5.732c0.657,1.056,1.511,1.583,2.559,1.583c1.009,0,1.81-0.5,2.403-1.502
	C223.405,231.189,223.766,229.167,223.766,226.331z M281.464,224.764c1.011-0.496,1.782-1.145,2.312-1.948s0.795-1.69,0.795-2.662
	c0-1.566-0.607-2.919-1.821-4.059s-2.718-1.71-4.512-1.71c-2.013,0-3.683,0.684-5.011,2.052c-0.952,0.982-1.531,2.28-1.74,3.896h4
	c0.178-0.575,0.51-1.043,0.996-1.405c0.485-0.362,1.026-0.543,1.62-0.543c0.674,0,1.219,0.196,1.636,0.588
	c0.417,0.391,0.625,0.884,0.625,1.479c0,0.456-0.136,0.887-0.409,1.294c-0.273,0.406-0.655,0.726-1.145,0.959
	c-0.491,0.233-1.237,0.389-2.238,0.469v3.569c1.626,0.02,2.87,0.372,3.732,1.056s1.293,1.522,1.293,2.513
	c0,0.902-0.319,1.665-0.959,2.289c-0.64,0.625-1.445,0.937-2.416,0.937c-0.932,0-1.702-0.275-2.312-0.825
	c-0.61-0.55-1.004-1.39-1.182-2.52h-4.119c0.129,2.211,0.863,3.958,2.201,5.241c1.338,1.284,3.068,1.925,5.189,1.925
	c2.24,0,4.084-0.682,5.531-2.044s2.171-3.026,2.171-4.989c0-1.338-0.375-2.5-1.123-3.486
	C283.831,225.852,282.793,225.16,281.464,224.764z M300.582,232.317h-9.546v-3.851l9.47-14.081h4.149v14.081h1.948v3.851h-1.948
	v4.49h-4.074v-4.49H300.582z M300.582,228.466v-7.331l-4.996,7.331H300.582z M501.775,451.462
	c-5.019-52.763-13.396-122.307-23.434-133.128c-5.916-7.714-18.626-13.98-29.708-18.283c0.203,0.244,0.32,0.387,0.32,0.387
	c-4.814,10.988-13.699,19.708-22.311,25.923c-1.113,2.089-12.866,24.006-27.515,45.864c-4.246,6.894-12.207,19.013-20.642,27.924
	c-0.245,0.259-7.26-4.195-8.198-32.436c-0.368-11.575,1.417-26.264,5.015-46.623c0.091-0.514,0.198-1.008,0.314-1.492
	c-0.351-5.681,0.265-14.217,5.573-21.082c-16.717,5.564-20.99,18.946-21.997,23.73l-16.083,42.813l-19.237-34.941l-38.081,15.704
	c0,0,36.277,85.531,63.638,79.222c-0.742,9.234-1.408,18.185-1.944,26.418L501.775,451.462L501.775,451.462z"></path>
<path id="color_x5F_6" fill="#1ACDBC" d="M151.101,255.414v0.646c0,1.225-1.003,2.228-2.228,2.228h-33.295
	c-1.225,0-2.228-1.002-2.228-2.228v-0.646c0-1.225,1.003-2.228,2.228-2.228h33.295C150.099,253.187,151.101,254.189,151.101,255.414
	z M148.874,263.797h-33.295c-1.225,0-2.228,1.002-2.228,2.228v0.646c0,1.225,1.003,2.228,2.228,2.228h33.295
	c1.225,0,2.228-1.002,2.228-2.228v-0.646C151.101,264.8,150.099,263.797,148.874,263.797z M135.406,274.408h-19.827
	c-1.225,0-2.228,1.002-2.228,2.228v0.646c0,1.225,1.003,2.228,2.228,2.228h19.827c1.225,0,2.228-1.003,2.228-2.228v-0.646
	C137.634,275.411,136.631,274.408,135.406,274.408z M226.572,253.187h-33.295c-1.225,0-2.228,1.003-2.228,2.228v0.646
	c0,1.225,1.002,2.228,2.228,2.228h33.295c1.225,0,2.228-1.002,2.228-2.228v-0.646C228.8,254.189,227.798,253.187,226.572,253.187z
	 M226.572,263.797h-33.295c-1.225,0-2.228,1.002-2.228,2.228v0.646c0,1.225,1.002,2.228,2.228,2.228h33.295
	c1.225,0,2.228-1.002,2.228-2.228v-0.646C228.8,264.8,227.798,263.797,226.572,263.797z M213.105,274.408h-19.827
	c-1.225,0-2.228,1.002-2.228,2.228v0.646c0,1.225,1.002,2.228,2.228,2.228h19.827c1.225,0,2.228-1.003,2.228-2.228v-0.646
	C215.332,275.411,214.33,274.408,213.105,274.408z M305.254,252.779h-33.295c-1.225,0-2.228,1.002-2.228,2.228v0.646
	c0,1.225,1.002,2.228,2.228,2.228h33.295c1.225,0,2.228-1.003,2.228-2.228v-0.646C307.482,253.781,306.479,252.779,305.254,252.779z
	 M305.254,263.389h-33.295c-1.225,0-2.228,1.003-2.228,2.228v0.646c0,1.225,1.002,2.228,2.228,2.228h33.295
	c1.225,0,2.228-1.003,2.228-2.228v-0.646C307.482,264.392,306.479,263.389,305.254,263.389z M291.786,274h-19.827
	c-1.168,0-2.123,0.914-2.211,2.061c0.993,0.845,2.533,1.9,4.35,3.041h17.688c1.225,0,2.228-1.002,2.228-2.228v-0.646
	C294.014,275.003,293.012,274,291.786,274z M337.48,139.778v173.128c0,3.118-2.551,5.669-5.669,5.669h-19.918
	c-0.452-5.745-1.471-15.068-3.519-19.164c-0.277-0.555-0.539-1.058-0.794-1.537h3.811c4.677,0,8.504-3.827,8.504-8.504V167.077
	c0-4.677-3.827-8.504-8.504-8.504h-45.569c-4.677,0-8.504,3.827-8.504,8.504v122.294c0,4.677,3.827,8.504,8.504,8.504h7.181
	c-0.789,3.553-3.022,1.079-4.462,5.878c-1.532,5.107-5.362,5.617-3.064,10.469c0.587,1.24,1.964,2.801,3.567,4.354H88.488
	c-3.118,0-5.669-2.551-5.669-5.669V139.778c0-3.118,2.551-5.669,5.669-5.669H331.81C334.928,134.109,337.48,136.66,337.48,139.778z
	 M163.515,167.485c0-4.677-3.827-8.504-8.504-8.504h-45.569c-4.677,0-8.504,3.827-8.504,8.504v122.294
	c0,4.677,3.827,8.504,8.504,8.504h45.569c4.677,0,8.504-3.827,8.504-8.504V167.485z M241.213,167.485
	c0-4.677-3.827-8.504-8.504-8.504H187.14c-4.677,0-8.504,3.827-8.504,8.504v122.294c0,4.677,3.827,8.504,8.504,8.504h45.569
	c4.677,0,8.504-3.827,8.504-8.504V167.485z M162.311,396.042c-2.075-15.179-10.98-22.144-10.98-22.144
	c-5.65,6.003-8.682,12.703-10.26,18.821l-1.005-0.21c-4.898-6.367-13.714-9.306-13.714-9.306
	c-3.918,16.652,3.428,30.856,3.428,30.856h42.611c0,0,11.718-10.777,7.792-28.574C180.184,385.485,171.242,384.249,162.311,396.042z
	"></path>
<path id="color_x5F_5" fill-rule="evenodd" clip-rule="evenodd" fill="#FFD2BB" d="M452.643,247.042
	c-0.503,22.557-12.007,19.13-12.007,19.13s-2.389,11.495-12.774,19.488l-0.083,9.78c-6.02,8.114-25.975,21.58-32.437,22.503
	c-3.829,0.547-3.812-20.802-3.812-20.802l0.02-7.241c-12.577-5.985-19.998-19.163-21.377-27.896c-2.137-13.536,0-59.827,0-59.827
	s20.769,11.629,45.818,7.53c0.822-0.134,1.607-0.24,2.381-0.335c-1.454,6.503-9.243,12.003-6.558,13.569
	c3.348,1.953,18.844-3.533,24.161-11.257c8.794,5.094,7.362,15.638,7.362,15.638L441.3,244.9
	C449.942,237.588,452.643,247.042,452.643,247.042z M300.458,290.475c-2.577-1.189-6.84-2.524-9.816-2.11
	c-3.271-1.699-18.629-9.765-21.591-12.955c-3.319-3.575-7.915,1.277-4.341,7.405c1.668,2.859,10.073,8.384,14.92,11.415
	c-3.115-0.292-6.125,0.162-6.494,2.884c-0.632,4.666-3.064,1.532-4.596,6.639s-5.362,5.617-3.064,10.469
	c1.848,3.901,11.49,10.98,11.49,10.98s7.467,6.973,12.106,7.367l23.071-10.301c-0.228-4.036-1.174-17.662-3.771-22.856
	C305.31,293.283,303.778,292.007,300.458,290.475z"></path>
<path id="color_x5F_4" fill-rule="evenodd" clip-rule="evenodd" fill="#00CEC9" d="M298.285,185.588
	c0,4.733-3.837,8.57-8.57,8.57s-8.57-3.837-8.57-8.57s3.837-8.57,8.57-8.57C294.448,177.017,298.285,180.854,298.285,185.588z
	 M202.123,176.575c-4.733,0-8.57,3.837-8.57,8.57c0,3.127,1.681,5.855,4.183,7.352c1.161-1.676,2.827-3.054,5.225-3.668
	c2.92-0.747,5.714-0.941,5.714-0.941s0.557-1.228,1.998-2.326c0.007-0.139,0.021-0.276,0.021-0.417
	C210.693,180.412,206.856,176.575,202.123,176.575z M133.683,451.462h36.184l5.954-36.913h-48.488L133.683,451.462z
	 M463.712,182.897c-17.588-28.367-82.128-12.17-82.128-12.17s-24.69-6.523-26.38,7.307c-4.319,35.333,14.076,41.427,14.076,41.427
	l0.266,0.273c0.275-9.949,0.627-17.556,0.627-17.556s20.769,11.629,45.818,7.53c0.822-0.134,1.607-0.24,2.381-0.335
	c-1.454,6.503-9.243,12.003-6.558,13.569c3.348,1.953,18.844-3.533,24.161-11.257c8.794,5.094,7.362,15.638,7.362,15.638
	L441.3,244.9c8.642-7.312,11.342,2.142,11.342,2.142c-0.503,22.557-12.007,19.13-12.007,19.13s-1.879,9.015-9.522,16.63l0.329,0.337
	C462.021,269.844,484.319,216.135,463.712,182.897z"></path>
<path id="color_x5F_3" fill="#E84393" d="M119.344,192.503l1.047-0.49c-3.48,4.444-2.928,11.509-2.928,11.509h38.612
	c0,0,0.408-10.815-9.387-10.407c0,0,0.946-8.424-7.142-9.182c-0.662-0.062-1.267-0.059-1.839-0.025l0.819-0.383
	c0,0-0.204-7.55-7.55-8.162c-7.346-0.612-8.57,8.366-8.57,8.366s-1.632-4.285-7.754-2.449s-5.51,11.223-5.51,11.223L119.344,192.503
	L119.344,192.503z M131.796,186.674c-0.574,0.678-0.821,1.215-0.821,1.215l1.126,1.603c2.945,1.794,3.692,5.256,3.692,5.256
	l-3.692-5.256c-1.058-0.645-2.409-1.064-4.102-1.04L131.796,186.674z M195.161,203.522c0,0-0.975-12.447,7.799-14.692
	c3.059-0.783,5.263-0.299,6.839,0.662l3.692,5.256c0,0-0.747-3.461-3.692-5.256l-1.126-1.603c0,0,2.041-4.569,8.57-3.956
	c8.088,0.758,7.142,9.182,7.142,9.182c9.795-0.408,9.387,10.407,9.387,10.407L195.161,203.522L195.161,203.522z M371.356,367.951
	c2.67-13.485,10.001-27.207,12.757-32.262l-0.305-0.073l2.015-16.64c0,0,6.888,3.028,9.295,3.708
	c3.391,0.959,13.889,2.404,13.889,2.404l-6.383,15.009l-1.167-0.278c-1.147,5.349-3.71,18.138-2.775,32.172
	c-6.492,9.656-13.265,19.113-20.198,26.97C378.485,398.96,372.179,391.678,371.356,367.951z M512.165,477.692v10.336H91.61v-10.336
	H512.165z"></path>
<path id="color_x5F_2" fill="#FBC02D" d="M536.657,451.462v26.23H67.117v-26.23H536.657z M284.278,334.709l4.826,9.748
	l32.91-13.571l0.081-0.041l-4.646-10.945L284.278,334.709z M269.846,276.138c-0.033-0.027-0.065-0.054-0.096-0.081
	c0,0.001-0.001,0.003-0.001,0.004C269.777,276.085,269.816,276.113,269.846,276.138z M274.098,279.102h0.003
	c-0.029-0.018-0.06-0.037-0.089-0.055C274.042,279.065,274.068,279.083,274.098,279.102z M257.318,289.371V167.077
	c0-4.677,3.827-8.504,8.504-8.504h45.569c4.677,0,8.504,3.827,8.504,8.504v122.294c0,4.677-3.827,8.504-8.504,8.504h-3.811
	c-2.559-4.812-4.103-6.007-7.122-7.4c-2.577-1.189-6.84-2.524-9.816-2.11c-2.331-1.211-10.795-5.654-16.542-9.263h17.686
	c1.225,0,2.228-1.002,2.228-2.228v-0.646c0-1.225-1.003-2.228-2.228-2.228h-19.827c-1.167,0-2.121,0.912-2.21,2.057
	c-0.271-0.231-0.516-0.451-0.698-0.647c-3.319-3.575-7.915,1.277-4.341,7.405c1.668,2.859,10.073,8.384,14.92,11.415
	c-3.115-0.292-6.125,0.162-6.494,2.884c-0.038,0.282-0.084,0.533-0.134,0.761h-7.181
	C261.145,297.875,257.318,294.048,257.318,289.371z M300.506,214.385l-9.47,14.081v3.851h9.546v4.49h4.074v-4.49h1.948v-3.851
	h-1.948v-14.081H300.506z M281.145,185.588c0,4.733,3.837,8.57,8.57,8.57s8.57-3.837,8.57-8.57s-3.837-8.57-8.57-8.57
	C284.982,177.017,281.145,180.854,281.145,185.588z M281.598,230.31c0,0.902-0.319,1.665-0.959,2.289
	c-0.64,0.625-1.445,0.937-2.416,0.937c-0.932,0-1.702-0.275-2.312-0.825c-0.61-0.55-1.004-1.39-1.182-2.52h-4.119
	c0.129,2.211,0.863,3.958,2.201,5.241c1.338,1.284,3.068,1.925,5.189,1.925c2.24,0,4.084-0.682,5.531-2.044s2.171-3.026,2.171-4.989
	c0-1.338-0.375-2.5-1.123-3.486c-0.749-0.986-1.787-1.678-3.115-2.074c1.011-0.496,1.782-1.145,2.312-1.948s0.795-1.69,0.795-2.662
	c0-1.566-0.607-2.919-1.821-4.059s-2.718-1.71-4.512-1.71c-2.013,0-3.683,0.684-5.011,2.052c-0.952,0.982-1.531,2.28-1.74,3.896h4
	c0.178-0.575,0.51-1.043,0.996-1.405c0.485-0.362,1.026-0.543,1.62-0.543c0.674,0,1.219,0.196,1.636,0.588
	c0.417,0.391,0.625,0.884,0.625,1.479c0,0.456-0.136,0.887-0.409,1.294c-0.273,0.406-0.655,0.726-1.145,0.959
	c-0.491,0.233-1.237,0.389-2.238,0.469v3.569c1.626,0.02,2.87,0.372,3.732,1.056C281.167,228.481,281.598,229.319,281.598,230.31z
	 M269.732,255.652c0,1.225,1.002,2.228,2.228,2.228h33.295c1.225,0,2.228-1.003,2.228-2.228v-0.646c0-1.225-1.003-2.228-2.228-2.228
	H271.96c-1.225,0-2.228,1.002-2.228,2.228L269.732,255.652L269.732,255.652z M269.732,266.263c0,1.225,1.002,2.228,2.228,2.228
	h33.295c1.225,0,2.228-1.003,2.228-2.228v-0.646c0-1.225-1.003-2.228-2.228-2.228H271.96c-1.225,0-2.228,1.003-2.228,2.228
	L269.732,266.263L269.732,266.263z M220.279,218.748c-0.703,0-1.326,0.226-1.87,0.677c-0.544,0.451-0.959,1.227-1.246,2.327
	s-0.43,2.711-0.43,4.832c0,2.766,0.329,4.677,0.987,5.732c0.657,1.056,1.511,1.583,2.559,1.583c1.009,0,1.81-0.5,2.403-1.502
	c0.722-1.209,1.083-3.231,1.083-6.066c0-2.874-0.324-4.857-0.972-5.947C222.146,219.294,221.308,218.748,220.279,218.748z
	 M178.636,289.779V167.485c0-4.677,3.827-8.504,8.504-8.504h45.569c4.677,0,8.504,3.827,8.504,8.504v122.294
	c0,4.677-3.827,8.504-8.504,8.504H187.14C182.463,298.283,178.636,294.456,178.636,289.779z M193.552,185.145
	c0,3.127,1.681,5.855,4.183,7.352c-3.085,4.454-2.574,11.024-2.574,11.024h38.612c0,0,0.408-10.815-9.387-10.407
	c0,0,0.946-8.424-7.142-9.182c-3.142-0.295-5.236,0.612-6.572,1.63c0.007-0.139,0.021-0.276,0.021-0.417
	c0-4.733-3.837-8.57-8.57-8.57C197.39,176.575,193.552,180.412,193.552,185.145z M226.985,219.559
	c-0.63-1.611-1.522-2.808-2.676-3.591c-1.155-0.783-2.53-1.175-4.126-1.175c-2.459,0-4.376,0.991-5.755,2.974
	c-1.239,1.804-1.858,4.714-1.858,8.728c0,2.875,0.317,5.09,0.952,6.646s1.512,2.716,2.632,3.479c1.12,0.763,2.503,1.145,4.149,1.145
	c1.645,0,3.008-0.379,4.089-1.138c1.081-0.758,1.941-1.945,2.58-3.561s0.959-3.875,0.959-6.78
	C227.929,223.413,227.614,221.169,226.985,219.559z M202.909,230.718c0,0.902-0.319,1.665-0.959,2.289
	c-0.64,0.625-1.445,0.937-2.416,0.937c-0.932,0-1.702-0.275-2.312-0.825s-1.004-1.39-1.182-2.52h-4.119
	c0.129,2.211,0.863,3.958,2.201,5.241c1.338,1.284,3.068,1.925,5.189,1.925c2.24,0,4.084-0.682,5.531-2.045
	c1.447-1.362,2.171-3.026,2.171-4.989c0-1.338-0.375-2.5-1.123-3.486c-0.749-0.986-1.787-1.678-3.115-2.074
	c1.011-0.496,1.782-1.145,2.312-1.948s0.795-1.69,0.795-2.662c0-1.566-0.607-2.919-1.821-4.059s-2.718-1.71-4.512-1.71
	c-2.013,0-3.683,0.684-5.011,2.052c-0.952,0.982-1.531,2.28-1.74,3.896h4c0.178-0.575,0.51-1.043,0.996-1.405
	c0.485-0.362,1.026-0.543,1.62-0.543c0.674,0,1.219,0.196,1.636,0.588s0.624,0.884,0.624,1.479c0,0.456-0.136,0.887-0.409,1.294
	c-0.273,0.406-0.655,0.726-1.145,0.959c-0.491,0.233-1.237,0.389-2.238,0.469v3.569c1.626,0.02,2.87,0.372,3.732,1.056
	C202.477,228.889,202.909,229.727,202.909,230.718z M191.05,256.06c0,1.225,1.002,2.228,2.228,2.228h33.295
	c1.225,0,2.228-1.002,2.228-2.228v-0.646c0-1.225-1.002-2.228-2.228-2.228h-33.295c-1.225,0-2.228,1.003-2.228,2.228V256.06z
	 M191.05,266.671c0,1.225,1.002,2.228,2.228,2.228h33.295c1.225,0,2.228-1.002,2.228-2.228v-0.646c0-1.225-1.002-2.228-2.228-2.228
	h-33.295c-1.225,0-2.228,1.002-2.228,2.228V266.671z M191.05,277.282c0,1.225,1.002,2.228,2.228,2.228h19.827
	c1.225,0,2.228-1.003,2.228-2.228v-0.646c0-1.225-1.003-2.228-2.228-2.228h-19.827c-1.225,0-2.228,1.002-2.228,2.228V277.282z
	 M100.938,289.779V167.485c0-4.677,3.827-8.504,8.504-8.504h45.569c4.677,0,8.504,3.827,8.504,8.504v122.294
	c0,4.677-3.827,8.504-8.504,8.504h-45.569C104.765,298.283,100.938,294.456,100.938,289.779z M137.634,276.636
	c0-1.225-1.003-2.228-2.228-2.228h-19.827c-1.225,0-2.228,1.002-2.228,2.228v0.646c0,1.225,1.003,2.228,2.228,2.228h19.827
	c1.225,0,2.228-1.003,2.228-2.228V276.636z M151.101,266.025c0-1.225-1.003-2.228-2.228-2.228h-33.295
	c-1.225,0-2.228,1.002-2.228,2.228v0.646c0,1.225,1.003,2.228,2.228,2.228h33.295c1.225,0,2.228-1.002,2.228-2.228V266.025z
	 M151.101,255.414c0-1.225-1.003-2.228-2.228-2.228h-33.295c-1.225,0-2.228,1.003-2.228,2.228v0.646
	c0,1.225,1.003,2.228,2.228,2.228h33.295c1.225,0,2.228-1.002,2.228-2.228V255.414z M124.95,224.154c0,0.813-0.27,1.722-0.81,2.728
	c-0.541,1.006-1.628,2.337-3.264,3.992l-6.765,6.899v1.993h15.151v-3.851h-7.795l2.455-2.587c1.963-2.042,3.315-3.811,4.053-5.308
	c0.739-1.497,1.109-2.894,1.109-4.193c0-1.09-0.305-2.164-0.915-3.219c-0.609-1.056-1.422-1.863-2.438-2.424
	c-1.016-0.56-2.189-0.84-3.517-0.84c-2.151,0-3.913,0.676-5.286,2.029c-1.373,1.354-2.114,3.21-2.223,5.568h4.059
	c0.039-1.139,0.357-2.042,0.952-2.706c0.594-0.664,1.338-0.996,2.23-0.996c0.882,0,1.603,0.275,2.164,0.825
	C124.67,222.615,124.95,223.311,124.95,224.154z M145.168,221.805l-8.216,16.805l3.517,1.706l9.873-20.236v-2.186h-14.349v3.911
	L145.168,221.805L145.168,221.805z M109.142,192.503h10.203l1.047-0.49c-3.48,4.444-2.928,11.509-2.928,11.509h38.612
	c0,0,0.408-10.815-9.387-10.407c0,0,0.946-8.424-7.142-9.182c-0.662-0.062-1.267-0.059-1.839-0.025l0.819-0.383
	c0,0-0.204-7.55-7.55-8.162c-7.346-0.612-8.57,8.366-8.57,8.366s-1.632-4.285-7.754-2.449
	C108.529,183.116,109.142,192.503,109.142,192.503z M384.114,335.688l-0.305-0.073l2.015-16.64c0,0,6.888,3.028,9.295,3.708
	c3.391,0.959,13.889,2.404,13.889,2.404l-6.383,15.009l-1.167-0.278c-1.147,5.349-3.611,18.89-2.677,32.924
	c14.811-22.029,26.739-44.277,27.861-46.382c8.612-6.215,17.497-14.935,22.311-25.923c0,0-9.267-11.279-11.753-12.064
	s-8.114-3.141-8.114-3.141l-0.872,0.145c-0.119,0.094-0.233,0.19-0.354,0.282l-0.083,9.78c-0.053,0.072-0.116,0.147-0.172,0.22
	c1.551,2.369-22.241,20.458-32.31,22.597c-2.185,0.464-3.095-6.982-3.485-12.942v-0.001c-0.232-3.549-0.274-6.724-0.281-7.786
	c0-0.006,0-0.011,0-0.017c-0.002-0.232-0.002-0.371-0.002-0.371l0.016-5.673l-0.277,0.046c-3.141,0.393-9.291,6.02-9.291,6.02
	c-6.047,7.014-6.727,16.11-6.36,22.064c-0.116,0.484-0.223,0.978-0.314,1.492c-3.64,20.598-4.559,36.157-4.156,47.776
	C373.818,355.385,381.358,340.742,384.114,335.688z M371.228,370.858c-0.032-0.649-0.058-1.317-0.082-1.992
	c-0.001,0.004-0.002,0.009-0.003,0.013C371.167,369.553,371.196,370.21,371.228,370.858z"></path>
<path id="color_x5F_1" fill="#0984E3" d="M536.657,450.462h-33.946c-5.02-52.659-13.381-121.429-23.586-132.75
	c-6.055-7.883-18.789-14.211-29.926-18.547c-2.347-2.825-9.277-10.981-11.697-11.745c-1.789-0.565-5.298-1.984-7.022-2.693
	c0.231-0.208,0.454-0.419,0.676-0.63c0.093,0.028,0.189,0.043,0.288,0.043c0.133,0,0.268-0.027,0.397-0.083
	c16.015-6.963,30.18-24.784,36.968-46.508c6.381-20.421,4.833-40.533-4.247-55.178c-17.393-28.055-77.933-13.91-82.974-12.674
	c-2.11-0.526-15.961-3.72-23.159,1.158c-2.428,1.645-3.847,4.019-4.218,7.058c-4.052,33.15,11.427,41.14,14.314,42.33
	c-0.398,14.559-0.617,33.837,0.659,41.919c1.197,7.583,6.705,18.348,16.308,25.301c1.624,1.176,3.316,2.184,5.056,3.048v0.133
	c-3.41,0.885-8.629,5.589-9.246,6.154c-0.029,0.027-0.057,0.055-0.083,0.085c-0.228,0.264-0.44,0.534-0.653,0.803
	c-16.582,5.7-21.142,19.071-22.296,24.174l-15.332,40.816l-18.189-33.037c-0.245-0.446-0.789-0.633-1.257-0.442l-0.86,0.355
	l-4.234-9.974h13.413c3.678,0,6.669-2.992,6.669-6.669V139.778c0-3.678-2.991-6.669-6.669-6.669H88.488
	c-3.678,0-6.669,2.992-6.669,6.669v173.127c0,3.677,2.992,6.669,6.669,6.669h179.876c2.355,2.319,5.25,4.436,7.616,5.585
	c-0.012,0.281,0.083,0.564,0.304,0.771c0.662,0.619,5.464,5.018,9.845,6.856l-2.259,1.009c-0.249,0.111-0.441,0.318-0.533,0.574
	s-0.076,0.539,0.045,0.782l4.351,8.788l-2.323,0.958c-0.247,0.103-0.442,0.298-0.544,0.545c-0.101,0.247-0.1,0.524,0.005,0.771
	c1.458,3.439,34.329,80.174,61.634,80.167c0.613,0,1.222-0.058,1.829-0.14c-0.675,8.446-1.285,16.639-1.786,24.221H171.041
	l5.767-35.753c0.046-0.289-0.036-0.584-0.226-0.808c-0.19-0.223-0.468-0.352-0.761-0.352h-1.56
	c2.973-3.373,10.185-13.391,6.901-28.28c-0.09-0.408-0.425-0.717-0.839-0.774c-0.378-0.053-8.684-1.051-17.353,9.136
	c-2.565-13.718-10.551-20.154-11.022-20.522c-0.407-0.318-0.989-0.273-1.344,0.103c-5.346,5.68-8.335,12.153-9.954,18.248
	c-5.311-5.512-13.644-9.093-13.98-9.205c-0.267-0.092-0.559-0.062-0.804,0.075c-0.245,0.137-0.422,0.37-0.486,0.644
	c-3.42,14.54,1.466,27.062,3.053,30.576h-1.1c-0.295,0-0.575,0.13-0.765,0.355s-0.271,0.523-0.221,0.814l6.149,35.742H67.118
	c-0.552,0-1,0.447-1,1v26.229c0,0.553,0.448,1,1,1H90.61v9.337c0,0.553,0.448,1,1,1h420.555c0.553,0,1-0.447,1-1v-9.337h23.492
	c0.553,0,1-0.447,1-1V451.46C537.657,450.909,537.21,450.462,536.657,450.462z M375.511,326.049
	c0.093,0.361,0.379,0.642,0.743,0.727c0.363,0.079,0.744-0.042,0.986-0.325l10.488-12.296l3.849,6.34
	c-2.872-0.914-4.58-1.693-4.792-1.792c-0.107-0.376-0.43-0.67-0.842-0.72c-0.552-0.063-1.047,0.324-1.113,0.873l-2.015,16.641
	c-0.004,0.031,0.007,0.06,0.006,0.091c-1.238,2.242-7.589,14.079-11.221,27.154c-0.024-9.933,0.987-22.173,3.818-37.083
	C375.464,325.86,375.498,325.999,375.511,326.049z M399.63,369.646c-0.479-14.091,2.189-25.615,2.943-28.555
	c0.017,0.001,0.035,0.006,0.052,0.006c0.394,0,0.761-0.233,0.92-0.608l4.782-11.247l2.146,6.304c0.09,0.266,0.288,0.481,0.546,0.594
	c0.128,0.056,0.264,0.084,0.4,0.084c0.139,0,0.277-0.028,0.406-0.086c1.795-0.798,6.408-2.982,11.946-6.591
	C419.82,336.736,410.614,353.05,399.63,369.646z M384.44,336.793l16.184,3.854c-0.855,3.35-3.816,16.331-2.859,31.792
	c-6.156,9.147-12.792,18.229-19.326,25.763c-1.593-2.774-5.552-11.209-6.589-27.594C374.471,355.583,382.684,340.004,384.44,336.793
	z M386.608,320.812c2.302,0.992,9.888,3.914,20.413,4.592l0.34,1l-5.326,12.526l-17.128-4.079L386.608,320.812z M398.339,322.235
	l6.262-3.944l1.721,5.056C403.403,323.119,400.724,322.717,398.339,322.235z M374.298,394.098
	c-3.689-4.805-8.563-13.313-9.547-25.511l4.874-1.393C370.056,380.262,372.303,388.904,374.298,394.098z M401.475,370.477
	l13.38,4.098c-2.548,3.529-15.229,19.869-34.043,23.934C387.855,390.255,394.98,380.307,401.475,370.477z M402.62,368.737
	c12.975-19.831,23.2-38.725,24.783-41.677c8.011-5.776,17.005-14.255,22.158-25.556c2.349,0.934,4.754,1.953,7.136,3.051
	c-16.453,35.695-30.457,65.565-32.862,70.69L402.62,368.737z M392.545,291.436c4.138,1.733,8.543,2.616,13.099,2.616
	c1.943,0,3.914-0.16,5.902-0.482c6.283-1.019,11.301-3.232,15.298-5.976l-0.064,7.506c-6.227,8.117-25.572,20.995-31.575,21.854
	c-1.434-0.424-2.685-9.682-2.677-19.811L392.545,291.436z M356.195,178.154c0.303-2.473,1.399-4.319,3.354-5.644
	c6.887-4.667,21.631-0.855,21.78-0.817c0.162,0.043,0.334,0.044,0.498,0.003c0.639-0.16,64.032-15.694,81.035,11.727
	c8.773,14.151,10.245,33.661,4.037,53.527c-6.037,19.321-18.553,35.981-32.49,43.611c4.437-5.512,6.344-11.083,6.962-13.247
	c1.293,0.133,3.626,0.056,5.941-1.631c3.989-2.906,6.119-9.17,6.33-18.619c0.002-0.101-0.011-0.201-0.038-0.297
	c-0.051-0.177-1.277-4.344-4.763-5.404c-1.885-0.573-3.991-0.119-6.281,1.351l1.767-15.258c0.015-0.112,1.415-11.271-7.853-16.638
	c-0.452-0.262-1.028-0.131-1.325,0.298c-5.302,7.704-20.317,12.429-22.893,10.932c-0.118-0.518,1.301-2.401,2.239-3.647
	c1.825-2.425,4.098-5.443,4.851-8.811c0.071-0.317-0.017-0.649-0.234-0.89c-0.219-0.24-0.534-0.36-0.863-0.321
	c-0.786,0.097-1.585,0.204-2.42,0.341c-24.396,3.99-44.965-7.302-45.169-7.416c-0.303-0.17-0.672-0.17-0.975-0.001
	c-0.303,0.168-0.497,0.482-0.513,0.828c-0.032,0.701-0.33,7.257-0.585,15.92C364.922,216.142,352.615,207.455,356.195,178.154z
	 M371.159,261.849c-1.876-11.891-0.4-49.911-0.056-58.076c5.151,2.5,23.671,10.419,45.048,6.921
	c0.276-0.045,0.549-0.087,0.818-0.126c-0.908,2.43-2.638,4.726-4.072,6.631c-1.675,2.226-2.886,3.833-2.602,5.245
	c0.08,0.398,0.321,0.958,1.014,1.362c3.801,2.218,18.906-3.099,24.922-10.785c7.259,4.826,6.165,13.778,6.111,14.187l-2.035,17.578
	c-0.048,0.408,0.159,0.803,0.521,0.997s0.806,0.147,1.118-0.118c2.479-2.097,4.603-2.904,6.306-2.388
	c2.16,0.651,3.175,3.289,3.387,3.912c-0.269,10.788-3.117,15.12-5.467,16.853c-2.58,1.904-5.148,1.203-5.251,1.173
	c-0.266-0.08-0.558-0.043-0.797,0.1c-0.24,0.143-0.41,0.38-0.467,0.654c-0.046,0.218-4.832,21.801-28.431,25.627
	c-9.004,1.46-17.271-0.475-24.562-5.754C377.576,279.26,372.256,268.791,371.159,261.849z M390.542,292.733l-0.012,4.407
	c-0.003,3.074,0.144,18.544,3.279,21.266c0.496,0.431,0.995,0.548,1.389,0.548c0.103,0,0.198-0.009,0.285-0.021
	c7.073-1.011,27.181-14.92,33.099-22.898c0.127-0.17,0.195-0.375,0.197-0.587l0.079-9.228c0.921,0.384,5.737,2.379,8.043,3.107
	c1.338,0.423,6.504,5.975,10.888,11.269c-4.514,9.928-12.745,18.344-21.315,24.638c-0.216,0.058-0.4,0.196-0.538,0.385
	c-4.749,3.433-9.58,6.224-13.923,8.238l-5.927-17.408c-0.099-0.29-0.324-0.519-0.612-0.62c-0.288-0.104-0.608-0.067-0.867,0.096
	l-9.04,5.693c-0.394-0.097-0.775-0.196-1.146-0.295l-5.7-9.388c-0.166-0.274-0.454-0.452-0.774-0.478
	c-0.318-0.031-0.633,0.104-0.841,0.348l-10.04,11.771c-0.753-4.688-1.759-16.724,5.631-25.342
	C384.193,296.868,388.082,293.637,390.542,292.733z M374.646,320.359c-0.154,0.138-0.279,0.311-0.324,0.529
	c-3.784,18.309-4.956,32.861-4.758,44.243l-9.692,2.769c0.673-8.158,5.387-50.335,14.948-65.47c1.169-0.672,2.418-1.305,3.776-1.879
	C374.542,307.426,374.235,315.213,374.646,320.359z M313.057,320.765c-0.024-0.368-0.051-0.763-0.081-1.19h2.747L313.057,320.765z
	 M88.488,317.575c-2.575,0-4.669-2.095-4.669-4.669V139.778c0-2.575,2.095-4.669,4.669-4.669h243.323
	c2.574,0,4.669,2.095,4.669,4.669v173.127c0,2.575-2.095,4.669-4.669,4.669h-18.992c-0.49-5.85-1.527-14.565-3.55-18.611
	c-0.016-0.031-0.03-0.058-0.046-0.089h2.169c5.24,0,9.504-4.264,9.504-9.504V167.077c0-5.24-4.264-9.504-9.504-9.504h-45.569
	c-5.24,0-9.504,4.264-9.504,9.504v122.294c0,5.241,4.264,9.504,9.504,9.504h5.474c-0.207,0.198-0.438,0.324-0.704,0.467
	c-1.156,0.622-2.18,1.361-3.009,4.123c-0.529,1.765-1.372,2.952-2.115,3.999c-1.326,1.868-2.578,3.631-0.895,7.186
	c0.443,0.934,1.125,1.929,1.95,2.926L88.488,317.575L88.488,317.575z M281.422,304.919c0.005,0.007,0.011,0.013,0.016,0.019
	c-2.995-2.448-5.946-4.697-7.793-6.079c0.175-0.418,0.332-0.917,0.468-1.529c0.158-0.709,0.491-1.178,1.05-1.477
	c1.646-0.877,4.729-0.006,5.779,0.404c0.028,0.011,0.056,0.007,0.084,0.015c0.757,0.46,1.308,0.788,1.56,0.936
	c0.16,0.094,0.335,0.139,0.508,0.139c0.059,0,0.116-0.012,0.173-0.022c-0.697,1.824-1.445,3.732-1.901,4.188
	C280.493,302.387,280.515,303.724,281.422,304.919z M295.754,303.522c-0.368,0.662-0.849,1.805-1.283,3.195
	c-0.791-1.04-1.669-2.017-2.295-2.681c1.172-0.895,1.984-1.676,2.449-2.17c0.499,0.227,1.074,0.581,1.238,0.981
	C295.896,302.93,295.976,303.123,295.754,303.522z M290.518,305.2c1.652,1.728,3.707,4.246,3.841,5.315
	c0.125,0.998-0.149,2.821-1.148,3.749c-0.462,0.43-1.04,0.608-1.742,0.566c-1.011-1.995-4.546-5.302-8.352-8.501
	c1.588,0.839,3.738,1.005,5.832-0.173C289.518,305.835,290.032,305.516,290.518,305.2z M268.45,306.589
	c-0.007-0.007-0.017-0.008-0.025-0.015c0.399-0.72,0.778-1.547,1.074-2.534c0.658-2.192,1.298-2.537,2.041-2.937
	c0.336-0.181,0.649-0.374,0.942-0.614c8.406,6.296,17.012,13.642,17.285,15.416c0.207,1.345-0.204,2.676-1.099,3.561
	c-0.779,0.77-1.794,1.095-2.855,0.919C283.901,320.066,274.508,312.125,268.45,306.589z M283.876,295.732
	c-0.074-0.094-0.163-0.18-0.272-0.245c-4.392-2.597-16.191-10.025-18.029-13.176c-1.783-3.056-1.311-5.768,0.038-6.769
	c0.827-0.614,1.813-0.414,2.706,0.548c2.665,2.87,14.484,9.277,19.846,12.106c-0.111,0.073-0.228,0.138-0.331,0.22
	C286.324,289.624,285.071,292.625,283.876,295.732z M270.869,275.69c0.201-0.404,0.609-0.689,1.09-0.689h19.827
	c0.677,0,1.228,0.551,1.228,1.228v0.646c0,0.677-0.551,1.228-1.228,1.228h-17.407C272.959,277.204,271.748,276.38,270.869,275.69z
	 M290.828,287.335c-3.638-1.886-8.805-4.666-13.162-7.234h14.121c1.78,0,3.227-1.448,3.227-3.228v-0.646
	c0-1.78-1.447-3.228-3.227-3.228H271.96c-1.072,0-2.005,0.536-2.587,1.345c-1.534-1.359-3.425-1.541-4.952-0.41
	c-2.097,1.556-2.968,5.278-0.574,9.383c1.522,2.609,7.821,7.004,12.732,10.171c-0.823,0.046-1.638,0.218-2.353,0.598
	c-1.062,0.565-1.773,1.53-2.058,2.788h-6.346c-4.138,0-7.504-3.367-7.504-7.504V167.077c0-4.138,3.366-7.504,7.504-7.504h45.569
	c4.138,0,7.504,3.366,7.504,7.504v122.294c0,4.138-3.366,7.504-7.504,7.504h-3.21c-2.444-4.478-4.097-5.827-7.305-7.308
	C298.357,288.403,294.106,287.005,290.828,287.335z M266.381,313.793c-1.183-2.496-0.547-3.39,0.718-5.171
	c0.078-0.109,0.158-0.224,0.239-0.339c2.437,2.22,10.946,9.873,15.665,12.872c-0.566,0.643-1.766,1.881-3.432,2.881
	c-0.034,0.021-0.353,0.186-1.343-0.114C274.786,322.878,268.175,317.58,266.381,313.793z M279.478,326.066
	c0.421-0.034,0.804-0.125,1.121-0.316c2.238-1.343,3.716-3.026,4.193-3.611c0.263,0.111,0.496,0.185,0.693,0.218
	c0.294,0.049,0.588,0.073,0.88,0.073c1.378,0,2.695-0.54,3.709-1.542c1.068-1.055,1.673-2.514,1.732-4.056
	c0.826-0.026,1.483-0.256,2.002-0.557c0.222,0.758,0.539,1.467,0.981,2.095c0.317,0.45,0.941,0.562,1.394,0.243
	c0.451-0.317,0.561-0.941,0.243-1.394c-0.517-0.736-0.794-1.665-0.93-2.674c0.773-1.353,1.004-3.034,0.848-4.28
	c-0.049-0.388-0.206-0.826-0.429-1.286c0.445-1.901,1.085-3.582,1.587-4.487c0.571-1.028,0.429-1.88,0.208-2.413
	c-0.67-1.618-2.858-2.284-3.105-2.354c-0.391-0.113-0.812,0.027-1.063,0.345c-0.017,0.022-1.745,2.187-5.575,4.341
	c-2.256,1.269-4.234,0.244-4.952-0.702c-0.218-0.288-0.369-0.649-0.235-0.783c0.76-0.76,1.46-2.537,2.54-5.373
	c1.113-2.925,2.499-6.565,3.761-7.576c1.882-1.505,7.048-0.399,10.957,1.404c3.021,1.395,4.445,2.487,7.44,8.477
	c2.371,4.744,3.338,17.118,3.625,21.778l-22.215,9.918C286.147,331.161,282.093,328.234,279.478,326.066z M285.635,335.198
	l31.291-13.971l3.856,9.084l-31.197,12.865L285.635,335.198z M287.113,346.359l36.313-14.975l18.807,34.157
	c0.188,0.341,0.55,0.544,0.948,0.515c0.389-0.027,0.727-0.28,0.864-0.646l13.197-35.131c-1.598,15.566-5.753,56.863-8.745,93.917
	C323.862,428.384,291.107,355.488,287.113,346.359z M359.895,324.085c0.063-0.652,1.279-11.511,11.343-19.269
	c-9.319,19.307-13.334,62.399-13.472,64.371c-0.023,0.325,0.114,0.642,0.367,0.847c0.181,0.146,0.403,0.224,0.63,0.224
	c0.092,0,0.185-0.013,0.274-0.038l3.754-1.073c1.8,20.574,14.001,30.752,14.528,31.183c0.047,0.039,0.103,0.058,0.154,0.086
	c0.014,0.019,0.035,0.048,0.044,0.059c0.103,0.136,0.242,0.23,0.394,0.297c0.164,0.115,0.356,0.191,0.567,0.191
	c0.05,0,0.101-0.004,0.151-0.012c22.465-3.426,36.676-23.457,38.242-25.76l7.226,2.213c0.093,0.027,0.187,0.04,0.279,0.04
	c0.379,0,0.737-0.217,0.905-0.575c0.152-0.322,15.221-32.404,33.224-71.461c9.267,4.46,17.86,10.115,20.979,16.635
	c0.135,0.283,1.237,2.505,1.873,3.865c8.111,21.137,14.936,78.861,19.303,124.552h-45.492c-2.956-49.066-6.239-70.541-6.283-70.824
	c-0.085-0.545-0.597-0.916-1.143-0.834c-0.546,0.086-0.919,0.597-0.834,1.143c0.045,0.283,3.31,21.659,6.256,70.516h-78.986
	c0.77-15.027,1.843-33.347,3.81-44.929c0.092-0.544-0.274-1.061-0.819-1.153c-0.542-0.082-1.061,0.274-1.153,0.819
	c-1.989,11.716-3.068,30.166-3.841,45.263h-23.624C351.839,400.782,359.807,324.913,359.895,324.085z M179.337,386.44h0.025
	c3.271,16.56-7.537,26.781-7.648,26.884c-0.071,0.066-0.115,0.147-0.163,0.226h-8.915c1.274-6.6,1.36-12.323,0.748-17.226
	C170.384,387.283,177.162,386.44,179.337,386.44z M151.4,375.3c2.9,2.77,13.779,14.945,9.235,38.077
	c-0.012,0.059,0.002,0.115,0.001,0.173h-19.089C141.201,411.69,137.637,390.638,151.4,375.3z M127.08,384.547
	c2.308,0.931,9.171,4.77,13.004,9.268c-2.032,9.497-0.92,17.638-0.566,19.735h-8.873C130.189,412.634,123.96,399.69,127.08,384.547z
	 M128.519,415.55h46.127l-5.631,34.912h-34.49L128.519,415.55z M511.165,487.028H92.61v-8.337h418.555L511.165,487.028
	L511.165,487.028z M535.657,476.691H68.118v-24.229h467.54v24.229H535.657z M155.011,157.981h-45.569
	c-5.24,0-9.504,4.264-9.504,9.504v122.294c0,5.24,4.264,9.504,9.504,9.504h45.569c5.241,0,9.504-4.264,9.504-9.504V167.485
	C164.515,162.245,160.251,157.981,155.011,157.981z M162.515,289.779c0,4.138-3.366,7.504-7.504,7.504h-45.569
	c-4.138,0-7.504-3.366-7.504-7.504V167.485c0-4.138,3.366-7.504,7.504-7.504h45.569c4.138,0,7.504,3.366,7.504,7.504V289.779z
	 M147.721,192.113c-0.024-1.469-0.335-4.106-2.044-6.208c-1.403-1.725-3.435-2.724-6.038-2.968c-0.052-0.005-0.098-0.003-0.15-0.007
	c-0.291-3.031-2.314-8.054-8.431-8.564c-5.343-0.448-8.063,3.669-9.146,7.066c-1.312-1.188-3.659-2.276-7.549-1.11
	c-6.806,2.042-6.247,11.831-6.22,12.246c0.035,0.526,0.471,0.935,0.998,0.935h9.121c-2.191,4.437-1.824,9.751-1.797,10.097
	c0.041,0.521,0.475,0.922,0.997,0.922h38.612c0.538,0,0.979-0.425,1-0.962c0.008-0.227,0.171-5.599-3.173-8.931
	C152.319,193.054,150.244,192.21,147.721,192.113z M119.344,191.503h-9.217c0.04-2.273,0.568-7.993,4.811-9.265
	c5.019-1.507,6.396,1.507,6.533,1.847c0.162,0.426,0.595,0.689,1.047,0.637c0.454-0.051,0.815-0.404,0.878-0.856
	c0.046-0.328,1.182-8.023,7.497-7.506c5.249,0.437,6.345,4.882,6.572,6.558c-5.457,0.399-7.317,4.374-7.402,4.564
	c-0.02,0.045-0.037,0.091-0.05,0.137c-1.502-0.306-3.174-0.224-4.999,0.243c-2.501,0.64-4.275,2.003-5.539,3.669
	C119.43,191.523,119.391,191.503,119.344,191.503z M118.434,202.522c-0.005-2.792,0.544-11.053,7.076-12.724
	c2.43-0.623,4.479-0.434,6.092,0.557c2.51,1.543,3.208,4.575,3.214,4.603c0.116,0.54,0.65,0.879,1.188,0.767
	c0.54-0.116,0.883-0.648,0.767-1.188c-0.034-0.157-0.865-3.87-4.101-5.873c-0.246-0.152-0.499-0.291-0.758-0.415
	c0.225-0.441,2.135-3.829,7.541-3.322c2.043,0.191,3.613,0.941,4.665,2.228c1.927,2.359,1.581,5.814,1.577,5.847
	c-0.033,0.29,0.063,0.58,0.262,0.793c0.199,0.213,0.479,0.323,0.773,0.317c2.433-0.096,4.364,0.546,5.752,1.925
	c1.972,1.958,2.449,4.957,2.561,6.483h-36.609V202.522z M119.453,229.469l-6.771,6.904c-0.367,0.374-0.572,0.877-0.572,1.4v1.993
	c0,1.105,0.895,2,2,2h15.151c1.105,0,2-0.895,2-2v-3.851c0-1.105-0.895-2-2-2h-3.148c1.717-1.871,2.918-3.519,3.654-5.01
	c0.873-1.767,1.315-3.476,1.315-5.078c0-1.442-0.398-2.861-1.183-4.22c-0.791-1.37-1.869-2.438-3.204-3.174
	c-1.311-0.723-2.819-1.089-4.482-1.089c-2.685,0-4.936,0.876-6.69,2.605c-1.737,1.712-2.685,4.034-2.817,6.901
	c-0.025,0.546,0.174,1.078,0.551,1.474s0.9,0.619,1.446,0.619h4.059c1.078,0,1.962-0.854,1.999-1.931
	c0.022-0.653,0.171-1.137,0.443-1.44c0.216-0.241,0.416-0.331,0.74-0.331c0.445,0,0.635,0.127,0.762,0.252
	c0.144,0.142,0.241,0.309,0.241,0.662c0,0.469-0.198,1.085-0.572,1.782C122.07,226.509,121.312,227.587,119.453,229.469z
	 M124.11,222.065c-0.56-0.55-1.281-0.825-2.164-0.825c-0.892,0-1.636,0.332-2.23,0.996c-0.595,0.664-0.912,1.567-0.952,2.706h-4.059
	c0.109-2.359,0.85-4.215,2.223-5.568s3.135-2.029,5.286-2.029c1.328,0,2.5,0.28,3.517,0.84c1.016,0.56,1.829,1.368,2.438,2.424
	c0.61,1.056,0.915,2.129,0.915,3.219c0,1.299-0.37,2.696-1.109,4.193c-0.739,1.497-2.09,3.266-4.053,5.308l-2.455,2.587h7.795v3.851
	H114.11v-1.993l6.765-6.899c1.636-1.655,2.723-2.986,3.264-3.992c0.54-1.006,0.81-1.915,0.81-2.728
	C124.95,223.311,124.67,222.615,124.11,222.065z M150.342,215.894h-14.349c-1.105,0-2,0.895-2,2v3.911c0,1.105,0.895,2,2,2h5.97
	l-6.808,13.927c-0.233,0.477-0.267,1.028-0.094,1.531c0.173,0.502,0.539,0.915,1.018,1.147l3.517,1.706
	c0.281,0.136,0.579,0.201,0.872,0.201c0.741,0,1.452-0.413,1.799-1.123l9.873-20.236c0.133-0.273,0.203-0.573,0.203-0.877v-2.186
	C152.342,216.789,151.447,215.894,150.342,215.894z M150.342,220.08l-9.873,20.236l-3.517-1.706l8.216-16.805h-9.174v-3.911h14.349
	v2.186H150.342z M148.874,252.187H115.58c-1.78,0-3.228,1.448-3.228,3.228v0.646c0,1.78,1.448,3.228,3.228,3.228h33.294
	c1.78,0,3.228-1.448,3.228-3.228v-0.646C152.102,253.635,150.653,252.187,148.874,252.187z M150.102,256.06
	c0,0.677-0.551,1.228-1.228,1.228H115.58c-0.677,0-1.228-0.551-1.228-1.228v-0.646c0-0.677,0.551-1.228,1.228-1.228h33.294
	c0.677,0,1.228,0.551,1.228,1.228V256.06z M148.874,262.797H115.58c-1.78,0-3.228,1.448-3.228,3.228v0.646
	c0,1.78,1.448,3.228,3.228,3.228h33.294c1.78,0,3.228-1.448,3.228-3.228v-0.646C152.102,264.246,150.653,262.797,148.874,262.797z
	 M150.102,266.671c0,0.677-0.551,1.228-1.228,1.228H115.58c-0.677,0-1.228-0.551-1.228-1.228v-0.646
	c0-0.677,0.551-1.228,1.228-1.228h33.294c0.677,0,1.228,0.551,1.228,1.228V266.671z M135.406,273.408h-19.827
	c-1.78,0-3.228,1.448-3.228,3.228v0.646c0,1.78,1.448,3.228,3.228,3.228h19.827c1.78,0,3.228-1.448,3.228-3.228v-0.646
	C138.634,274.856,137.186,273.408,135.406,273.408z M136.634,277.282c0,0.677-0.551,1.228-1.228,1.228h-19.827
	c-0.677,0-1.228-0.551-1.228-1.228v-0.646c0-0.677,0.551-1.228,1.228-1.228h19.827c0.677,0,1.228,0.551,1.228,1.228V277.282z
	 M232.709,157.981H187.14c-5.24,0-9.504,4.264-9.504,9.504v122.294c0,5.24,4.264,9.504,9.504,9.504h45.569
	c5.24,0,9.504-4.264,9.504-9.504V167.485C242.213,162.245,237.95,157.981,232.709,157.981z M240.213,289.779
	c0,4.138-3.366,7.504-7.504,7.504H187.14c-4.138,0-7.504-3.366-7.504-7.504V167.485c0-4.138,3.366-7.504,7.504-7.504h45.569
	c4.138,0,7.504,3.366,7.504,7.504V289.779z M225.419,192.113c-0.024-1.469-0.335-4.106-2.043-6.208
	c-1.403-1.726-3.435-2.724-6.039-2.968c-2.456-0.233-4.331,0.209-5.754,0.891c-0.646-4.653-4.632-8.253-9.46-8.253
	c-5.277,0-9.57,4.293-9.57,9.57c0,3.11,1.498,5.87,3.803,7.62c-2.628,4.562-2.22,10.47-2.191,10.835
	c0.041,0.521,0.475,0.922,0.997,0.922h38.612c0.538,0,0.979-0.425,1-0.962c0.008-0.227,0.171-5.599-3.173-8.931
	C230.018,193.054,227.943,192.21,225.419,192.113z M194.553,185.146c0-4.174,3.396-7.57,7.57-7.57c4.144,0,7.518,3.348,7.566,7.482
	c-1.327,1.141-1.883,2.323-1.928,2.424c-0.02,0.045-0.037,0.091-0.05,0.137c-1.503-0.304-3.174-0.224-4.999,0.243
	c-2.293,0.587-3.976,1.782-5.214,3.26C195.711,189.735,194.553,187.577,194.553,185.146z M196.132,202.522
	c-0.005-2.792,0.544-11.053,7.076-12.724c2.429-0.623,4.479-0.434,6.092,0.557c2.51,1.543,3.208,4.575,3.214,4.603
	c0.116,0.54,0.65,0.879,1.188,0.767c0.54-0.116,0.883-0.648,0.767-1.188c-0.034-0.157-0.865-3.87-4.101-5.873
	c-0.246-0.152-0.499-0.291-0.759-0.415c0.247-0.485,2.152-3.825,7.541-3.322c2.044,0.191,3.613,0.941,4.665,2.229
	c1.927,2.358,1.58,5.814,1.577,5.846c-0.033,0.29,0.063,0.58,0.262,0.793c0.199,0.213,0.477,0.323,0.773,0.317
	c2.435-0.1,4.364,0.547,5.752,1.925c1.972,1.958,2.449,4.957,2.561,6.483h-36.608V202.522z M226.572,252.187h-33.295
	c-1.78,0-3.228,1.448-3.228,3.228v0.646c0,1.78,1.448,3.228,3.228,3.228h33.295c1.78,0,3.228-1.448,3.228-3.228v-0.646
	C229.8,253.635,228.352,252.187,226.572,252.187z M227.8,256.06c0,0.677-0.551,1.228-1.228,1.228h-33.295
	c-0.677,0-1.228-0.551-1.228-1.228v-0.646c0-0.677,0.551-1.228,1.228-1.228h33.295c0.677,0,1.228,0.551,1.228,1.228V256.06z
	 M226.572,262.797h-33.295c-1.78,0-3.228,1.448-3.228,3.228v0.646c0,1.78,1.448,3.228,3.228,3.228h33.295
	c1.78,0,3.228-1.448,3.228-3.228v-0.646C229.8,264.246,228.352,262.797,226.572,262.797z M227.8,266.671
	c0,0.677-0.551,1.228-1.228,1.228h-33.295c-0.677,0-1.228-0.551-1.228-1.228v-0.646c0-0.677,0.551-1.228,1.228-1.228h33.295
	c0.677,0,1.228,0.551,1.228,1.228V266.671z M213.104,273.408h-19.827c-1.78,0-3.228,1.448-3.228,3.228v0.646
	c0,1.78,1.448,3.228,3.228,3.228h19.827c1.78,0,3.228-1.448,3.228-3.228v-0.646C216.333,274.856,214.884,273.408,213.104,273.408z
	 M214.333,277.282c0,0.677-0.551,1.228-1.228,1.228h-19.827c-0.677,0-1.228-0.551-1.228-1.228v-0.646
	c0-0.677,0.551-1.228,1.228-1.228h19.827c0.677,0,1.228,0.551,1.228,1.228V277.282z M199.31,239.766
	c2.756,0,5.079-0.871,6.903-2.589c1.858-1.749,2.8-3.918,2.8-6.445c0-1.778-0.515-3.357-1.529-4.695
	c-0.331-0.436-0.703-0.83-1.116-1.18c0.138-0.171,0.267-0.348,0.388-0.53c0.748-1.132,1.126-2.399,1.126-3.764
	c0-2.133-0.825-3.989-2.453-5.517c-1.592-1.494-3.57-2.252-5.881-2.252c-2.564,0-4.732,0.894-6.446,2.658
	c-1.255,1.295-2.025,2.988-2.289,5.033c-0.074,0.57,0.102,1.145,0.482,1.577c0.38,0.432,0.927,0.679,1.502,0.679h3.27
	c-0.119,0.256-0.185,0.541-0.185,0.84v3.569c0,0.612,0.275,1.16,0.708,1.527c-0.176-0.05-0.361-0.077-0.552-0.077h-4.119
	c-0.551,0-1.077,0.227-1.455,0.628s-0.574,0.939-0.542,1.489c0.159,2.72,1.105,4.93,2.812,6.568
	C194.454,238.93,196.666,239.766,199.31,239.766z M196.039,230.599c0.178,1.13,0.572,1.97,1.182,2.52
	c0.609,0.55,1.38,0.825,2.312,0.825c0.972,0,1.777-0.312,2.416-0.937c0.64-0.625,0.959-1.388,0.959-2.289
	c0-0.991-0.431-1.829-1.293-2.513c-0.863-0.684-2.107-1.035-3.732-1.056v-3.569c1.001-0.079,1.747-0.235,2.238-0.469
	c0.49-0.233,0.872-0.552,1.145-0.959c0.272-0.406,0.409-0.838,0.409-1.294c0-0.595-0.208-1.088-0.625-1.479
	s-0.962-0.588-1.636-0.588c-0.594,0-1.135,0.181-1.62,0.543c-0.486,0.362-0.818,0.83-0.996,1.405h-4
	c0.209-1.615,0.788-2.914,1.74-3.896c1.328-1.367,2.998-2.052,5.011-2.052c1.794,0,3.298,0.57,4.512,1.71s1.821,2.493,1.821,4.059
	c0,0.972-0.265,1.859-0.795,2.662c-0.531,0.803-1.302,1.452-2.312,1.948c1.328,0.396,2.367,1.088,3.115,2.074
	c0.748,0.986,1.123,2.148,1.123,3.486c0,1.963-0.724,3.626-2.171,4.989c-1.447,1.363-3.291,2.045-5.531,2.045
	c-2.121,0-3.851-0.642-5.189-1.925c-1.338-1.284-2.071-3.031-2.201-5.241L196.039,230.599L196.039,230.599z M197.331,229.072
	c0.168,0.048,0.344,0.075,0.527,0.077c1.149,0.014,2.018,0.23,2.515,0.623c0.47,0.373,0.535,0.675,0.535,0.946
	c0,0.363-0.103,0.612-0.356,0.858c-0.187,0.182-0.453,0.368-1.019,0.368c-0.557,0-0.812-0.166-0.972-0.31
	c-0.252-0.227-0.446-0.705-0.547-1.348C197.938,229.798,197.687,229.373,197.331,229.072z M198.66,221.471
	c0.018-0.045,0.034-0.091,0.048-0.138c0.053-0.171,0.134-0.284,0.281-0.393c0.14-0.105,0.263-0.147,0.426-0.147
	c0.12,0,0.224,0.016,0.26,0.04c0,0.007,0.001,0.016,0.001,0.027c0,0.026,0,0.076-0.07,0.181c-0.043,0.064-0.127,0.163-0.341,0.265
	C199.205,221.333,199.033,221.403,198.66,221.471z M220.279,218.748c-0.703,0-1.326,0.226-1.87,0.677
	c-0.544,0.451-0.959,1.227-1.246,2.327c-0.287,1.1-0.43,2.711-0.43,4.832c0,2.766,0.329,4.677,0.987,5.732
	c0.657,1.056,1.511,1.583,2.559,1.583c1.009,0,1.81-0.5,2.403-1.502c0.722-1.209,1.083-3.231,1.083-6.066
	c0-2.874-0.324-4.857-0.972-5.947C222.146,219.294,221.308,218.748,220.279,218.748z M220.966,231.372
	c-0.313,0.527-0.529,0.527-0.686,0.527c-0.173,0-0.463,0-0.862-0.641c-0.206-0.331-0.684-1.446-0.684-4.675
	c0-2.419,0.199-3.688,0.365-4.328c0.255-0.977,0.534-1.248,0.588-1.292c0.185-0.154,0.357-0.216,0.593-0.216
	c0.131,0,0.405,0,0.795,0.658c0.208,0.349,0.691,1.53,0.691,4.926C221.766,229.552,221.265,230.872,220.966,231.372z
	 M225.432,214.313c-1.488-1.008-3.254-1.52-5.249-1.52c-3.096,0-5.654,1.325-7.397,3.832c-1.493,2.175-2.216,5.4-2.216,9.87
	c0,3.165,0.36,5.586,1.1,7.401c0.782,1.919,1.912,3.392,3.357,4.377c1.454,0.99,3.229,1.492,5.275,1.492
	c2.058,0,3.82-0.505,5.238-1.501c1.4-0.982,2.507-2.483,3.29-4.461c0.74-1.87,1.099-4.329,1.099-7.517
	c0-3.155-0.354-5.594-1.081-7.456C228.071,216.844,226.922,215.324,225.432,214.313z M226.97,233.067
	c-0.64,1.616-1.499,2.803-2.58,3.561c-1.08,0.759-2.444,1.138-4.088,1.138c-1.646,0-3.029-0.382-4.149-1.145
	s-1.997-1.923-2.632-3.479c-0.635-1.556-0.952-3.771-0.952-6.646c0-4.015,0.619-6.924,1.858-8.728
	c1.378-1.982,3.296-2.974,5.755-2.974c1.596,0,2.971,0.392,4.126,1.175c1.154,0.783,2.047,1.98,2.676,3.591
	c0.63,1.611,0.944,3.854,0.944,6.728C227.929,229.192,227.609,231.451,226.97,233.067z M212.402,178.091l4.217-2.448
	c0.477-0.278,1.089-0.115,1.367,0.363c0.277,0.478,0.115,1.089-0.363,1.367l-4.217,2.448c-0.158,0.092-0.331,0.135-0.501,0.135
	c-0.345,0-0.68-0.178-0.866-0.498C211.762,178.98,211.924,178.368,212.402,178.091z M207.533,174.987
	c-0.438-0.336-0.52-0.964-0.183-1.402l3.061-3.979c0.336-0.438,0.963-0.521,1.402-0.183c0.438,0.336,0.52,0.964,0.183,1.402
	l-3.061,3.979c-0.197,0.256-0.493,0.39-0.793,0.39C207.929,175.194,207.715,175.127,207.533,174.987z M199.902,172.851l-0.408-4.795
	c-0.047-0.55,0.361-1.035,0.912-1.082c0.547-0.045,1.035,0.361,1.082,0.912l0.408,4.795c0.047,0.55-0.361,1.035-0.912,1.082
	c-0.029,0.002-0.058,0.003-0.086,0.003C200.383,173.766,199.946,173.373,199.902,172.851z M189.968,172.292
	c-0.358-0.421-0.307-1.052,0.114-1.41s1.053-0.307,1.41,0.114l3.095,3.639c0.358,0.421,0.307,1.052-0.114,1.41
	c-0.188,0.16-0.418,0.238-0.647,0.238c-0.283,0-0.564-0.12-0.762-0.352L189.968,172.292z M184.557,179.018
	c0.134-0.536,0.678-0.861,1.213-0.726l4.219,1.059c0.536,0.134,0.861,0.678,0.726,1.213c-0.114,0.454-0.521,0.756-0.969,0.756
	c-0.081,0-0.163-0.01-0.245-0.03l-4.219-1.059C184.747,180.097,184.422,179.554,184.557,179.018z M189.947,188.875l-4.149,1.496
	c-0.112,0.041-0.227,0.06-0.339,0.06c-0.41,0-0.793-0.254-0.94-0.661c-0.188-0.52,0.082-1.093,0.601-1.28l4.149-1.497
	c0.52-0.187,1.092,0.083,1.28,0.602C190.735,188.114,190.466,188.688,189.947,188.875z M190.287,198.525
	c-0.227,0-0.455-0.077-0.643-0.234c-0.423-0.355-0.478-0.986-0.123-1.409l2.874-3.423c0.354-0.423,0.985-0.479,1.409-0.123
	c0.423,0.355,0.478,0.986,0.123,1.409l-2.874,3.423C190.855,198.403,190.572,198.525,190.287,198.525z M305.254,251.778H271.96
	c-1.78,0-3.228,1.448-3.228,3.228v0.646c0,1.78,1.448,3.228,3.228,3.228h33.294c1.779,0,3.228-1.448,3.228-3.228v-0.646
	C308.481,253.227,307.033,251.778,305.254,251.778z M306.481,255.652c0,0.677-0.551,1.228-1.228,1.228h-33.294
	c-0.677,0-1.228-0.551-1.228-1.228v-0.646c0-0.677,0.551-1.228,1.228-1.228h33.294c0.677,0,1.228,0.551,1.228,1.228V255.652z
	 M308.481,266.263v-0.646c0-1.78-1.448-3.228-3.228-3.228h-33.294c-1.78,0-3.228,1.448-3.228,3.228v0.646
	c0,1.78,1.448,3.228,3.228,3.228h33.294C307.033,269.491,308.481,268.043,308.481,266.263z M270.731,266.263v-0.646
	c0-0.677,0.551-1.228,1.228-1.228h33.294c0.677,0,1.228,0.551,1.228,1.228v0.646c0,0.677-0.551,1.228-1.228,1.228h-33.294
	C271.282,267.491,270.731,266.94,270.731,266.263z M289.715,195.158c5.277,0,9.57-4.293,9.57-9.57s-4.293-9.57-9.57-9.57
	s-9.57,4.293-9.57,9.57S284.438,195.158,289.715,195.158z M289.715,178.017c4.174,0,7.57,3.396,7.57,7.57s-3.396,7.57-7.57,7.57
	s-7.57-3.396-7.57-7.57S285.541,178.017,289.715,178.017z M300.345,179.9c-0.277-0.478-0.114-1.089,0.363-1.367l4.218-2.449
	c0.48-0.277,1.091-0.115,1.367,0.363c0.277,0.478,0.114,1.089-0.363,1.367l-4.218,2.449c-0.158,0.092-0.331,0.135-0.501,0.135
	C300.866,180.398,300.53,180.22,300.345,179.9z M294.92,175.123c-0.438-0.337-0.52-0.964-0.183-1.402l3.061-3.979
	c0.337-0.438,0.965-0.521,1.402-0.183c0.438,0.337,0.52,0.964,0.184,1.402l-3.062,3.979c-0.197,0.256-0.494,0.39-0.794,0.39
	C295.316,175.331,295.103,175.263,294.92,175.123z M287.29,172.987l-0.408-4.795c-0.047-0.55,0.361-1.035,0.912-1.082
	c0.554-0.051,1.035,0.361,1.082,0.912l0.408,4.795c0.047,0.55-0.361,1.035-0.912,1.082c-0.029,0.002-0.058,0.003-0.086,0.003
	C287.771,173.902,287.334,173.509,287.29,172.987z M277.356,172.428c-0.358-0.421-0.307-1.052,0.114-1.41
	c0.42-0.358,1.052-0.307,1.41,0.114l3.095,3.639c0.358,0.421,0.307,1.052-0.114,1.41c-0.188,0.16-0.418,0.238-0.647,0.238
	c-0.283,0-0.564-0.12-0.762-0.352L277.356,172.428z M271.639,180.072c0.134-0.536,0.677-0.862,1.213-0.726l4.219,1.059
	c0.536,0.134,0.861,0.678,0.726,1.213c-0.114,0.454-0.521,0.756-0.969,0.756c-0.081,0-0.163-0.01-0.245-0.03l-4.219-1.059
	C271.829,181.151,271.504,180.608,271.639,180.072z M277.233,189.929l-4.149,1.497c-0.112,0.04-0.227,0.06-0.339,0.06
	c-0.41,0-0.793-0.254-0.94-0.661c-0.188-0.52,0.082-1.093,0.601-1.28l4.149-1.496c0.519-0.188,1.092,0.082,1.28,0.601
	S277.752,189.742,277.233,189.929z M278,239.357c2.756,0,5.079-0.871,6.903-2.588c1.858-1.749,2.8-3.918,2.8-6.445
	c0-1.778-0.514-3.357-1.529-4.695c-0.331-0.436-0.703-0.83-1.116-1.18c0.138-0.171,0.267-0.348,0.388-0.53
	c0.748-1.132,1.126-2.399,1.126-3.764c0-2.133-0.825-3.989-2.453-5.517c-1.592-1.494-3.571-2.252-5.881-2.252
	c-2.564,0-4.732,0.894-6.445,2.658c-1.255,1.295-2.025,2.988-2.289,5.033c-0.074,0.57,0.102,1.145,0.482,1.577
	c0.38,0.432,0.927,0.679,1.502,0.679h3.27c-0.119,0.256-0.185,0.541-0.185,0.84v3.569c0,0.612,0.275,1.16,0.708,1.527
	c-0.176-0.05-0.361-0.077-0.552-0.077h-4.119c-0.551,0-1.077,0.227-1.455,0.628s-0.574,0.939-0.542,1.489
	c0.159,2.72,1.105,4.93,2.812,6.568C273.143,238.522,275.355,239.357,278,239.357z M274.729,230.191
	c0.178,1.13,0.573,1.97,1.182,2.52s1.38,0.825,2.312,0.825c0.972,0,1.777-0.312,2.416-0.937c0.64-0.624,0.959-1.388,0.959-2.289
	c0-0.991-0.431-1.829-1.293-2.513c-0.863-0.684-2.107-1.035-3.732-1.055v-3.569c1.001-0.079,1.747-0.235,2.238-0.469
	c0.49-0.233,0.872-0.552,1.145-0.959c0.272-0.406,0.409-0.837,0.409-1.294c0-0.595-0.208-1.088-0.624-1.479
	s-0.962-0.588-1.636-0.588c-0.594,0-1.135,0.181-1.62,0.543c-0.486,0.362-0.818,0.83-0.996,1.405h-4
	c0.208-1.615,0.788-2.914,1.74-3.896c1.328-1.367,2.998-2.052,5.011-2.052c1.794,0,3.298,0.57,4.512,1.71s1.821,2.493,1.821,4.059
	c0,0.972-0.265,1.859-0.795,2.662c-0.531,0.803-1.302,1.452-2.312,1.948c1.328,0.396,2.367,1.088,3.115,2.074
	c0.748,0.986,1.123,2.148,1.123,3.486c0,1.963-0.724,3.626-2.171,4.989c-1.447,1.363-3.291,2.044-5.531,2.044
	c-2.121,0-3.851-0.642-5.189-1.925c-1.338-1.284-2.071-3.031-2.201-5.241L274.729,230.191L274.729,230.191z M276.021,228.664
	c0.168,0.048,0.344,0.075,0.527,0.077c1.149,0.014,2.018,0.23,2.515,0.623c0.47,0.373,0.535,0.675,0.535,0.946
	c0,0.363-0.103,0.611-0.356,0.858c-0.187,0.182-0.453,0.368-1.019,0.368c-0.557,0-0.812-0.166-0.972-0.31
	c-0.252-0.227-0.446-0.705-0.547-1.348C276.627,229.39,276.376,228.965,276.021,228.664z M277.349,221.063
	c0.018-0.045,0.034-0.091,0.048-0.138c0.053-0.171,0.134-0.285,0.28-0.393c0.14-0.105,0.264-0.147,0.426-0.147
	c0.12,0,0.224,0.016,0.26,0.04c0,0.007,0,0.016,0,0.027c0,0.026,0,0.076-0.07,0.181c-0.043,0.064-0.127,0.163-0.341,0.265
	C277.894,220.925,277.722,220.995,277.349,221.063z M295.586,228.466l4.996-7.331v7.331H295.586z M306.656,226.467v-12.081
	c0-1.105-0.895-2-2-2h-4.149c-0.666,0-1.288,0.331-1.66,0.884l-9.47,14.081c-0.222,0.33-0.34,0.719-0.34,1.116v3.851
	c0,1.105,0.895,2,2,2h7.546v2.49c0,1.105,0.895,2,2,2h4.074c1.105,0,2-0.895,2-2v-2.491c1.08-0.028,1.948-0.912,1.948-1.999v-3.851
	C308.603,227.379,307.736,226.494,306.656,226.467z M306.603,232.317h-1.948v4.49h-4.074v-4.49h-9.546v-3.851l9.47-14.081h4.149
	v14.081h1.948v3.851H306.603z M277.656,200.199c-0.43-0.347-0.497-0.976-0.149-1.406l3.063-3.794
	c0.347-0.429,0.978-0.495,1.406-0.149c0.43,0.347,0.497,0.976,0.149,1.406l-3.063,3.794c-0.197,0.245-0.487,0.372-0.778,0.372
	C278.063,200.421,277.841,200.348,277.656,200.199z M288.68,198.547l-0.612,4.387c-0.069,0.5-0.498,0.862-0.989,0.862
	c-0.046,0-0.093-0.003-0.14-0.01c-0.547-0.076-0.929-0.582-0.852-1.128l0.612-4.387c0.076-0.547,0.581-0.934,1.128-0.852
	C288.375,197.495,288.757,198,288.68,198.547z M296.478,202.292l-2.096-4.333c-0.24-0.497-0.032-1.095,0.465-1.336
	c0.502-0.241,1.096-0.032,1.336,0.465l2.096,4.333c0.24,0.497,0.032,1.095-0.465,1.336c-0.141,0.068-0.289,0.1-0.435,0.1
	C297.007,202.856,296.65,202.648,296.478,202.292z M300.112,192.165c0.266-0.484,0.872-0.662,1.356-0.397l4.191,2.292
	c0.484,0.265,0.663,0.873,0.397,1.357c-0.182,0.332-0.524,0.52-0.878,0.52c-0.162,0-0.326-0.04-0.479-0.123l-4.191-2.292
	C300.025,193.257,299.847,192.649,300.112,192.165z M302.879,185.488l4.318-0.519c0.551-0.063,1.046,0.326,1.112,0.874
	c0.065,0.548-0.325,1.046-0.874,1.112l-4.318,0.519c-0.04,0.005-0.081,0.007-0.12,0.007c-0.499,0-0.931-0.373-0.992-0.881
	C301.939,186.052,302.33,185.554,302.879,185.488z"></path>
</svg>